<?xml version="1.0" standalone="no"?>
<!DOCTYPE svg PUBLIC "-//W3C//DTD SVG 20010904//EN"
 "http://www.w3.org/TR/2001/REC-SVG-20010904/DTD/svg10.dtd">
<svg version="1.0" xmlns="http://www.w3.org/2000/svg"
 width="700.000000pt" height="700.000000pt" viewBox="0 0 700.000000 700.000000"
 preserveAspectRatio="xMidYMid meet">
<metadata>
Created by potrace 1.14, written by Peter Selinger 2001-2017
</metadata>
<g transform="translate(0.000000,700.000000) scale(0.100000,-0.100000)"
fill="#000000" stroke="none">
<path d="M3397 6923 c-1 0 -54 -4 -117 -8 -63 -3 -124 -8 -135 -10 -11 -3 -44
-7 -74 -10 -51 -5 -146 -19 -201 -30 -14 -3 -50 -10 -80 -16 -455 -90 -1007
-342 -1362 -623 -14 -12 -39 -31 -55 -43 -15 -12 -39 -31 -53 -43 -14 -12 -50
-42 -80 -68 -75 -65 -242 -232 -321 -322 -285 -325 -513 -720 -655 -1135 -42
-121 -105 -354 -119 -435 -3 -19 -8 -42 -10 -50 -2 -8 -7 -35 -10 -60 -4 -24
-8 -47 -10 -50 -1 -3 -6 -39 -10 -80 -4 -41 -9 -84 -11 -95 -14 -71 -26 -546
-15 -570 10 -21 9 -55 -2 -55 -9 0 -9 -2 -1 -8 6 -4 14 -41 17 -82 4 -41 10
-97 14 -125 4 -27 7 -62 8 -77 0 -16 3 -28 6 -28 7 0 23 -93 22 -127 0 -13 3
-23 7 -23 4 0 7 -6 8 -12 0 -11 9 -54 16 -83 2 -5 6 -17 10 -26 4 -9 8 -27 10
-41 1 -13 6 -30 10 -37 9 -14 9 -13 -19 -30 -18 -10 -17 -11 8 -7 22 4 27 2
23 -9 -2 -7 0 -15 5 -17 6 -2 11 -10 13 -18 6 -33 18 -76 26 -95 4 -11 16 -40
26 -65 11 -24 19 -47 19 -51 0 -4 3 -10 7 -14 4 -4 4 -13 1 -21 -3 -8 0 -14 7
-14 6 0 8 -5 5 -10 -11 -19 -36 10 -30 34 5 17 4 18 -4 6 -9 -13 -11 -13 -11
3 0 9 6 17 13 17 9 0 9 2 -1 9 -8 4 -13 11 -13 15 1 7 -8 8 -31 0 -10 -3 -18
-10 -18 -15 0 -6 5 -7 12 -3 8 5 9 2 5 -10 -4 -11 -3 -15 4 -11 6 4 8 14 5 22
-4 9 -1 13 6 10 14 -5 12 -40 -3 -45 -5 -2 -9 -8 -9 -14 0 -7 5 -6 14 1 12 10
14 6 11 -26 -5 -44 8 -76 19 -48 3 9 1 26 -5 37 -16 30 -3 34 16 5 15 -24 15
-28 0 -54 -15 -25 -15 -26 0 -7 27 36 58 14 79 -56 1 -3 9 -19 19 -37 17 -32
13 -35 -26 -18 -10 4 -23 3 -28 -2 -6 -6 -2 -9 13 -9 17 1 22 -4 20 -19 -2
-18 -1 -18 8 -3 6 9 17 15 24 12 19 -7 40 -59 33 -85 -4 -15 -2 -18 7 -10 9 8
18 -2 36 -37 13 -26 22 -51 20 -57 -1 -5 -3 -17 -4 -25 -1 -9 -5 -21 -10 -28
-6 -11 5 -17 27 -13 11 2 8 -37 -3 -42 -6 -3 -5 -4 2 -3 7 2 13 14 13 27 0 13
-5 23 -11 22 -6 -1 -11 9 -11 22 0 15 5 25 14 25 8 0 11 -4 8 -10 -3 -5 -1
-10 5 -10 6 0 9 -4 5 -9 -3 -6 4 -19 15 -29 13 -12 23 -36 25 -62 2 -24 9 -48
14 -53 14 -14 14 -27 2 -27 -5 0 -13 9 -16 20 -4 11 -11 17 -17 14 -6 -4 -5
-10 3 -15 8 -5 10 -9 4 -9 -5 0 -2 -5 8 -11 9 -6 15 -14 12 -20 -4 -5 -4 -9
-1 -9 3 0 10 9 16 20 8 15 7 27 -5 49 -17 35 -18 41 -6 41 5 0 13 -9 16 -20 3
-11 12 -26 18 -32 28 -29 62 -84 59 -96 -2 -7 1 -11 5 -10 4 2 8 1 8 -2 1 -3
12 -17 25 -31 34 -35 65 -74 60 -74 -5 -1 -3 -3 60 -75 22 -25 40 -49 40 -55
0 -5 -15 7 -34 28 -35 39 -66 52 -78 33 -4 -6 0 -19 9 -28 18 -20 33 -23 33
-7 0 5 -4 8 -9 5 -5 -3 -14 0 -20 8 -9 11 -6 14 14 14 14 0 25 -5 25 -11 0 -5
8 -16 18 -24 14 -12 14 -14 1 -10 -9 3 -22 1 -30 -3 -9 -6 -2 -8 20 -7 19 1
36 -3 38 -9 2 -7 -6 -10 -21 -9 -18 2 -23 -1 -19 -12 5 -12 7 -12 14 -2 4 8
11 10 15 6 4 -3 3 -12 -2 -20 -5 -7 -2 -5 7 5 9 9 20 14 23 10 4 -3 4 1 0 11
-13 35 13 13 95 -80 67 -75 81 -97 70 -105 -11 -7 -9 -8 6 -4 20 5 48 -5 46
-18 -3 -19 0 -27 7 -22 10 6 52 -30 52 -45 0 -6 4 -8 8 -5 5 3 20 -8 35 -24
16 -17 23 -31 17 -35 -14 -9 -32 4 -24 17 4 6 2 8 -3 5 -6 -4 -16 0 -23 8 -9
11 -17 12 -32 4 -11 -6 -17 -13 -14 -16 3 -3 13 0 22 8 15 12 16 12 10 -8 -10
-31 30 -59 54 -38 8 7 22 13 30 12 20 -3 57 -29 58 -41 0 -5 11 -14 23 -20 12
-6 25 -18 27 -26 4 -11 1 -10 -12 3 -24 24 -33 21 -11 -3 13 -14 22 -17 29
-10 10 10 46 -14 46 -31 0 -8 -42 -5 -57 4 -6 4 -13 1 -16 -7 -4 -9 0 -12 13
-9 12 3 20 -2 25 -18 l8 -23 23 29 c14 17 24 24 24 16 0 -8 -10 -26 -22 -40
-13 -14 -19 -23 -14 -19 4 4 20 -4 34 -18 32 -29 37 -29 61 -5 19 19 45 13 63
-13 4 -6 8 -7 8 -3 0 4 21 -8 46 -28 26 -19 50 -35 54 -35 5 0 7 -11 6 -25 -1
-20 -5 -23 -26 -19 -22 4 -21 3 4 -7 19 -8 24 -14 16 -19 -7 -5 -2 -7 14 -7
14 0 26 3 26 8 0 5 -3 8 -7 8 -23 -4 -25 3 -6 16 22 15 58 11 47 -6 -5 -8 9
-13 29 -10 4 0 7 -3 7 -8 0 -5 11 -12 25 -15 27 -7 34 -23 10 -23 -8 0 -15 4
-15 9 0 5 -5 6 -11 2 -8 -4 -7 -9 2 -15 7 -4 17 -5 21 -3 4 3 8 -1 8 -8 0 -8
5 -6 11 5 10 18 12 18 30 1 10 -9 19 -14 19 -11 0 4 23 -7 50 -23 28 -17 55
-30 60 -30 16 0 11 -16 -10 -35 -11 -10 -20 -23 -20 -29 0 -6 4 -4 10 4 8 12
10 12 16 -3 6 -15 8 -14 20 9 16 30 18 48 3 22 -5 -10 -15 -18 -21 -18 -6 0
-3 9 6 19 18 19 52 18 40 -1 -3 -5 2 -8 12 -7 22 4 119 -39 110 -48 -3 -3 -11
-2 -18 4 -7 5 -23 8 -36 7 -16 -1 -21 3 -18 13 3 8 1 11 -4 8 -6 -3 -10 0 -10
7 0 7 -7 2 -16 -10 -8 -12 -20 -22 -26 -22 -7 0 -6 6 2 15 7 9 8 15 2 15 -14
0 -22 -24 -12 -39 6 -10 9 -10 15 -1 5 8 11 6 22 -7 13 -17 13 -16 4 4 -7 13
-7 24 -2 28 10 6 27 -33 22 -50 -1 -5 9 1 23 14 23 21 26 22 32 7 6 -16 8 -16
25 0 12 11 19 13 19 5 0 -7 4 -10 9 -6 5 3 12 1 16 -5 4 -6 11 -8 16 -5 5 4
12 0 15 -9 3 -9 12 -12 21 -9 12 5 14 3 8 -6 -5 -10 -2 -11 13 -7 24 8 39 -11
22 -27 -10 -9 -12 -8 -7 6 4 10 3 16 -2 13 -11 -7 -11 -55 0 -62 5 -3 6 3 3
13 -4 14 -1 13 15 -5 14 -17 25 -21 36 -15 14 8 13 11 -5 28 -11 10 -20 25
-20 34 0 13 2 13 9 3 4 -8 11 -13 15 -12 4 1 17 -1 29 -5 12 -4 31 -9 42 -11
36 -8 41 -23 15 -47 -14 -12 -21 -19 -16 -14 17 12 26 8 20 -10 -4 -13 -3 -14
3 -5 8 10 12 10 22 -2 7 -8 19 -12 27 -9 8 3 14 -1 14 -8 0 -7 3 -9 7 -6 3 4
18 0 32 -9 l26 -15 -22 19 c-12 11 -20 22 -18 24 3 3 -8 4 -25 3 -33 -2 -38 6
-15 25 8 7 15 8 15 2 0 -12 48 -13 56 -1 7 12 24 11 24 0 0 -5 -9 -13 -21 -16
-20 -7 -20 -7 -2 -27 22 -25 59 -46 48 -27 -6 9 -4 11 8 6 9 -3 18 1 21 9 8
22 8 22 -14 34 -14 7 -20 7 -20 0 0 -5 7 -10 15 -10 8 0 15 -4 15 -10 0 -15
-26 -12 -40 5 -25 31 4 34 93 10 99 -27 91 -25 117 -25 11 0 20 -4 20 -9 0
-12 -53 -9 -63 4 -5 6 -7 5 -5 -3 2 -8 7 -12 12 -10 4 2 13 -6 19 -17 13 -23
38 -26 50 -7 4 6 12 12 18 12 5 0 2 -11 -6 -24 -15 -23 -15 -24 2 -21 10 1 24
-2 31 -8 9 -7 11 -6 6 7 -4 10 -13 15 -21 12 -9 -4 -13 -1 -10 6 2 9 22 13 55
12 47 -1 50 0 35 13 -10 8 -12 12 -6 8 16 -8 53 -16 73 -17 8 0 21 -6 29 -12
11 -8 13 -8 7 2 -4 6 -2 12 3 12 13 0 14 -27 2 -35 -5 -3 -12 -1 -16 5 -3 5
-12 10 -18 10 -7 0 -4 -5 6 -11 12 -7 16 -18 13 -32 -3 -12 -3 -16 0 -9 5 10
9 10 22 0 12 -10 14 -10 8 0 -4 6 -3 12 3 12 5 0 12 -5 14 -10 3 -6 4 -5 3 2
-2 7 -11 12 -20 12 -9 -1 -15 3 -13 10 5 13 39 9 49 -7 6 -9 8 -8 8 1 0 7 -10
17 -22 22 -26 10 -20 13 39 14 23 1 40 -1 37 -5 -2 -4 14 -6 36 -4 40 3 51 -7
28 -22 -7 -4 -19 -8 -27 -8 -21 0 -25 -22 -5 -29 14 -5 15 -4 5 8 -9 11 -7 13
14 13 21 0 23 -2 14 -13 -7 -8 -9 -17 -6 -21 4 -3 9 2 13 11 3 9 11 13 18 9 6
-3 6 -1 -1 8 -17 18 -16 29 2 29 8 0 15 4 15 8 0 5 7 9 15 9 21 0 19 -15 -4
-22 -24 -7 -19 -25 12 -44 21 -13 22 -13 5 6 -10 11 -18 24 -18 29 1 5 14 -6
29 -24 19 -22 31 -30 36 -22 5 8 10 8 20 0 10 -8 15 -8 20 0 5 7 11 8 19 1 8
-6 17 -6 26 0 12 8 11 9 -4 7 -10 -2 -21 3 -24 11 -3 10 0 11 9 5 14 -8 14 -7
-19 36 -2 3 -3 -2 -2 -10 4 -27 0 -41 -10 -35 -5 3 -7 12 -4 19 3 8 0 17 -7
22 -7 4 -15 2 -17 -5 -3 -9 -7 -9 -18 0 -10 8 -14 8 -14 0 0 -6 5 -11 11 -11
5 0 7 -5 4 -10 -5 -8 -11 -7 -21 1 -32 26 -7 34 108 34 64 0 114 -3 111 -8 -2
-4 1 -7 6 -7 6 0 11 5 11 12 0 16 29 -23 30 -40 0 -6 -3 -11 -7 -11 -21 3 -33
-2 -27 -12 5 -8 9 -8 14 1 4 6 10 11 14 11 24 -3 27 1 12 24 -9 14 -12 25 -7
25 5 0 13 -5 16 -10 4 -6 16 -8 28 -5 20 6 21 5 5 -8 -16 -12 -11 -14 42 -14
32 0 57 4 54 9 -3 4 0 8 7 8 6 0 9 -8 7 -17 -4 -13 1 -18 17 -19 22 -2 22 -1
4 17 -11 11 -19 24 -19 29 0 6 -11 3 -24 -5 -22 -15 -27 -15 -55 -1 -16 9 -37
13 -45 10 -9 -3 -16 -2 -16 3 0 5 28 9 63 10 34 0 74 3 90 6 15 3 27 2 27 -3
0 -15 -18 -21 -23 -8 -4 10 -6 10 -6 0 -1 -7 6 -15 14 -18 8 -4 12 -10 9 -15
-3 -5 0 -9 6 -9 7 0 10 7 6 15 -8 22 3 43 21 41 9 -2 33 0 54 4 20 4 45 3 54
-3 13 -7 16 -6 11 2 -4 6 0 11 11 12 10 1 33 2 51 4 21 1 36 -3 42 -14 6 -10
10 -11 10 -3 0 6 5 12 11 12 6 0 9 -6 6 -14 -9 -23 18 -39 33 -21 7 8 17 15
22 15 6 0 5 -7 -2 -15 -9 -10 -9 -15 -1 -15 6 0 11 5 11 11 0 6 8 8 18 5 16
-6 16 -5 0 7 -10 8 -14 17 -10 21 4 4 -5 2 -20 -5 -16 -7 -28 -17 -28 -22 0
-6 -3 -7 -7 -3 -4 4 -8 15 -8 24 0 10 -7 16 -17 16 -10 -1 -18 2 -18 7 0 5 13
8 28 7 15 -1 34 2 41 7 10 5 12 4 7 -3 -4 -7 -2 -12 3 -12 6 0 11 5 11 10 0 6
8 10 18 10 14 0 15 -2 2 -10 -12 -7 -11 -9 5 -8 11 0 27 -1 35 -4 8 -3 12 -3
7 -1 -4 3 -5 9 -2 14 4 5 -1 6 -9 3 -9 -3 -16 -2 -16 3 0 5 6 10 13 11 6 1 25
4 41 8 23 5 27 4 22 -7 -4 -8 -1 -6 8 5 8 10 22 16 30 13 9 -4 18 -2 21 4 4 5
12 9 18 8 7 -1 19 0 27 4 20 7 73 21 85 21 14 1 15 -46 1 -64 -9 -13 -9 -13 5
-3 9 7 19 9 24 5 4 -4 3 3 -4 15 -7 14 -8 24 -1 28 5 3 10 -2 10 -11 0 -16 1
-16 14 1 16 22 56 27 63 8 4 -10 9 -11 19 -2 7 6 19 8 26 4 7 -4 5 0 -5 8 -16
13 -16 15 -1 21 22 8 26 8 19 -3 -3 -5 -1 -12 4 -15 5 -4 12 -2 15 3 4 5 2 12
-4 16 -5 3 -10 11 -10 17 0 7 5 7 14 -1 11 -9 15 -8 20 5 4 9 13 14 21 10 8
-3 15 -1 15 4 0 6 -7 10 -15 10 -20 0 -19 16 1 24 8 3 12 2 9 -4 -3 -6 -1 -10
4 -10 6 0 11 4 11 9 0 5 6 11 13 14 6 3 29 12 49 21 30 13 36 13 32 2 -3 -7
-13 -13 -22 -12 -9 0 -16 -5 -14 -11 1 -7 -2 -13 -8 -13 -5 0 -10 -5 -10 -11
0 -8 6 -7 17 2 15 12 16 12 10 -4 -4 -10 -7 -21 -7 -23 0 -3 -4 -2 -10 1 -5 3
-10 1 -10 -4 0 -17 20 -13 26 4 4 10 13 13 24 10 19 -6 37 10 22 19 -8 5 -9
26 -3 58 0 4 8 5 16 2 8 -4 15 -1 15 4 0 10 28 24 40 20 3 0 24 9 48 21 23 12
42 18 42 14 0 -4 7 2 15 13 10 13 14 15 15 5 0 -8 -8 -23 -17 -33 -12 -13 -13
-22 -6 -29 12 -12 42 -1 42 16 0 5 5 11 12 14 6 2 9 -1 6 -6 -3 -5 0 -10 8
-10 20 0 19 10 -4 24 -16 10 -20 8 -31 -13 -8 -13 -17 -24 -22 -24 -13 0 -9
16 7 30 8 7 15 18 15 26 0 7 9 18 20 24 11 6 20 7 20 3 0 -4 7 2 16 13 15 19
16 19 9 -1 -4 -11 -8 -26 -8 -33 0 -7 -5 -11 -11 -9 -6 3 -10 9 -9 15 2 6 -4
9 -13 5 -13 -5 -12 -7 3 -18 10 -6 26 -15 36 -18 15 -5 16 -4 8 10 -15 27 14
72 49 80 17 3 30 9 30 14 0 5 10 13 21 20 17 9 20 8 14 -3 -3 -7 -1 -6 7 2 16
19 94 68 85 53 -4 -6 3 -8 21 -5 23 4 24 6 7 12 -13 4 -15 9 -7 14 7 4 12 4
12 1 0 -3 10 3 22 15 23 21 68 27 68 9 0 -7 -9 -9 -24 -5 -35 9 -53 -17 -36
-49 7 -14 15 -23 17 -21 3 2 -1 13 -9 25 -17 28 1 48 31 32 12 -7 21 -16 21
-21 0 -5 10 1 23 13 13 12 21 26 19 31 -3 5 1 7 9 4 10 -4 15 1 16 13 2 27
-13 33 -39 15 -25 -18 -17 -21 13 -6 27 15 24 6 -12 -32 -25 -27 -30 -29 -25
-11 5 15 1 25 -11 32 -16 9 -16 10 -2 11 9 0 20 7 23 16 3 8 10 13 15 10 5 -4
11 -3 13 1 4 11 110 89 128 95 8 3 23 1 33 -4 12 -6 23 -5 33 3 17 14 19 -2 2
-21 -11 -12 -10 -12 5 -1 20 16 23 46 3 38 -7 -3 -20 0 -27 6 -11 10 -11 9 0
-5 15 -20 2 -25 -16 -7 -9 9 -2 18 25 37 20 13 41 31 45 39 7 12 11 12 25 1
13 -11 15 -11 10 3 -4 11 5 27 29 48 19 17 39 31 43 31 4 0 10 7 14 15 3 8 16
15 28 15 19 0 20 2 8 10 -13 8 -12 10 3 10 9 0 17 -5 17 -11 0 -5 5 -7 11 -3
7 4 10 1 7 -7 -3 -8 -14 -13 -24 -12 -10 1 -13 0 -6 -3 6 -3 10 -10 6 -15 -3
-5 0 -9 5 -9 6 0 11 5 11 11 0 5 5 7 10 4 6 -4 10 -3 9 2 -4 21 2 33 16 33 7
0 18 6 22 14 4 8 13 15 18 15 13 1 15 42 3 61 -6 10 -7 7 -2 -10 6 -21 5 -23
-7 -13 -12 10 -17 8 -27 -7 -7 -12 -8 -21 -2 -25 16 -10 12 -22 -10 -28 -10
-3 -27 2 -37 10 -17 13 -16 14 12 8 21 -4 26 -3 16 4 -12 8 -7 18 27 54 23 26
43 40 46 34 3 -8 5 -7 5 2 1 7 12 26 25 42 20 23 26 26 36 15 7 -9 7 -16 1
-20 -5 -3 -11 -3 -14 1 -2 5 -2 2 0 -6 2 -8 -2 -11 -11 -8 -11 4 -13 1 -9 -10
4 -11 3 -14 -6 -9 -7 5 -10 2 -9 -6 2 -7 -5 -12 -14 -12 -15 1 -15 -1 -2 -21
8 -12 11 -25 7 -30 -5 -4 -3 -5 4 -1 7 4 10 13 7 21 -9 22 5 38 21 25 13 -11
28 9 29 39 1 8 7 16 14 19 8 2 10 -2 6 -15 -6 -17 -6 -17 7 -1 8 10 23 25 34
34 11 8 14 13 7 9 -24 -12 -61 -15 -67 -5 -7 12 10 46 22 43 4 -2 8 2 8 8 0 6
7 16 16 22 8 7 30 32 49 57 18 25 30 37 27 27 -4 -10 -3 -16 2 -13 15 9 31
-40 18 -55 -10 -11 -9 -11 5 0 10 7 15 17 12 22 -3 5 1 12 10 15 29 11 25 31
-5 29 -25 -2 -28 1 -23 19 8 29 30 50 43 42 5 -4 8 -13 5 -21 -4 -8 -10 -12
-15 -9 -5 3 -6 10 -3 16 4 7 2 8 -4 4 -6 -4 -9 -13 -6 -20 8 -20 53 -16 64 4
6 10 18 26 27 36 17 17 17 18 0 11 -13 -5 -17 -3 -14 5 2 7 10 12 17 10 15 -4
51 28 45 39 -3 4 3 12 12 18 17 9 17 10 0 23 -18 13 -18 15 2 39 12 15 18 34
15 46 -5 18 -2 20 20 16 14 -3 26 -1 26 5 0 5 -6 9 -12 8 -7 0 -13 4 -13 9 0
6 5 9 11 9 7 -1 9 8 7 20 -4 20 -4 20 11 3 8 -11 12 -26 9 -35 -4 -9 -2 -13 4
-9 6 4 14 1 17 -5 3 -7 4 -4 1 8 -3 12 1 26 9 33 8 7 12 20 10 29 -5 14 -2 13
10 -2 16 -20 22 -11 8 12 -5 7 -16 10 -26 6 -12 -5 -14 -10 -5 -20 8 -10 6
-13 -10 -11 -28 2 -36 27 -11 34 11 3 20 10 20 15 0 5 -5 6 -12 2 -6 -4 -3 5
8 19 10 15 22 27 27 27 10 0 9 -18 -3 -25 -5 -3 -10 -12 -10 -18 0 -7 5 -4 11
6 6 10 19 16 32 14 12 -2 16 -2 10 0 -7 3 -13 9 -13 14 0 6 4 8 9 5 4 -3 8 4
7 16 -1 22 -26 39 -26 18 0 -6 5 -8 10 -5 6 3 10 2 10 -4 0 -15 -20 -25 -31
-14 -5 5 0 22 12 42 11 18 23 30 27 27 3 -4 2 -10 -4 -14 -6 -4 -4 -13 7 -24
16 -15 17 -15 22 2 3 12 0 17 -7 14 -8 -3 -11 5 -10 23 1 15 3 29 4 31 1 1 3
5 5 10 7 26 19 42 31 42 8 0 14 -3 14 -6 0 -9 -27 -34 -32 -29 -9 10 -2 -42 9
-60 15 -24 17 -11 3 15 -8 14 -4 25 15 48 l24 29 -21 10 c-12 5 -17 12 -12 16
6 3 21 -1 33 -9 l22 -16 -23 -26 c-13 -14 -18 -22 -11 -19 6 4 13 4 16 0 2 -5
2 -3 1 4 -2 6 4 17 11 23 8 7 12 17 9 22 -3 5 2 15 12 22 13 10 14 15 4 21 -8
5 -11 4 -7 -2 4 -6 0 -14 -9 -17 -24 -9 -28 -7 -14 9 9 10 9 15 1 15 -6 0 -11
-4 -11 -10 0 -5 -4 -10 -10 -10 -5 0 -10 7 -10 15 0 8 4 15 10 15 5 0 10 3 9
8 -3 20 15 52 30 52 14 0 14 -2 1 -11 -12 -8 -10 -9 7 -4 18 5 22 3 17 -8 -3
-8 -1 -18 5 -22 7 -4 8 0 4 11 -4 12 -3 15 5 10 7 -4 12 -3 12 2 0 5 -13 15
-30 22 -18 8 -27 17 -23 24 4 6 8 13 9 16 11 37 18 50 25 50 5 0 8 3 7 8 -1 7
3 20 26 75 11 28 22 34 28 17 2 -6 13 -12 26 -15 13 -2 20 0 17 6 -4 5 -11 6
-17 3 -6 -4 -9 -1 -6 7 3 8 12 13 21 11 10 -2 14 4 13 15 -2 10 4 21 13 25 13
6 12 7 -3 5 -11 -1 -18 -5 -15 -9 2 -4 -7 -15 -19 -24 -34 -24 -46 -6 -27 41
12 26 20 34 27 27 7 -7 4 -17 -11 -33 -29 -31 -19 -36 12 -5 24 24 25 25 5 45
-10 12 -14 21 -7 21 6 0 9 7 5 15 -7 19 18 20 33 1 8 -10 9 -16 1 -21 -5 -3
-10 -1 -10 6 0 7 -3 10 -6 7 -3 -4 1 -18 9 -33 12 -23 15 -25 20 -11 5 11 3
15 -4 10 -7 -4 -10 -1 -7 7 3 8 11 13 17 12 17 -4 13 4 -13 30 -14 14 -28 22
-32 18 -4 -3 -1 4 5 16 6 13 9 23 6 23 -3 0 -1 10 6 21 9 17 13 19 20 8 4 -7
11 -11 14 -7 3 3 -1 13 -9 21 -17 16 -11 51 6 41 6 -4 5 -10 -3 -16 -11 -7 -9
-8 5 -4 13 5 17 2 13 -8 -6 -16 19 -43 30 -32 3 3 2 6 -4 6 -16 0 -10 39 7 50
9 6 10 10 3 10 -6 0 -15 -5 -18 -10 -4 -6 -11 -8 -16 -5 -11 7 -12 26 -1 24
26 -4 32 2 22 21 -8 14 -8 20 0 20 6 0 14 -9 18 -19 7 -19 8 -18 19 5 10 21 9
23 -1 15 -13 -11 -26 -5 -26 11 0 5 6 6 13 2 9 -6 9 -4 0 7 -17 17 -17 37 -1
21 7 -7 16 -12 22 -12 5 0 6 3 3 7 -4 3 -1 13 6 22 11 14 10 14 -6 2 -9 -8
-20 -11 -23 -9 -3 3 8 16 23 28 28 22 28 22 3 15 -22 -7 -23 -6 -12 7 10 13
10 17 -2 21 -11 4 -13 1 -9 -10 5 -12 3 -14 -8 -8 -11 6 -12 5 -1 -6 17 -18
15 -34 -3 -19 -10 9 -15 9 -15 1 0 -6 5 -11 11 -11 8 0 8 -4 -1 -15 -6 -8 -9
-18 -6 -23 3 -6 0 -15 -8 -21 -8 -7 -12 -20 -9 -30 3 -11 -1 -18 -11 -18 -17
0 -13 30 7 55 5 7 7 15 4 18 -3 3 1 27 9 52 8 26 17 61 20 77 5 34 12 68 14
75 1 3 3 10 4 15 11 57 20 85 28 85 6 0 7 -8 4 -17 -6 -17 -5 -17 8 0 7 9 19
17 25 17 8 0 7 -5 -3 -16 -22 -22 -20 -31 2 -11 10 10 19 23 20 30 0 6 3 23 6
36 4 18 3 22 -5 14 -6 -6 -19 -9 -28 -6 -11 4 -10 1 4 -10 21 -16 20 -24 -5
-27 -26 -4 -40 0 -40 11 0 6 9 8 23 4 18 -5 19 -4 5 5 -16 10 -17 44 -2 125 7
37 15 104 15 126 0 18 45 43 60 34 5 -4 9 -1 9 5 0 6 -10 11 -22 10 -47 -4
-55 5 -35 38 5 6 5 17 1 23 -4 7 -1 10 7 7 8 -3 13 -12 13 -21 -1 -9 4 -13 13
-10 8 3 13 0 11 -7 -2 -7 3 -14 10 -16 7 -1 8 0 2 3 -7 3 -7 10 2 21 10 12 10
14 1 8 -16 -9 -16 -1 -2 26 8 15 8 19 0 14 -14 -9 -14 7 0 21 18 18 1 35 -22
23 -12 -7 -19 -7 -19 -1 0 6 10 15 21 22 17 9 23 8 30 -2 5 -8 9 -9 9 -3 0 6
-7 17 -16 25 -14 12 -14 14 2 26 10 7 13 13 7 13 -7 0 -15 -5 -18 -10 -7 -12
-25 -4 -25 11 0 6 4 8 8 5 4 -2 13 -1 20 3 9 5 7 13 -7 28 -14 15 -17 23 -8
32 14 14 30 15 22 1 -3 -5 -2 -18 4 -27 8 -15 10 -14 7 7 -1 14 -5 31 -9 37
-4 6 -4 13 0 16 5 2 4 3 -2 2 -5 -1 -23 4 -40 11 -16 7 -24 13 -17 14 7 0 10
4 7 10 -9 15 -13 90 -5 90 21 0 32 -43 17 -67 -8 -12 17 -43 35 -43 6 0 0 9
-13 19 -22 18 -23 20 -6 27 14 5 16 9 6 15 -8 4 -11 11 -7 14 3 3 13 -1 22
-10 9 -9 16 -12 16 -6 0 5 -5 13 -10 16 -6 4 -8 11 -5 16 4 5 -2 6 -12 2 -16
-6 -16 -5 -4 10 25 32 22 65 -10 88 -16 11 -29 16 -29 11 0 -6 7 -12 15 -16 8
-3 13 -11 11 -18 -1 -7 -1 -10 1 -5 8 13 19 7 20 -12 2 -20 -11 -22 -36 -7 -9
6 -12 5 -7 -2 3 -6 2 -13 -4 -17 -6 -4 -9 6 -6 27 2 18 -1 39 -6 46 -7 8 -7
12 1 12 7 0 9 5 4 13 -4 6 -8 30 -9 52 -1 22 -5 59 -8 82 -6 44 1 55 38 57 13
1 20 7 17 16 -2 8 -4 22 -5 31 0 9 -6 15 -13 12 -9 -4 -9 -11 4 -29 9 -14 11
-24 5 -24 -6 0 -15 8 -21 17 -5 10 -13 14 -17 10 -5 -5 -3 -12 5 -16 10 -6 9
-10 -4 -15 -24 -9 -25 -8 -21 17 2 12 -2 28 -8 36 -9 12 -8 13 3 6 11 -6 13
-4 7 11 -5 10 -8 26 -9 34 0 8 -5 21 -11 29 -8 11 -8 13 2 7 6 -4 12 -2 12 3
0 6 -5 11 -11 11 -6 0 -1 13 9 28 l20 28 -29 16 c-16 10 -29 22 -29 27 0 6 16
1 35 -11 20 -11 39 -18 42 -14 4 3 1 6 -4 6 -6 0 -10 12 -8 26 1 16 -6 33 -19
46 -15 15 -17 19 -4 15 21 -8 18 16 -8 44 -13 16 -15 23 -6 26 6 3 12 10 12
16 0 6 -11 0 -24 -12 -27 -25 -41 -22 -49 9 -3 14 -1 20 6 17 7 -3 11 -10 10
-16 -2 -6 2 -11 7 -11 6 0 10 7 10 15 0 8 -5 15 -11 15 -5 0 -8 4 -5 9 3 5 -2
8 -12 7 -9 0 -16 4 -15 11 2 6 -4 28 -13 49 -12 29 -13 39 -3 48 9 8 10 7 6
-6 -4 -10 -3 -17 1 -17 4 1 17 -2 30 -6 27 -9 25 -33 -3 -58 -19 -17 -19 -17
12 0 17 10 29 20 25 23 -6 5 -11 24 -14 58 -1 6 -6 12 -11 12 -5 0 -7 -7 -3
-15 3 -8 1 -15 -4 -15 -18 0 -20 20 -4 45 15 23 15 25 0 19 -9 -3 -14 -10 -11
-14 3 -5 1 -11 -4 -14 -5 -3 -12 1 -15 10 -9 22 -8 24 11 24 9 0 14 3 10 6 -3
3 -15 3 -27 -1 -17 -5 -19 -9 -9 -21 6 -8 9 -17 5 -21 -11 -11 -19 6 -18 37 0
21 -3 28 -11 24 -7 -4 -9 -4 -5 1 4 4 3 16 -3 27 -6 11 -12 27 -14 36 -2 9 -5
23 -7 31 -1 7 3 16 11 19 9 3 11 0 7 -7 -4 -7 -2 -18 4 -26 7 -8 10 -21 7 -28
-3 -8 -2 -20 3 -26 5 -9 8 -4 8 13 0 35 8 42 28 25 16 -13 16 -12 4 8 -10 15
-18 19 -26 13 -11 -10 -24 -3 -24 12 0 5 6 6 13 2 8 -5 7 -2 -2 9 -8 10 -11
20 -7 24 3 4 13 -2 21 -13 13 -17 14 -17 9 -1 -7 18 -62 52 -71 43 -10 -10 8
-25 25 -19 16 5 16 5 0 -12 -20 -22 -19 -23 -41 33 -13 36 -14 44 -2 48 11 5
12 10 2 25 -6 10 -16 19 -21 19 -4 0 -3 -7 4 -15 7 -9 10 -18 6 -22 -8 -8 -7
-9 -33 55 -12 28 -17 50 -12 46 5 -3 9 0 9 5 0 6 -6 11 -12 11 -15 0 -60 88
-52 101 3 5 1 9 -5 9 -11 0 -51 71 -51 90 0 6 -7 18 -16 27 -8 9 -13 22 -10
30 3 8 2 12 -3 9 -4 -3 -14 7 -22 22 -7 15 -21 39 -31 54 -14 20 -15 28 -6 31
8 4 7 6 -3 6 -17 1 -102 125 -102 148 0 7 -4 10 -7 8 -9 -6 -63 74 -63 92 0 7
-4 10 -8 8 -4 -3 -23 17 -43 45 -98 137 -356 403 -530 547 -315 262 -702 479
-1076 603 -121 40 -354 103 -415 113 -16 3 -58 10 -92 16 -35 6 -75 13 -90 16
-16 3 -52 8 -82 11 -30 3 -62 7 -72 9 -45 9 -455 25 -462 18z m-15 -427 c5 4
5 -4 -2 -16 -7 -13 -14 -41 -15 -64 -3 -47 -12 -117 -25 -196 -5 -30 -12 -80
-15 -110 -4 -30 -8 -57 -10 -60 -1 -3 -6 -32 -9 -65 -4 -33 -9 -67 -11 -75 -2
-8 -7 -37 -10 -65 -3 -27 -15 -111 -26 -185 -11 -74 -22 -146 -24 -160 -2 -14
-6 -43 -10 -65 -3 -22 -8 -56 -10 -75 -7 -54 -32 -227 -40 -270 -2 -14 -7 -47
-10 -75 -3 -27 -7 -61 -10 -75 -5 -30 -10 -58 -25 -165 -6 -44 -13 -91 -15
-105 -2 -14 -25 -169 -50 -345 -25 -176 -48 -331 -50 -345 -2 -14 -9 -61 -15
-106 -14 -93 -12 -91 -65 -129 -22 -17 -42 -32 -45 -36 -3 -3 -48 -39 -100
-80 -52 -41 -102 -79 -110 -86 -8 -7 -53 -42 -100 -79 -47 -36 -98 -77 -115
-90 -926 -729 -1389 -1092 -1465 -1150 -52 -40 -104 -82 -115 -94 -25 -25 -44
-27 -22 -2 12 13 13 21 6 32 -9 13 -10 12 -6 -2 4 -12 0 -16 -14 -15 -10 1
-19 7 -19 14 0 7 -8 13 -17 13 -14 0 -15 2 -4 12 10 11 15 9 27 -6 8 -11 14
-16 14 -10 0 5 -7 18 -15 28 -18 24 -20 45 -3 28 15 -15 28 -16 28 -2 0 5 -3
9 -7 9 -21 -3 -24 3 -12 18 8 10 0 6 -17 -7 -20 -16 -26 -26 -17 -28 14 -4 8
-22 -6 -22 -9 0 -34 54 -31 66 1 4 -4 10 -11 15 -10 6 -10 10 0 23 14 16 53
18 48 1 -2 -5 -13 -8 -23 -7 -15 3 -17 1 -6 -9 10 -11 15 -10 27 2 21 21 9 52
-16 44 -13 -4 -18 -2 -16 7 2 7 2 10 0 6 -9 -16 -22 -7 -20 12 1 12 7 18 14
16 7 -3 15 -1 17 3 5 7 -10 8 -49 2 -5 -1 -3 -6 5 -11 13 -9 13 -10 0 -10 -11
-1 -9 -6 8 -20 12 -10 19 -21 14 -24 -13 -8 -31 8 -35 29 -2 11 -9 30 -15 43
-7 12 -9 22 -5 22 4 0 1 4 -7 10 -8 5 -11 12 -7 16 3 4 13 1 22 -6 17 -14 21
-35 5 -25 -6 3 -10 4 -10 1 0 -15 20 -13 39 3 24 21 29 40 5 21 -12 -11 -18
-10 -32 4 -16 17 -16 18 4 12 24 -7 42 18 22 30 -6 4 -8 3 -4 -4 3 -6 2 -13
-3 -16 -5 -3 -11 1 -15 9 -3 8 3 19 12 24 9 6 13 10 7 11 -18 0 -38 -18 -31
-28 3 -6 2 -14 -4 -17 -14 -9 -42 15 -36 30 2 7 0 17 -6 23 -7 7 -6 17 2 32 9
17 14 19 26 10 7 -7 12 -15 10 -19 -3 -4 -1 -13 3 -19 6 -10 11 -9 21 3 11 13
10 14 -6 8 -17 -6 -18 -5 -4 12 12 15 12 17 1 10 -11 -6 -13 -4 -8 8 4 12 2
14 -11 10 -15 -6 -16 -5 -2 13 14 18 14 18 -2 5 -11 -8 -18 -9 -18 -3 0 6 8
16 18 21 9 6 12 11 5 11 -7 0 -10 6 -7 14 3 8 1 17 -5 21 -7 4 -8 -1 -4 -12 6
-16 5 -16 -10 -4 -11 9 -17 10 -17 2 0 -6 4 -11 8 -11 13 0 7 -59 -8 -73 -10
-10 -12 -9 -7 6 4 9 2 17 -3 17 -6 0 -10 5 -10 11 0 5 4 7 10 4 5 -3 10 -1 10
4 0 6 -6 11 -13 11 -13 0 -37 67 -52 150 -1 8 -5 22 -8 30 -14 35 -26 94 -21
102 3 4 14 3 25 -3 12 -6 23 -8 27 -5 10 11 11 37 1 30 -5 -3 -6 -10 -3 -16 5
-8 1 -9 -12 -4 -10 4 -24 9 -31 10 -7 1 -16 6 -20 11 -4 4 -2 5 4 1 7 -4 13
-5 13 -2 0 2 3 11 6 20 3 9 1 16 -6 16 -6 0 -8 -4 -5 -10 3 -5 1 -10 -5 -10
-7 0 -9 8 -5 21 5 16 4 19 -5 14 -8 -5 -11 -3 -8 5 2 7 15 15 27 17 19 3 22 1
12 -11 -9 -11 -8 -15 3 -19 11 -4 13 -1 9 10 -5 12 -3 14 8 8 11 -7 11 -5 -1
10 -11 13 -12 19 -3 22 15 5 7 52 -12 74 -10 11 -12 18 -4 26 7 7 6 12 -5 16
-11 4 -13 1 -9 -10 5 -12 3 -14 -8 -8 -11 6 -12 5 -1 -6 16 -17 16 -34 -1 -21
-10 8 -13 6 -14 -11 -1 -12 1 -17 5 -12 13 18 39 16 45 -4 6 -24 -13 -53 -37
-57 -18 -3 -18 -2 -10 20 3 9 12 16 20 16 8 0 14 5 14 10 0 7 -6 7 -19 0 -30
-16 -33 -13 -29 30 2 22 0 40 -5 40 -5 0 -7 9 -4 20 3 11 2 20 -2 20 -4 0 -7
17 -6 38 0 20 -3 47 -7 60 -6 16 -4 22 5 20 15 -3 57 24 57 36 0 6 -5 5 -12
-2 -17 -17 -33 -15 -19 2 9 11 8 15 -6 21 -10 5 -25 8 -33 7 -10 -1 -11 0 -2
4 6 3 10 10 7 14 -13 21 -12 99 1 104 8 3 14 1 14 -4 0 -6 -6 -10 -12 -11 -10
0 -10 -2 -1 -5 6 -3 10 -17 7 -32 -3 -18 -2 -23 5 -13 6 9 11 10 15 2 4 -6 0
-14 -8 -17 -23 -9 -20 -17 12 -36 28 -16 28 -16 28 8 0 13 -4 24 -9 24 -5 0
-7 -7 -3 -15 6 -18 -10 -20 -20 -3 -4 6 3 20 17 31 17 15 19 18 6 14 -13 -5
-17 -3 -14 5 2 7 10 12 17 10 11 -2 10 1 0 15 -8 10 -16 20 -18 23 -2 3 -2 -4
0 -14 1 -10 -2 -21 -9 -23 -7 -2 -10 3 -8 14 2 10 4 24 4 32 1 7 7 11 16 8 8
-4 17 -2 20 3 6 9 -36 7 -53 -4 -6 -3 -13 -2 -16 3 -4 5 3 12 14 16 20 7 28
25 10 25 -5 0 -10 -4 -10 -10 0 -5 -4 -10 -8 -10 -16 0 -9 27 10 39 11 7 18 7
18 1 0 -5 5 -10 11 -10 8 0 7 6 -2 16 -12 15 -11 16 11 10 19 -6 22 -5 10 3
-13 10 -13 12 0 21 8 5 11 10 6 10 -6 0 -22 -12 -38 -27 -15 -14 -31 -23 -35
-20 -4 4 3 14 15 23 13 9 22 21 21 27 -4 33 2 49 15 44 11 -4 13 -1 9 10 -4 9
-2 14 3 11 5 -4 9 13 10 37 0 35 -3 42 -13 33 -9 -7 -13 -7 -13 1 0 6 7 14 15
17 8 4 15 11 15 17 0 5 -8 3 -18 -6 -29 -27 -38 -20 -11 9 21 22 21 24 4 18
-17 -7 -18 -6 -7 8 10 13 10 17 -2 21 -11 4 -13 1 -9 -10 5 -12 3 -14 -8 -8
-11 6 -12 5 -2 -6 14 -14 18 -33 5 -25 -4 2 -8 -9 -9 -26 0 -18 2 -25 7 -18 5
8 10 9 14 2 4 -6 -2 -16 -11 -22 -13 -8 -14 -13 -5 -16 6 -3 9 -11 6 -16 -4
-7 -2 -8 4 -4 6 4 9 13 6 20 -3 7 2 18 10 25 12 11 14 9 12 -13 -3 -28 -24
-58 -36 -51 -5 3 -6 -3 -3 -14 5 -20 -13 -38 -25 -26 -4 4 -2 9 3 11 6 2 10
40 9 87 -1 97 5 149 17 141 5 -3 9 -1 9 5 0 5 -5 11 -12 13 -9 3 -9 12 0 37 7
18 9 38 5 44 -3 6 -1 7 5 3 7 -4 12 -2 12 3 0 6 -6 11 -12 11 -7 0 1 9 17 20
17 11 25 20 19 20 -5 0 -16 -6 -23 -12 -10 -11 -11 -7 -7 16 7 39 21 52 39 38
17 -15 15 -51 -4 -62 -17 -11 -21 -50 -6 -68 5 -7 7 -15 3 -19 -3 -4 -13 2
-21 13 -11 13 -14 14 -13 4 3 -15 17 -30 30 -30 3 0 13 14 22 31 13 27 13 29
0 19 -25 -22 -28 -2 -3 20 23 20 23 21 2 10 -31 -15 -29 3 2 20 14 8 22 16 17
19 -11 8 -13 53 -2 46 12 -7 6 23 -7 36 -12 12 -37 3 -28 -11 3 -4 -2 -11 -11
-14 -11 -4 -14 -1 -10 12 6 18 16 74 19 105 1 9 3 17 6 17 2 0 10 -8 17 -17
12 -16 12 -16 7 5 -3 13 -1 22 6 22 7 0 10 -4 7 -8 -2 -4 5 -9 17 -9 21 -2 22
-2 3 13 -11 8 -28 12 -38 9 -14 -5 -16 -1 -12 17 3 13 7 34 10 48 3 14 10 30
15 35 7 7 8 3 4 -10 -5 -15 -5 -17 3 -6 6 9 7 22 2 31 -5 10 -1 35 10 68 10
28 16 52 14 52 -3 0 -2 6 3 13 4 6 8 19 10 27 1 8 7 16 13 18 5 2 7 8 4 13 -3
6 2 21 11 35 9 13 13 30 9 36 -4 6 -3 8 3 5 6 -4 11 4 11 19 0 13 2 27 5 30 8
8 27 -5 27 -17 0 -6 -5 -7 -10 -4 -6 3 -10 1 -10 -5 0 -14 22 -8 27 7 2 6 -3
18 -11 26 -14 13 -14 16 2 23 27 12 56 13 65 0 6 -7 7 -6 4 4 -2 8 -10 15 -18
15 -8 1 -23 6 -34 13 -18 11 -18 13 -4 24 9 7 14 18 12 24 -2 7 3 18 11 27 8
8 12 17 9 21 -4 3 -1 6 5 6 7 0 11 3 10 8 -4 16 14 52 27 52 8 0 17 4 20 10 3
6 -1 7 -10 4 -12 -5 -10 6 11 49 30 60 50 69 89 38 19 -15 19 -15 5 3 -14 18
-13 19 5 12 11 -4 16 -4 13 0 -11 10 12 45 24 38 7 -5 8 -2 3 6 -4 7 -2 16 6
22 11 8 10 8 -4 4 -12 -4 -17 -2 -14 6 2 7 12 12 22 10 15 -3 14 0 -4 19 -11
12 -18 25 -15 28 3 3 11 -1 17 -9 13 -16 42 -26 33 -11 -3 5 1 11 9 15 8 3 12
12 9 21 -3 8 -2 15 4 15 12 0 24 29 17 40 -7 11 -35 1 -35 -12 0 -6 6 -5 15 2
8 7 15 8 15 2 0 -10 -29 -38 -33 -31 -26 46 -27 48 -9 65 9 10 16 19 14 21 -5
6 52 83 61 83 5 0 5 -4 2 -10 -3 -6 1 -7 9 -4 21 8 30 -19 16 -45 -13 -24 -38
-28 -46 -6 -4 8 -10 12 -16 9 -5 -3 -1 -12 9 -18 24 -17 53 -27 51 -18 -3 14
14 42 23 36 10 -6 0 25 -14 44 -5 6 -6 12 -3 12 4 0 2 9 -4 20 -9 16 -8 22 5
26 8 3 15 12 15 20 0 7 9 19 20 27 11 8 17 17 12 22 -4 5 -1 5 6 1 7 -4 12 -2
12 7 0 8 9 22 19 31 18 17 20 17 30 -2 6 -11 7 -22 3 -26 -3 -4 2 -4 12 0 14
5 17 4 12 -4 -4 -7 -2 -12 4 -12 7 0 9 8 4 22 -6 19 -5 21 8 10 12 -10 18 -8
32 6 15 18 15 20 -4 37 -25 22 -27 44 -2 23 9 -8 24 -18 32 -22 8 -4 6 0 -4 8
-11 9 -14 16 -8 16 7 0 12 5 12 11 0 8 -5 8 -15 -1 -8 -7 -15 -8 -15 -2 0 5 6
15 14 21 17 14 42 -11 30 -31 -5 -10 -4 -10 6 -1 11 10 10 16 -5 33 -10 11
-13 20 -7 20 6 0 17 -8 24 -19 12 -17 15 -17 28 -3 13 14 12 15 -3 9 -11 -4
-22 1 -32 15 -13 20 -13 24 3 42 17 21 17 21 -5 2 -13 -10 -20 -22 -18 -26 3
-4 -1 -13 -9 -19 -11 -9 -15 -9 -19 1 -4 12 48 68 63 68 17 0 19 -15 4 -31
-17 -18 -12 -39 9 -39 7 0 6 4 -3 10 -8 5 -11 12 -7 16 4 4 15 0 25 -9 10 -10
22 -14 25 -10 10 10 8 33 -3 33 -5 0 -6 -8 -3 -17 6 -16 5 -16 -10 -4 -9 7
-17 17 -17 21 0 13 36 18 53 8 13 -7 15 -5 10 8 -5 13 -2 16 10 11 9 -3 21 1
29 11 11 13 11 14 -2 7 -21 -13 -51 -14 -47 -1 2 6 12 11 23 11 13 0 19 7 20
22 1 12 -3 20 -7 17 -5 -3 -9 0 -9 7 0 6 8 9 20 6 11 -3 18 -1 14 4 -7 12 -31
12 -39 -1 -3 -5 -1 -19 5 -30 13 -25 -5 -28 -19 -2 -6 9 -11 11 -11 5 0 -7 1
-14 2 -15 5 -8 -25 -48 -35 -48 -28 0 -36 22 -17 42 10 11 20 18 22 17 1 -2
22 16 45 40 23 24 46 40 51 37 15 -9 43 4 36 16 -4 6 -10 5 -15 -3 -4 -7 -11
-10 -15 -7 -3 4 1 14 9 23 9 9 18 11 22 6 7 -12 35 -3 35 11 0 6 -6 5 -15 -2
-25 -21 -17 0 12 30 21 23 31 27 45 19 10 -6 23 -7 29 -3 7 4 9 0 5 -12 -3
-11 -2 -25 3 -32 6 -10 10 -10 21 3 11 13 10 15 -4 9 -9 -3 -16 -2 -16 4 0 14
26 22 37 11 6 -6 15 -3 24 8 13 17 13 17 -5 3 -17 -13 -19 -13 -14 0 3 8 15
15 27 15 13 0 31 12 43 28 11 15 15 27 10 27 -6 0 -13 -6 -15 -12 -3 -8 -6 -7
-6 4 -1 25 18 32 39 13 10 -9 21 -12 24 -7 8 13 -18 34 -29 24 -5 -4 -5 1 -2
11 4 10 3 16 -2 12 -13 -7 -42 5 -36 16 3 4 12 6 21 2 8 -3 14 -2 12 3 -2 5 1
9 5 9 5 0 13 8 18 18 6 9 14 17 20 17 5 0 19 9 31 20 20 18 23 18 47 4 15 -9
28 -25 28 -35 1 -12 -3 -17 -9 -13 -7 5 -8 2 -4 -5 8 -13 34 3 64 39 7 8 20
15 30 15 9 0 18 9 19 20 1 16 1 16 -3 3 -3 -10 -10 -18 -15 -18 -6 0 -8 9 -4
19 4 14 0 23 -15 31 -13 7 -20 7 -20 0 0 -5 7 -10 15 -10 8 0 15 -3 15 -8 0
-10 -31 -55 -44 -64 -15 -11 -28 -10 -22 1 3 5 -6 16 -20 26 -24 16 -25 17 -7
30 10 7 21 11 25 9 5 -3 8 0 8 7 0 7 3 9 7 6 3 -4 11 -1 17 7 14 17 126 79
126 69 0 -4 6 2 14 13 12 15 17 16 27 7 10 -10 7 -14 -12 -22 -13 -5 -28 -6
-34 -3 -5 3 -3 -2 5 -13 8 -10 14 -20 13 -22 -12 -15 2 -19 25 -6 28 16 39 47
21 58 -14 9 -11 25 5 25 8 0 22 7 30 16 9 8 16 13 16 10 0 -3 25 7 57 23 31
16 63 27 71 23 10 -3 13 -1 8 6 -4 7 -3 12 3 12 12 0 25 -19 17 -27 -3 -3 -17
-5 -31 -5 -20 0 -24 -4 -20 -19 5 -15 3 -17 -11 -12 -11 4 -9 -1 7 -18 25 -26
41 -30 21 -6 -9 10 -8 18 2 33 13 16 17 17 40 5 14 -8 26 -19 26 -24 0 -5 -11
-2 -24 6 -19 13 -25 14 -29 3 -3 -7 -1 -19 5 -27 8 -11 9 -10 4 4 -3 9 -1 17
4 17 6 0 10 -4 10 -9 0 -5 8 -8 18 -7 12 2 17 12 16 30 -1 19 3 25 12 22 9 -3
11 0 7 12 -6 15 -5 15 10 3 11 -9 17 -10 17 -2 0 6 -6 11 -12 11 -7 1 -2 10
11 21 13 11 26 17 30 14 3 -3 0 -10 -7 -14 -7 -4 -10 -15 -6 -24 4 -12 -2 -20
-20 -28 -14 -7 -26 -17 -26 -22 0 -5 7 -4 15 3 8 6 20 8 26 4 7 -4 9 -3 6 3
-4 6 0 16 8 23 10 8 15 9 15 2 0 -11 37 -8 49 4 3 3 -1 5 -9 3 -8 -2 -25 1
-38 5 -19 6 -21 10 -11 22 21 25 -4 37 -32 16 -13 -11 -29 -17 -36 -15 -6 2
-14 -1 -18 -6 -8 -13 -25 -14 -25 -2 0 7 33 21 43 19 1 -1 21 9 44 21 48 24
53 25 53 10 0 -5 -6 -7 -12 -3 -10 6 -10 4 0 -8 7 -8 10 -23 6 -32 -3 -9 -1
-16 6 -16 6 0 8 5 5 10 -3 6 -2 10 4 10 5 0 12 -6 14 -12 4 -9 6 -10 6 -1 1 6
-6 18 -13 26 -29 28 26 66 61 42 17 -12 21 -11 33 8 12 20 12 21 -4 8 -9 -8
-19 -11 -23 -7 -9 9 -1 14 30 20 14 2 31 7 37 11 6 4 22 8 36 11 22 4 24 2 15
-14 -5 -10 -6 -24 -1 -32 4 -7 7 -18 6 -24 -2 -6 -1 -7 2 -2 2 4 9 2 14 -5 8
-11 9 -11 5 2 -4 12 2 16 24 16 16 0 25 -5 22 -10 -3 -6 -1 -7 6 -3 9 6 9 11
0 22 -9 11 -8 15 5 20 9 3 16 11 16 16 0 6 -6 5 -15 -2 -11 -9 -15 -9 -15 -1
0 6 7 14 15 17 8 4 15 11 15 17 0 5 -8 3 -17 -5 -19 -16 -63 -22 -63 -9 0 5
12 11 28 14 48 9 86 17 112 23 14 4 39 8 55 10 17 2 37 7 45 10 8 4 32 8 53
10 20 1 42 6 49 10 7 4 8 3 4 -4 -4 -7 -2 -12 3 -12 6 0 11 5 11 11 0 6 9 9
20 6 11 -3 20 -2 20 2 0 4 10 7 21 8 20 2 21 1 3 -12 -11 -7 -16 -17 -12 -21
4 -4 3 -13 -3 -21 -10 -11 -16 -11 -36 2 -13 9 -28 13 -33 10 -6 -4 -22 -9
-37 -11 -23 -4 -25 -3 -13 11 8 10 9 15 1 15 -11 0 -15 -13 -12 -36 3 -22 -37
-23 -53 0 -9 11 -13 14 -10 5 3 -9 -2 -21 -10 -28 -11 -10 -17 -8 -28 6 -7 10
-20 19 -28 21 -8 1 -3 -7 12 -18 14 -11 25 -28 23 -38 -1 -9 0 -11 2 -4 4 10
8 10 19 1 11 -9 14 -9 14 1 0 10 3 10 14 1 11 -9 14 -8 12 6 0 10 7 18 19 20
11 1 14 0 8 -3 -7 -3 -13 -10 -13 -16 0 -6 6 -6 15 2 11 9 19 9 28 2 10 -8 16
-6 25 9 7 11 8 19 2 19 -5 0 -10 -4 -10 -10 0 -5 -5 -10 -11 -10 -5 0 -7 4 -4
10 4 6 -1 7 -12 3 -15 -6 -16 -4 -5 9 15 19 50 18 62 -2 5 -8 10 -10 10 -4 0
5 -5 15 -12 22 -9 9 -9 12 0 12 7 0 15 -7 18 -15 4 -8 10 -13 14 -10 5 3 16
-3 26 -12 16 -16 16 -16 9 7 -7 22 -6 23 9 11 10 -9 16 -10 16 -2 0 6 -4 11
-8 11 -4 0 -8 9 -9 20 -1 11 4 20 13 20 8 0 14 5 14 10 0 6 7 10 16 10 9 0 14
-7 12 -17 -2 -11 -11 -17 -23 -15 -12 2 -16 0 -9 -5 5 -4 10 -18 10 -30 0 -13
4 -23 9 -22 6 0 8 8 7 17 -3 14 -2 14 13 2 22 -19 55 -21 48 -3 -4 10 -9 11
-19 2 -10 -8 -13 -6 -11 10 2 25 10 26 31 6 17 -17 32 -19 41 -5 4 6 -4 19
-17 30 -25 21 -18 26 13 10 14 -8 26 -7 46 3 25 14 23 14 -44 14 l-71 -1 28
-17 c28 -17 47 -39 35 -39 -4 0 -20 9 -36 21 -27 19 -35 16 -30 -13 1 -9 -13
-11 -21 -2 -3 3 0 18 8 33 13 26 19 28 76 30 34 1 64 4 67 7 3 3 7 0 9 -5 2
-6 8 -8 14 -5z m326 3 c23 -2 42 -6 42 -10 0 -4 -18 -5 -39 -3 -26 2 -43 -2
-51 -11 -7 -8 -17 -12 -22 -9 -5 3 -1 12 9 21 16 13 16 13 -5 3 -22 -11 -23
-13 -7 -30 9 -10 14 -24 10 -29 -10 -17 -21 -13 -21 7 -1 9 -4 25 -9 34 -5 13
-1 20 16 27 13 5 27 7 30 5 3 -1 24 -4 47 -5z m90 -36 c-14 -13 -20 -14 -32
-4 -16 14 -13 31 5 31 6 0 7 -4 4 -10 -3 -5 -1 -10 4 -10 6 0 11 8 11 17 0 13
3 14 12 5 10 -9 9 -16 -4 -29z m72 12 c6 -3 10 0 10 7 0 8 3 9 8 3 7 -10 10
-11 58 -13 19 -2 25 -6 20 -18 -3 -8 -2 -13 3 -10 13 9 30 -38 20 -56 -7 -12
-5 -16 8 -13 10 1 26 -2 36 -7 9 -5 17 -5 16 -1 -5 27 3 42 21 40 11 -1 20 -5
20 -9 0 -4 5 -8 11 -8 8 0 7 6 -2 17 -12 14 -12 16 1 11 23 -7 19 -43 -5 -43
-11 -1 -24 4 -28 10 -6 6 -7 5 -5 -3 2 -8 6 -12 9 -10 3 2 13 -3 21 -10 14
-11 18 -8 29 17 8 18 20 29 31 28 10 -1 16 -6 14 -12 -2 -5 -8 -9 -13 -8 -5 1
-15 -7 -21 -18 -11 -18 -9 -17 22 3 39 25 33 48 -10 43 -15 -1 -28 3 -31 12
-4 11 -8 11 -20 1 -8 -6 -23 -12 -34 -13 -10 -1 -28 -10 -39 -20 -11 -10 -20
-13 -20 -7 0 18 50 51 68 45 9 -3 14 -3 10 1 -9 10 -59 15 -53 5 3 -4 -4 -7
-15 -6 -13 1 -19 6 -15 15 2 7 0 10 -5 7 -6 -3 -10 -1 -10 4 0 6 7 11 15 11 8
0 15 -4 15 -8 0 -5 12 -9 28 -10 32 -2 77 -9 77 -12 0 -1 16 -4 35 -7 19 -2
37 -9 38 -14 2 -5 8 -7 13 -3 18 11 8 -16 -13 -36 -16 -15 -18 -19 -6 -15 13
5 16 2 13 -14 -3 -18 -1 -20 15 -11 10 6 22 15 25 20 3 6 12 10 18 10 7 0 -1
-12 -16 -25 -33 -29 -23 -34 11 -6 14 13 20 26 16 38 -4 12 2 9 18 -9 29 -34
41 -35 67 -6 17 17 23 19 36 8 8 -7 15 -9 15 -4 0 4 5 3 11 -3 6 -6 19 -9 28
-5 14 5 14 4 1 -12 -8 -11 -16 -14 -18 -7 -2 6 -12 11 -22 11 -10 0 -21 6 -23
13 -4 9 -6 9 -6 -1 -1 -7 11 -17 27 -23 15 -6 22 -13 15 -16 -7 -2 -21 1 -32
7 -15 8 -27 8 -41 0 -14 -7 -26 -8 -39 0 -22 11 -51 4 -51 -13 0 -7 4 -7 12 1
14 14 32 16 24 3 -3 -4 29 -8 71 -8 51 1 78 -3 81 -11 2 -7 -2 -10 -11 -6 -18
7 -32 -12 -16 -22 8 -5 9 -3 4 6 -5 8 -3 11 6 8 8 -3 13 -11 11 -17 -1 -6 2
-11 8 -11 9 0 14 15 11 34 -3 16 18 32 48 34 17 1 31 -2 31 -8 0 -6 6 -10 13
-8 18 3 107 -33 107 -45 0 -5 -8 -3 -17 4 -13 11 -15 11 -9 1 5 -9 0 -22 -15
-38 -12 -13 -19 -27 -16 -31 4 -3 7 0 7 8 1 10 5 8 15 -5 14 -18 15 -18 15 -2
0 9 4 15 10 11 5 -3 7 -13 4 -23 -5 -14 -4 -14 4 -2 6 8 8 18 5 23 -3 4 3 18
14 29 16 19 15 19 -14 -2 -18 -13 -35 -21 -38 -18 -4 3 7 15 23 27 25 18 33
19 61 8 33 -12 42 -27 16 -27 -8 0 -15 5 -15 12 0 6 -2 9 -5 6 -12 -12 7 -37
23 -30 15 5 15 3 4 -10 -9 -11 -10 -18 -2 -23 5 -3 10 -11 10 -17 0 -17 -31
13 -41 40 -5 14 -12 22 -15 20 -7 -8 17 -58 28 -58 5 0 7 -3 4 -8 -2 -4 9 -8
26 -9 17 0 35 -7 40 -14 8 -11 9 -10 5 2 -5 14 1 16 35 13 36 -3 40 -2 35 16
-3 11 -1 20 4 20 5 0 9 -4 9 -8 0 -5 16 -14 35 -22 22 -9 35 -20 35 -32 0 -10
-4 -18 -10 -18 -5 0 -10 -5 -10 -11 0 -8 5 -8 15 1 11 9 15 9 15 1 0 -17 -29
-26 -42 -13 -8 8 -8 16 2 27 11 13 10 18 -6 30 -16 11 -21 11 -35 -1 -9 -8
-22 -13 -30 -11 -8 2 -11 2 -6 0 4 -3 7 -11 7 -18 0 -8 5 -17 11 -20 6 -4 9 0
7 10 -2 10 2 20 9 22 7 3 10 -5 9 -21 -2 -18 1 -23 12 -18 9 3 13 1 9 -4 -3
-6 4 -11 15 -11 12 -1 25 -8 30 -15 6 -9 8 -7 6 7 -2 12 4 21 15 23 9 2 17 -2
17 -8 0 -6 -4 -9 -8 -6 -4 2 -9 -7 -10 -22 -1 -25 -1 -25 10 -7 6 11 18 29 27
39 9 11 10 16 4 12 -18 -10 -53 11 -53 32 0 10 3 13 8 6 4 -6 28 -21 55 -33
26 -13 47 -27 47 -32 0 -5 3 -8 8 -7 17 6 72 -37 72 -56 0 -19 0 -19 -19 0
-10 10 -17 22 -14 26 2 4 -3 5 -11 2 -10 -4 -16 -1 -16 7 0 7 -3 10 -6 6 -3
-3 -17 6 -31 21 l-24 27 17 -27 c10 -18 12 -28 5 -28 -6 0 -14 7 -17 15 -9 22
-19 19 -32 -9 -8 -19 -8 -25 2 -29 10 -4 12 1 9 14 -3 11 0 19 6 19 7 0 10 -4
7 -9 -3 -4 5 -7 17 -7 25 2 72 -18 83 -36 5 -7 2 -9 -8 -5 -9 3 -24 -1 -35 -8
-10 -8 -13 -15 -8 -15 6 0 17 6 24 13 11 10 12 7 6 -13 l-8 -25 21 25 c12 14
21 20 22 14 0 -5 -5 -15 -10 -20 -7 -7 -4 -18 11 -35 20 -22 21 -22 15 -3 -7
22 18 53 32 39 4 -4 1 -10 -5 -12 -7 -3 -13 -9 -13 -15 0 -7 5 -6 14 2 12 9
15 8 13 -9 -1 -15 -6 -20 -17 -16 -11 5 -12 3 -3 -6 13 -13 37 -3 28 12 -10
15 22 10 35 -6 12 -14 6 -35 -10 -35 -5 0 -7 8 -3 18 5 14 3 15 -8 5 -19 -18
4 -41 24 -25 14 12 27 7 27 -10 0 -5 -4 -6 -10 -3 -5 3 -10 1 -10 -4 0 -13 3
-13 24 -5 14 5 14 9 4 22 -11 13 -10 15 4 9 13 -4 15 -2 11 10 -5 12 -3 14 7
8 9 -6 11 -4 6 4 -6 9 -13 8 -27 -5 -20 -18 -25 -9 -9 16 7 12 13 12 27 4 19
-12 27 -54 11 -54 -5 0 -6 -5 -2 -11 4 -8 9 -7 15 2 4 7 5 17 3 21 -3 4 2 8
11 8 10 0 14 -5 11 -12 -3 -7 -9 -21 -12 -30 -7 -20 -20 -23 -29 -8 -8 13 -25
13 -25 -1 0 -5 5 -7 10 -4 6 3 13 -1 16 -10 5 -12 9 -13 21 -4 12 10 13 8 9
-15 -3 -15 -1 -24 5 -21 5 4 9 1 9 -6 0 -9 3 -9 14 0 7 6 20 9 28 6 18 -7 44
20 28 30 -6 4 -9 1 -8 -6 2 -6 -3 -14 -10 -16 -12 -5 -13 16 -1 27 3 3 -2 12
-12 21 -15 15 -16 15 -16 -7 0 -13 5 -24 11 -24 11 0 -14 -20 -26 -20 -3 0 -5
15 -3 33 3 23 2 28 -5 17 -8 -13 -10 -12 -10 3 0 32 28 30 69 -5 23 -18 41
-39 41 -45 0 -7 8 -13 18 -13 19 0 42 -18 42 -32 0 -4 -3 -7 -7 -7 -20 3 -33
-2 -31 -12 2 -6 -3 -14 -11 -17 -8 -2 -11 0 -8 6 4 5 0 15 -8 22 -9 8 -13 21
-10 34 5 15 4 17 -3 7 -5 -7 -21 -13 -35 -13 -23 0 -24 -2 -9 -19 20 -23 26
-24 18 -3 -4 10 -1 14 6 11 7 -2 13 -12 13 -22 0 -10 6 -20 13 -23 6 -2 10 -8
6 -13 -11 -18 21 -4 36 16 22 29 45 29 68 1 11 -14 22 -23 25 -20 3 3 8 0 13
-7 4 -7 3 -10 -3 -6 -11 7 -28 -22 -18 -31 3 -3 5 0 5 6 0 24 34 11 73 -29
l40 -40 -23 -24 c-12 -13 -19 -28 -15 -34 3 -6 2 -11 -4 -11 -18 0 -21 17 -7
36 12 16 11 20 -6 33 -16 10 -17 15 -7 22 7 4 10 11 5 16 -4 4 -12 0 -17 -10
-13 -22 -28 -21 -59 3 -30 23 -14 27 18 4 22 -15 28 -9 23 20 -1 5 6 5 16 2
14 -6 15 -4 6 5 -13 13 -37 3 -28 -12 10 -14 -12 -11 -28 5 -8 8 -13 25 -12
38 2 13 -4 30 -13 38 -14 13 -15 12 -8 -5 12 -31 12 -68 0 -72 -7 -2 -10 7 -8
26 4 36 -14 51 -32 26 -16 -22 -12 -29 37 -64 21 -16 36 -31 33 -34 -3 -3 9
-4 26 -3 38 3 56 -15 41 -42 -13 -25 6 -44 36 -36 13 4 22 0 27 -11 4 -11 13
-14 28 -10 22 6 22 6 -2 -14 -14 -11 -23 -22 -20 -24 3 -2 19 9 35 25 17 17
24 27 17 24 -7 -5 -16 2 -21 16 l-10 23 0 -22 c-1 -13 -6 -23 -12 -23 -6 0 -9
6 -6 13 3 8 -3 14 -15 14 -32 3 -35 13 -9 34 13 11 27 17 30 13 3 -3 -3 -12
-14 -20 -18 -13 -17 -14 13 -8 23 5 32 3 32 -7 1 -8 14 -25 30 -39 30 -24 40
-50 19 -50 -6 0 -8 7 -5 17 6 15 4 15 -14 -2 -11 -10 -20 -24 -20 -31 0 -7 -5
-14 -12 -16 -8 -3 -7 -6 3 -10 10 -4 15 1 16 14 2 27 11 34 25 20 8 -8 14 -7
23 5 10 13 11 10 10 -17 -1 -18 -9 -38 -18 -45 -18 -13 -24 -30 -7 -20 6 3 10
1 10 -4 0 -6 5 -11 11 -11 8 0 8 5 -1 15 -9 11 -9 15 -1 15 21 0 24 -30 5 -46
-18 -14 -18 -14 0 -7 15 5 18 3 13 -10 -3 -9 -2 -19 2 -21 5 -3 8 5 8 17 1 53
3 59 19 53 9 -3 12 -2 9 4 -4 6 -14 9 -22 8 -9 -2 -18 3 -21 11 -3 10 0 11 9
5 12 -6 12 -5 0 10 -12 14 -12 19 -1 29 10 9 11 9 6 -1 -4 -7 -1 -15 8 -18 9
-3 14 -10 11 -14 -3 -4 2 -10 10 -14 8 -3 15 -11 15 -18 0 -7 9 -19 21 -26 12
-7 19 -16 16 -19 -3 -3 7 -16 24 -30 16 -14 27 -29 23 -34 -3 -5 -1 -9 3 -9 8
0 67 -84 74 -105 1 -5 11 -19 21 -29 10 -11 18 -24 18 -28 0 -5 9 -19 20 -30
18 -20 18 -23 5 -31 -16 -8 -51 10 -40 21 2 3 11 -1 20 -8 8 -7 15 -8 15 -2 0
12 -29 24 -41 16 -13 -8 -11 10 4 26 6 7 -3 3 -20 -9 -18 -12 -33 -25 -33 -28
0 -3 6 0 14 6 9 7 17 8 20 3 3 -6 -1 -12 -9 -16 -8 -3 -15 -10 -15 -16 0 -6 7
-4 16 5 12 12 19 13 30 4 8 -6 14 -16 14 -22 0 -7 -4 -7 -12 1 -7 7 -16 12
-21 12 -5 0 1 -9 14 -19 13 -11 21 -23 16 -27 -4 -4 -14 1 -23 12 -14 18 -15
18 -4 -3 6 -13 15 -23 21 -23 6 0 8 -4 5 -8 -3 -5 5 -8 16 -7 12 1 35 -11 51
-27 17 -15 32 -26 35 -24 2 3 -11 19 -30 36 -20 20 -26 30 -15 26 10 -3 23 -6
28 -6 6 0 7 -4 4 -10 -3 -5 -2 -10 3 -10 10 0 38 -60 34 -72 -1 -5 2 -8 8 -8
5 0 10 -6 10 -14 0 -7 7 -19 15 -26 12 -10 13 -16 3 -27 -9 -11 -8 -13 3 -11
8 2 13 -4 13 -14 -1 -10 2 -16 6 -13 8 5 21 -21 26 -54 2 -7 7 -18 13 -24 15
-15 14 -30 -1 -21 -7 4 -2 -3 10 -16 15 -14 22 -30 19 -41 -3 -11 -2 -17 3
-14 11 7 43 -102 34 -116 -5 -8 -3 -9 6 -4 10 6 12 4 7 -8 -3 -10 -2 -17 4
-17 6 0 7 -4 4 -10 -3 -5 -2 -10 2 -10 10 0 35 -93 37 -137 0 -17 4 -29 9 -26
4 2 7 -5 7 -16 0 -30 1 -34 11 -53 7 -13 6 -18 -3 -18 -10 0 -10 -2 -1 -8 7
-4 15 -26 18 -47 8 -49 11 -70 19 -115 4 -19 9 -51 10 -70 2 -19 10 -84 17
-145 7 -60 13 -127 13 -147 0 -21 3 -38 6 -38 8 0 4 -279 -4 -364 -30 -292
-86 -534 -183 -791 -53 -138 -148 -345 -159 -345 -5 0 -24 15 -44 33 -19 19
-197 162 -395 318 -198 156 -367 289 -375 296 -8 7 -238 188 -510 403 -272
216 -520 411 -550 436 -30 24 -103 82 -162 129 -63 50 -110 95 -113 108 -3 12
-30 193 -61 402 -30 209 -79 549 -110 755 -30 206 -56 389 -59 405 -2 17 -23
158 -46 315 -22 157 -55 383 -73 503 -20 137 -28 217 -21 218 5 1 15 1 21 0 6
-1 17 7 25 16 11 15 11 16 -1 6 -19 -18 -26 -16 -26 5 0 14 8 19 27 19 29 0
32 -14 9 -43 -13 -16 -13 -17 0 -9 8 5 23 8 33 7 9 -2 17 1 17 7 0 6 -6 8 -13
5 -8 -3 -14 2 -14 11 0 19 11 19 31 0 8 -8 17 -11 20 -7 3 5 -12 17 -32 27
-22 10 -32 20 -24 23 8 2 28 -6 45 -18 l30 -23 21 25 c20 23 42 28 66 13z
m-180 -5 c0 -5 -4 -10 -10 -10 -5 0 -10 5 -10 10 0 6 5 10 10 10 6 0 10 -4 10
-10z m581 -63 c11 3 19 0 19 -6 0 -6 14 -11 30 -11 17 0 30 -4 30 -9 0 -13
-55 -8 -72 6 -12 10 -19 8 -38 -12 -37 -39 -45 -32 -26 23 5 16 11 20 23 13 9
-4 24 -6 34 -4z m-1312 -18 c-22 -14 -33 -10 -19 6 7 8 17 12 22 9 6 -4 5 -10
-3 -15z m1081 1 c0 -5 -5 -10 -11 -10 -5 0 -7 5 -4 10 3 6 8 10 11 10 2 0 4
-4 4 -10z m-1273 -13 c14 -9 6 -37 -9 -37 -6 0 -8 7 -4 15 3 8 1 15 -3 15 -5
0 -12 -8 -15 -17 -6 -14 -9 -15 -16 -4 -18 30 14 48 47 28z m1563 -17 c0 -5
-7 -10 -16 -10 -8 0 -12 5 -9 10 3 6 10 10 16 10 5 0 9 -4 9 -10z m156 -22 c4
-6 3 -8 -4 -4 -6 3 -17 -1 -26 -9 -8 -9 -17 -11 -21 -6 -3 6 3 14 12 20 23 14
30 13 39 -1z m-2079 -76 c-10 -10 -14 -22 -10 -25 3 -4 2 -7 -4 -7 -20 0 -23
14 -6 32 9 10 21 18 26 18 6 0 3 -8 -6 -18z m2368 -34 c5 4 4 1 0 -7 -6 -11
-4 -13 8 -8 22 8 32 -10 16 -31 -11 -13 -8 -12 9 2 12 11 22 17 22 13 0 -3 2
-11 5 -19 8 -20 -86 -20 -102 1 -6 9 -8 20 -5 26 4 5 7 13 8 18 1 4 2 10 3 13
0 4 7 1 14 -5 8 -6 18 -7 22 -3z m-2615 -77 c0 -11 -28 -41 -39 -41 -4 0 -8 7
-8 15 0 9 6 14 13 11 7 -3 15 2 18 10 6 16 16 19 16 5z m2734 -32 c-9 -16 -20
-10 -21 12 -2 17 1 18 12 9 8 -7 12 -16 9 -21z m296 -134 c11 -3 20 -13 20
-20 0 -8 6 -12 14 -9 18 7 29 -12 18 -32 -7 -13 -15 -9 -48 25 -38 37 -41 38
-52 20 -20 -32 -31 -21 -13 14 13 27 18 31 29 21 6 -7 21 -16 32 -19z m-3420
-66 c0 -4 -5 -11 -10 -14 -6 -4 -9 -19 -8 -33 3 -22 -1 -26 -17 -24 -11 2 -24
9 -28 15 -6 8 -7 6 -3 -5 6 -19 -28 -45 -39 -29 -3 5 3 12 12 14 10 3 6 4 -9
4 -15 -1 -24 -5 -22 -9 3 -4 0 -8 -6 -8 -6 0 -10 7 -8 16 2 8 7 15 11 14 5 -1
17 10 28 24 11 15 26 26 34 26 7 0 15 6 18 14 6 15 47 11 47 -5z m3718 -244
c0 -20 -3 -23 -14 -14 -7 6 -10 17 -7 25 8 23 21 16 21 -11z m-4183 -144 c3
-6 -4 -15 -15 -21 -25 -13 -25 -21 0 -47 15 -17 17 -23 6 -32 -10 -8 -17 -6
-28 7 -20 23 -19 53 3 73 10 9 16 19 12 23 -3 3 -1 6 5 6 6 0 13 -4 17 -9z
m-63 -60 c-10 -6 -10 -10 2 -21 9 -7 13 -17 9 -22 -3 -6 -11 0 -19 13 -13 25
-10 39 9 39 8 0 8 -3 -1 -9z m-137 -181 c3 -5 2 -10 -4 -10 -5 0 -13 5 -16 10
-3 6 -2 10 4 10 5 0 13 -4 16 -10z m-105 -160 c0 -5 -8 -14 -17 -20 -16 -10
-16 -10 3 -5 27 7 53 -19 28 -29 -9 -3 -23 -1 -30 5 -19 15 -38 1 -23 -17 9
-10 9 -17 0 -28 -6 -7 -9 -20 -6 -28 3 -7 -4 -24 -16 -37 l-22 -24 -13 26
c-13 23 -11 30 21 79 19 29 35 56 35 60 0 5 8 8 18 8 14 0 15 2 2 10 -13 8
-12 10 3 10 9 0 17 -4 17 -10z m5104 -119 c3 -5 -2 -8 -11 -7 -12 1 -18 -7
-19 -21 -1 -12 2 -20 7 -17 4 2 5 12 2 20 -5 14 -3 15 15 5 30 -16 40 -35 14
-27 -11 4 -23 2 -26 -3 -10 -15 -33 -2 -31 17 2 36 35 57 49 33z m-5210 -52
c-3 -5 -10 -7 -15 -3 -5 3 -7 10 -3 15 3 5 10 7 15 3 5 -3 7 -10 3 -15z m-154
-303 c0 -3 -4 -8 -10 -11 -5 -3 -10 -1 -10 4 0 6 5 11 10 11 6 0 10 -2 10 -4z
m6141 -342 c17 -16 17 -17 -3 -34 -20 -16 -20 -18 -5 -41 10 -13 17 -18 17
-12 0 7 -4 15 -10 18 -5 3 -10 11 -10 18 0 19 34 -21 35 -43 2 -25 -6 -25 -35
0 -12 11 -22 31 -22 45 0 13 -4 23 -7 21 -4 -3 -8 5 -8 17 -2 17 0 19 7 7 8
-13 10 -12 10 3 0 21 8 22 31 1z m9 -153 c0 -12 -20 -36 -20 -24 0 6 -3 19 -6
27 -5 12 -2 15 10 10 9 -3 16 -9 16 -13z m-6298 -126 c0 -5 -5 -11 -10 -13 -5
-1 -9 4 -9 13 0 9 4 14 9 13 5 -2 10 -8 10 -13z m6376 -377 c-2 -5 -8 -9 -13
-9 -5 0 -11 4 -13 9 -1 5 4 9 13 9 9 0 14 -4 13 -9z m-6448 -97 c0 -5 -7 -12
-16 -15 -14 -5 -15 -4 -4 9 14 17 20 19 20 6z m6440 -41 c12 -7 12 -11 -3 -28
-16 -17 -16 -21 -2 -32 8 -7 15 -17 15 -23 0 -5 -9 -2 -20 8 -11 10 -19 23
-17 29 2 6 0 21 -4 34 -9 24 4 29 31 12z m-15 -79 c3 -5 1 -13 -5 -16 -6 -4
-1 -14 12 -25 13 -10 19 -22 15 -26 -4 -5 -13 -2 -18 6 -8 12 -9 12 -7 -4 2
-10 -2 -21 -7 -22 -6 -3 -10 17 -10 46 0 47 7 61 20 41z m-9 -126 c-3 -8 4
-17 15 -20 10 -4 19 -11 19 -16 0 -13 -12 -11 -32 5 -19 14 -26 62 -7 51 6 -4
8 -13 5 -20z m31 -2 c-15 -16 -17 -16 -17 -1 0 9 6 18 13 21 20 7 22 -2 4 -20z
m-6437 -24 c0 -6 -6 -7 -12 -3 -9 5 -8 2 1 -9 8 -10 12 -20 9 -22 -10 -10 -30
25 -24 41 6 16 26 11 26 -7z m3330 -524 c315 -127 662 -267 1355 -547 204 -82
472 -190 597 -240 l227 -91 -17 -29 c-27 -46 -170 -237 -231 -308 -70 -83
-246 -259 -335 -335 -377 -327 -876 -570 -1366 -665 -30 -5 -65 -12 -78 -15
-190 -36 -542 -51 -764 -33 -85 8 -278 34 -308 43 -8 2 -30 7 -47 10 -242 41
-592 170 -853 315 -141 78 -370 233 -436 295 -6 5 -40 35 -75 65 -75 64 -244
230 -234 230 4 0 -7 12 -24 26 -17 14 -28 30 -25 35 3 5 1 8 -3 7 -13 -4 -76
70 -154 178 -34 49 -68 92 -74 96 -5 4 -6 8 -1 8 5 0 1 9 -9 20 -14 15 -16 23
-8 31 6 6 9 18 6 26 -3 7 -2 13 3 11 5 -1 18 3 29 9 11 6 90 39 175 73 85 34
169 68 185 75 36 15 858 346 1570 632 281 112 514 210 519 217 7 11 14 11 35
0 14 -7 168 -70 341 -139z m-3514 -612 c-4 -4 -11 -1 -16 7 -16 25 -11 35 7
17 9 -9 13 -20 9 -24z m493 -18 c5 2 9 -7 9 -20 0 -32 -3 -31 -22 7 -18 35
-21 53 -5 25 6 -9 14 -15 18 -12z m152 -258 c-1 -12 -15 -9 -19 4 -3 6 1 10 8
8 6 -3 11 -8 11 -12z m5319 -362 c-20 -21 -21 -27 -9 -41 11 -14 11 -18 -6
-30 -21 -16 -39 -19 -30 -5 3 5 0 13 -5 16 -7 5 -5 12 7 21 10 7 15 14 10 14
-4 0 5 14 20 30 14 17 29 28 31 25 3 -3 -5 -16 -18 -30z m-51 -72 c-1 -5 -1
-15 0 -22 1 -12 4 -12 13 -3 18 18 33 15 18 -3 -7 -9 -19 -14 -25 -11 -7 2
-18 -1 -24 -7 -8 -8 -11 -7 -11 3 0 7 -3 11 -6 8 -3 -4 -1 -16 5 -27 9 -15 8
-26 -1 -41 -7 -11 -16 -20 -21 -20 -4 0 -5 5 -2 11 4 5 -1 20 -12 31 -18 21
-17 21 1 15 13 -5 17 -3 13 7 -7 19 18 40 35 30 10 -6 11 -5 1 8 -7 8 -10 18
-6 21 9 9 23 9 22 0z m-89 -163 c0 -5 -4 -10 -10 -10 -5 0 -10 5 -10 10 0 6 5
10 10 10 6 0 10 -4 10 -10z m-175 -199 c-3 -6 -11 -11 -17 -11 -6 0 -6 6 2 15
14 17 26 13 15 -4z m-77 -82 c3 -11 2 -11 -7 1 -8 11 -11 12 -11 2 0 -7 -5
-10 -10 -7 -13 8 -2 27 13 22 6 -2 12 -10 15 -18z m-4720 -81 c19 -19 14 -29
-8 -16 -20 13 -27 28 -12 28 4 0 13 -5 20 -12z m202 -158 c0 -5 -5 -10 -11
-10 -5 0 -7 5 -4 10 3 6 8 10 11 10 2 0 4 -4 4 -10z m100 -41 c0 -9 -29 -39
-38 -39 -3 0 -16 9 -28 21 -21 19 -21 22 -6 39 15 18 17 18 44 2 15 -9 28 -20
28 -23z m186 -146 c-10 -10 -19 5 -10 18 6 11 8 11 12 0 2 -7 1 -15 -2 -18z
m3079 -292 c-3 -2 0 -10 6 -18 18 -21 -6 -15 -26 6 -16 19 -16 20 4 18 11 0
18 -3 16 -6z m-2445 -36 c20 -24 6 -28 -15 -5 -10 11 -13 20 -8 20 6 0 16 -7
23 -15z m2298 0 c-2 -6 -8 -10 -13 -10 -6 0 -21 -8 -34 -17 -13 -10 -28 -15
-33 -12 -5 3 -16 0 -24 -7 -8 -6 -17 -9 -21 -6 -3 4 -12 2 -18 -3 -14 -11 -45
-3 -45 11 0 11 23 7 32 -6 4 -6 8 -2 8 8 0 20 11 22 29 5 10 -11 11 -10 6 3
-6 15 2 18 48 20 9 0 17 4 17 9 0 9 28 19 43 16 5 -1 7 -6 5 -11z m-2120 -26
c2 -4 9 -6 17 -3 7 3 16 1 20 -5 7 -12 -29 -10 -41 2 -4 4 -15 0 -25 -9 -24
-21 -43 -10 -26 16 11 19 48 19 55 -1z m2047 -29 c3 -5 2 -10 -4 -10 -5 0 -13
5 -16 10 -3 6 -2 10 4 10 5 0 13 -4 16 -10z m-1960 -48 c-6 -7 -35 18 -35 31
0 5 9 2 20 -8 11 -10 18 -20 15 -23z m279 -11 c3 -5 15 -7 26 -4 11 3 20 0 20
-6 0 -11 -28 -9 -61 4 -10 3 -20 2 -24 -4 -3 -6 -15 -11 -26 -11 -11 0 -17 5
-14 10 4 6 10 8 15 5 5 -3 11 -1 15 5 8 12 42 13 49 1z m493 -85 c-3 -7 -1
-19 4 -25 6 -8 5 -8 -3 -1 -7 6 -16 6 -25 -1 -19 -16 -16 1 4 23 19 21 27 23
20 4z"/>
<path d="M3100 6461 c0 -5 7 -11 15 -15 8 -3 15 -1 15 3 0 5 -7 11 -15 15 -8
3 -15 1 -15 -3z"/>
<path d="M3333 6449 c-13 -13 -6 -39 9 -39 6 0 6 6 -1 14 -10 11 -8 17 6 25
10 6 13 11 8 11 -6 0 -16 -5 -22 -11z"/>
<path d="M2970 6435 c0 -8 4 -15 10 -15 5 0 7 7 4 15 -4 8 -8 15 -10 15 -2 0
-4 -7 -4 -15z"/>
<path d="M2910 6431 c0 -5 5 -13 10 -16 6 -3 10 -2 10 4 0 5 -4 13 -10 16 -5
3 -10 2 -10 -4z"/>
<path d="M2829 6410 c-1 -8 -2 -19 -4 -25 -1 -5 -3 -16 -3 -23 -1 -7 -6 -10
-12 -7 -6 3 -7 -1 -3 -10 3 -9 9 -13 12 -8 3 4 12 8 19 8 6 0 12 4 11 9 0 5 5
13 13 18 9 7 8 8 -6 4 -13 -4 -17 -2 -13 7 3 8 1 20 -4 28 -7 12 -9 12 -10 -1z
m16 -50 c3 -5 1 -10 -4 -10 -6 0 -11 5 -11 10 0 6 2 10 4 10 3 0 8 -4 11 -10z"/>
<path d="M2856 6405 c4 -8 12 -15 20 -15 17 0 17 -5 3 -33 -10 -21 -10 -21 5
-3 21 26 20 31 -9 50 -21 14 -24 14 -19 1z"/>
<path d="M3300 6410 c-9 -6 -10 -10 -3 -10 6 0 15 5 18 10 8 12 4 12 -15 0z"/>
<path d="M3108 6393 c7 -3 16 -2 19 1 4 3 -2 6 -13 5 -11 0 -14 -3 -6 -6z"/>
<path d="M2675 6380 c-4 -6 -1 -18 6 -26 15 -18 11 -21 -24 -28 -19 -3 -27 -1
-24 7 2 7 13 11 23 10 10 -1 13 0 6 3 -6 3 -9 11 -6 17 3 7 -6 -1 -21 -17 -23
-25 -29 -27 -51 -18 -13 6 -31 9 -39 6 -13 -5 -13 -9 -1 -26 8 -11 12 -28 9
-37 -4 -9 -2 -13 2 -8 5 4 9 17 10 29 1 12 6 23 12 25 12 4 11 -26 -2 -47 -7
-13 -6 -13 7 -2 9 8 14 20 11 28 -3 8 1 14 11 14 9 0 19 0 23 1 4 0 9 -4 11
-10 2 -7 -4 -9 -15 -5 -15 5 -15 4 -3 -5 11 -8 19 -6 30 8 8 10 23 21 33 24
19 7 23 22 7 32 -5 3 -7 12 -3 20 6 17 -3 20 -12 5z m-105 -54 c0 -3 -4 -8
-10 -11 -5 -3 -10 -1 -10 4 0 6 5 11 10 11 6 0 10 -2 10 -4z"/>
<path d="M2666 6301 c-4 -5 3 -7 14 -4 23 6 26 13 6 13 -8 0 -17 -4 -20 -9z"/>
<path d="M2260 6219 c-7 -12 -18 -18 -26 -15 -8 3 -14 1 -14 -4 0 -6 9 -10 20
-10 11 0 20 5 20 11 0 5 4 7 10 4 5 -3 7 0 4 9 -3 8 2 16 13 19 16 4 16 5 1 6
-10 0 -22 -8 -28 -20z"/>
<path d="M2290 6189 c0 -5 -4 -8 -8 -5 -4 2 -14 1 -21 -3 -9 -6 -10 -11 -2
-15 6 -4 11 -3 11 1 0 5 9 9 20 10 13 1 18 -2 14 -9 -4 -7 -2 -8 5 -4 9 6 9
11 0 22 -14 17 -19 18 -19 3z"/>
<path d="M2181 6181 c-7 -5 -9 -11 -4 -14 21 -13 6 -49 -30 -70 l-37 -21 -20
22 c-22 23 -26 37 -8 26 7 -4 8 -3 4 5 -11 17 -28 2 -21 -20 8 -23 -20 -38
-38 -20 -6 6 -16 11 -21 11 -6 0 0 -7 13 -17 19 -13 28 -14 42 -4 14 8 24 8
37 0 15 -9 26 -7 60 15 23 14 42 23 42 20 0 -3 9 4 20 17 16 19 21 21 29 10 5
-8 11 -9 15 -3 3 5 -1 12 -9 16 -18 6 -45 -2 -45 -15 0 -5 -4 -9 -9 -9 -5 0
-8 11 -8 25 0 14 3 25 8 25 5 0 9 -5 9 -11 0 -5 5 -7 11 -3 8 4 7 9 -2 15 -8
5 -16 9 -19 9 -3 0 -11 -4 -19 -9z"/>
<path d="M2030 6111 c0 -5 5 -13 10 -16 6 -3 10 -2 10 4 0 5 -4 13 -10 16 -5
3 -10 2 -10 -4z"/>
<path d="M2061 6061 c-9 -6 -10 -11 -2 -15 6 -4 11 -2 11 4 0 7 7 9 16 6 8 -3
12 -2 9 4 -8 12 -16 12 -34 1z"/>
<path d="M1961 6051 c-8 -5 -21 -7 -30 -4 -9 3 -5 -4 9 -16 22 -17 35 -15 30
5 -1 4 4 11 12 15 7 5 9 9 3 9 -5 0 -16 -4 -24 -9z"/>
<path d="M1869 6009 c-8 -16 -8 -24 1 -33 8 -8 10 -7 5 6 -6 14 -2 16 20 12
18 -3 24 -1 20 6 -4 6 -14 9 -22 6 -11 -4 -13 -2 -9 9 8 22 -2 18 -15 -6z"/>
<path d="M1823 5976 c1 -6 -6 -10 -17 -9 -13 1 -15 -2 -7 -10 8 -8 14 -8 23 1
7 7 17 12 23 12 5 -1 0 -9 -12 -19 -20 -16 -21 -21 -8 -31 11 -9 19 -9 28 -2
6 6 16 10 20 10 5 0 11 2 13 5 2 2 -4 4 -13 4 -10 0 -21 -5 -25 -11 -4 -6 -10
-7 -14 -3 -11 11 16 36 33 30 13 -5 12 -2 -3 13 -21 22 -44 27 -41 10z"/>
<path d="M1890 5966 c0 -20 17 -29 26 -15 5 8 3 9 -6 4 -10 -6 -12 -4 -7 8 3
10 2 17 -3 17 -6 0 -10 -6 -10 -14z"/>
<path d="M1598 5813 c6 -2 12 -9 12 -14 0 -6 -4 -7 -10 -4 -5 3 -10 1 -10 -5
0 -7 8 -9 19 -5 13 4 23 0 30 -12 6 -10 11 -13 11 -7 0 15 -38 54 -53 53 -9 0
-9 -2 1 -6z"/>
<path d="M1574 5754 c-10 -8 -13 -12 -6 -9 7 4 23 -1 34 -12 12 -10 18 -12 14
-5 -4 7 -2 19 4 27 9 11 9 15 1 15 -6 0 -11 -4 -11 -10 0 -5 -5 -10 -11 -10
-5 0 -7 5 -4 10 9 14 2 12 -21 -6z"/>
<path d="M1490 5724 c0 -5 9 -15 19 -21 15 -10 20 -9 25 2 3 8 10 15 16 15 7
0 8 -6 1 -18 -7 -14 -6 -19 4 -19 7 0 11 6 8 14 -3 8 0 12 8 10 8 -2 10 -2 5
1 -4 2 -2 8 5 13 10 6 6 8 -11 7 -14 -1 -31 -6 -37 -11 -9 -6 -18 -5 -28 3 -8
7 -15 8 -15 4z"/>
<path d="M1510 5670 c-13 -8 -13 -11 -1 -22 8 -8 11 -8 7 -1 -3 6 0 13 6 16 7
2 11 7 8 10 -3 3 -12 2 -20 -3z"/>
<path d="M1405 5650 c-3 -5 -3 -10 2 -10 4 0 2 -4 -6 -9 -9 -6 -10 -11 -2 -15
6 -4 11 -4 12 1 0 4 2 16 4 26 4 19 -1 22 -10 7z"/>
<path d="M1203 5416 c-10 -11 -9 -15 2 -20 8 -3 15 -11 15 -17 0 -8 -5 -7 -16
2 -13 11 -17 10 -26 -4 -5 -10 -13 -15 -18 -12 -5 3 -11 1 -15 -4 -6 -11 15
-51 28 -51 4 0 5 5 2 10 -3 6 -2 10 4 10 5 0 12 -5 14 -10 3 -6 4 -5 3 2 -2 7
-11 13 -21 13 -10 0 -20 5 -22 12 -5 15 33 9 53 -8 8 -6 15 -8 16 -3 0 5 2 14
3 19 2 6 3 15 4 20 1 6 6 3 11 -5 6 -9 10 -10 10 -3 0 7 -9 17 -20 23 -11 6
-17 16 -14 25 7 18 3 19 -13 1z m17 -67 c0 -5 -9 -4 -19 3 -11 7 -17 16 -14
20 5 10 33 -10 33 -23z"/>
<path d="M1130 5319 c0 -5 -5 -7 -12 -3 -7 4 -8 3 -4 -4 4 -6 13 -9 21 -6 8 4
12 10 9 15 -7 12 -14 11 -14 -2z"/>
<path d="M1138 5289 c-7 -4 -7 -12 -1 -24 7 -12 13 -14 17 -6 4 6 2 11 -4 11
-6 0 -8 5 -5 10 5 8 12 7 23 -2 10 -8 13 -8 9 -1 -4 6 -1 13 5 16 7 3 3 4 -10
4 -12 -1 -28 -4 -34 -8z"/>
<path d="M1060 5241 c0 -5 6 -13 13 -19 10 -8 16 -6 25 9 7 11 8 19 2 19 -5 0
-10 -4 -10 -10 0 -5 -5 -10 -11 -10 -5 0 -7 5 -4 10 3 6 1 10 -4 10 -6 0 -11
-4 -11 -9z"/>
<path d="M1020 5169 l-25 -20 25 12 c14 7 28 12 33 11 4 -1 7 3 7 8 0 15 -12
12 -40 -11z"/>
<path d="M1070 5160 c0 -11 2 -20 4 -20 2 0 6 9 9 20 3 11 1 20 -4 20 -5 0 -9
-9 -9 -20z"/>
<path d="M857 4916 c-4 -10 -1 -13 9 -9 15 6 19 23 5 23 -5 0 -11 -7 -14 -14z"/>
<path d="M890 4921 c0 -5 7 -12 16 -15 24 -9 27 -7 10 9 -17 17 -26 19 -26 6z"/>
<path d="M870 4890 c-8 -5 -18 -6 -24 -3 -5 3 -6 1 -2 -5 4 -7 2 -12 -5 -12
-7 0 -9 -3 -6 -6 4 -4 17 0 30 9 21 14 24 14 33 -1 10 -15 11 -15 11 0 0 21
-19 29 -37 18z"/>
<path d="M855 4850 c-9 -15 4 -30 23 -29 15 1 15 2 0 6 -10 2 -18 9 -18 15 0
5 7 8 15 4 8 -3 15 -1 15 4 0 13 -27 13 -35 0z"/>
<path d="M822 4802 c11 -13 11 -15 -4 -9 -10 3 -20 1 -24 -5 -4 -7 -3 -8 4 -4
7 4 12 3 12 -3 0 -5 -4 -12 -10 -16 -5 -3 -7 -12 -3 -20 3 -11 1 -13 -10 -9
-8 3 -18 1 -22 -5 -3 -7 0 -8 9 -5 9 3 16 1 16 -5 0 -6 -5 -11 -12 -11 -6 0
-9 -2 -6 -5 8 -9 35 5 36 18 4 49 19 69 45 62 17 -5 19 -4 7 4 -12 9 -13 11
-1 11 23 0 4 12 -24 16 -23 2 -24 0 -13 -14z"/>
<path d="M833 4758 c0 -7 -4 -22 -7 -33 -5 -13 -2 -12 8 5 17 29 20 40 8 40
-5 0 -9 -6 -9 -12z"/>
<path d="M800 4690 c-12 -7 -12 -11 -2 -20 6 -5 10 -7 7 -4 -3 4 0 13 6 21 13
15 10 16 -11 3z"/>
<path d="M760 4680 c0 -5 5 -10 10 -10 6 0 10 5 10 10 0 6 -4 10 -10 10 -5 0
-10 -4 -10 -10z"/>
<path d="M740 4619 c0 -5 5 -7 10 -4 6 3 10 8 10 11 0 2 -4 4 -10 4 -5 0 -10
-5 -10 -11z"/>
<path d="M756 4594 c-9 -20 -13 -40 -10 -46 4 -6 -1 -8 -15 -3 -12 4 -22 2
-22 -4 -1 -6 -2 -16 -3 -22 0 -6 -9 -16 -18 -23 -10 -7 -14 -16 -10 -20 4 -4
-1 -13 -11 -21 -15 -10 -15 -14 -3 -18 9 -4 12 -14 9 -27 -4 -14 -11 -19 -22
-15 -8 3 -12 2 -7 -2 10 -10 56 -12 50 -2 -2 4 -1 9 3 12 5 2 2 2 -4 1 -7 -2
-13 1 -13 6 0 9 15 14 33 11 5 -1 6 3 2 8 -3 6 -12 8 -20 5 -9 -4 -12 0 -10
13 2 10 4 24 4 31 1 9 8 11 20 7 14 -4 23 1 32 17 7 13 12 24 11 26 -2 2 -1 8
2 27 4 19 20 50 29 56 6 4 5 9 0 12 -5 4 -17 -10 -27 -29z m-23 -91 c-9 -22
-23 -15 -19 10 3 12 5 24 5 27 1 3 5 -1 10 -9 5 -8 7 -20 4 -28z"/>
<path d="M700 4458 c0 -4 4 -8 9 -8 6 0 12 4 15 8 3 5 -1 9 -9 9 -8 0 -15 -4
-15 -9z"/>
<path d="M653 4353 c16 -8 31 -12 35 -9 3 3 -1 6 -9 6 -11 0 -11 2 -1 9 9 5 2
8 -20 9 l-33 1 28 -16z"/>
<path d="M620 4340 c0 -6 9 -10 21 -10 11 0 18 -4 15 -8 -2 -4 -1 -14 3 -20 6
-10 11 -9 21 3 11 13 10 14 -4 9 -11 -4 -16 -2 -14 6 2 6 -7 16 -19 21 -14 5
-23 5 -23 -1z"/>
<path d="M630 4290 c0 -5 5 -10 10 -10 6 0 10 5 10 10 0 6 -4 10 -10 10 -5 0
-10 -4 -10 -10z"/>
<path d="M623 4251 c-10 -15 -9 -20 2 -25 9 -3 12 0 8 10 -3 8 -2 14 3 13 5
-1 16 -1 24 0 13 1 13 2 0 11 -21 13 -24 13 -37 -9z"/>
<path d="M589 4203 c-11 -15 -11 -16 1 -5 16 14 34 16 26 3 -3 -5 1 -12 10
-15 24 -9 25 -8 7 14 -21 24 -27 25 -44 3z"/>
<path d="M610 4125 c0 -18 -11 -19 -30 -2 -11 9 -11 8 0 -7 13 -17 13 -19 0
-14 -10 4 -16 0 -16 -11 0 -10 9 -18 20 -19 10 0 23 -7 29 -14 6 -10 7 -9 4 4
-3 9 -1 19 6 22 7 3 -1 3 -18 0 -29 -5 -29 -5 -11 10 11 9 23 16 26 16 4 0 7
7 7 15 0 8 -4 15 -9 15 -4 0 -8 -7 -8 -15z"/>
<path d="M546 3992 c-3 -5 1 -9 9 -9 8 0 15 4 15 9 0 4 -4 8 -9 8 -6 0 -12 -4
-15 -8z"/>
<path d="M533 3839 c12 -7 16 -17 12 -30 -4 -11 -2 -19 5 -19 6 0 9 4 5 9 -3
5 -1 12 5 16 5 3 10 -2 11 -12 0 -13 2 -14 6 -4 6 14 -32 51 -52 50 -5 0 -2
-4 8 -10z"/>
<path d="M566 3767 c3 -10 9 -15 12 -12 3 3 0 11 -7 18 -10 9 -11 8 -5 -6z"/>
<path d="M540 3578 c0 -4 4 -8 9 -8 6 0 12 4 15 8 3 5 -1 9 -9 9 -8 0 -15 -4
-15 -9z"/>
<path d="M553 3493 c-15 -5 -17 -23 -4 -23 5 0 11 7 15 15 3 8 4 15 3 14 -1 0
-8 -3 -14 -6z"/>
<path d="M542 3240 c-14 -11 -18 -21 -12 -25 8 -5 8 -11 1 -19 -12 -15 -6 -59
9 -64 7 -3 7 -9 -1 -18 -7 -8 -7 -14 -1 -14 5 0 13 7 16 16 5 12 10 14 19 5
10 -8 14 -7 14 4 0 8 -4 12 -9 9 -8 -5 -12 9 -9 33 1 6 -3 14 -9 18 -7 4 -9
-4 -5 -26 5 -27 4 -30 -8 -20 -22 17 -15 54 13 69 24 13 24 13 2 9 -15 -4 -22
-1 -19 6 2 7 11 11 20 11 9 -1 13 4 10 12 -6 17 -3 17 -31 -6z"/>
<path d="M610 2928 c0 -9 -6 -18 -12 -21 -7 -2 -11 -7 -8 -10 3 -3 13 0 22 7
11 8 14 17 7 27 -7 12 -9 11 -9 -3z"/>
<path d="M579 2837 c6 -15 16 -21 31 -19 19 2 21 0 10 -13 -15 -18 -4 -20 14
-2 9 9 8 16 -6 30 -15 14 -18 14 -18 2 0 -8 -5 -15 -11 -15 -6 0 -9 6 -6 14 3
8 0 17 -8 20 -11 4 -12 0 -6 -17z"/>
<path d="M590 2793 c0 -6 5 -15 11 -18 6 -4 8 -13 5 -21 -3 -8 0 -11 8 -8 8 3
23 -8 35 -25 l22 -31 -30 4 c-17 2 -28 -1 -25 -6 3 -5 13 -7 21 -4 9 4 13 1
10 -6 -2 -7 -10 -12 -16 -10 -6 1 -11 -2 -11 -8 0 -17 21 -11 40 13 13 16 15
26 8 35 -6 6 -7 12 -2 12 5 0 -2 7 -14 16 -12 8 -22 20 -22 26 0 7 6 6 15 -2
10 -9 15 -9 15 -1 0 6 -6 12 -12 12 -7 1 -19 2 -26 3 -7 0 -17 8 -22 16 -6 9
-10 10 -10 3z"/>
<path d="M615 2720 c3 -5 11 -10 16 -10 6 0 7 5 4 10 -3 6 -11 10 -16 10 -6 0
-7 -4 -4 -10z"/>
<path d="M667 2656 c-4 -10 -1 -13 8 -9 8 3 12 9 9 14 -7 12 -11 11 -17 -5z"/>
<path d="M635 2630 c3 -5 8 -10 11 -10 2 0 4 5 4 10 0 6 -5 10 -11 10 -5 0 -7
-4 -4 -10z"/>
<path d="M677 2498 c4 -7 8 -19 9 -26 2 -8 5 -17 8 -20 4 -3 4 5 2 19 -2 13
-5 27 -5 32 -1 4 -6 7 -12 7 -6 0 -7 -5 -2 -12z"/>
<path d="M814 2266 c-4 -11 -14 -16 -25 -13 -12 3 -16 0 -12 -9 4 -10 10 -11
23 -4 22 12 34 29 26 37 -3 3 -9 -2 -12 -11z"/>
<path d="M857 2189 c7 -7 15 -10 18 -7 3 3 -2 9 -12 12 -14 6 -15 5 -6 -5z"/>
<path d="M3846 6465 c7 -17 6 -18 -8 -7 -13 10 -17 10 -21 -2 -4 -11 -1 -13
10 -9 12 5 14 3 8 -8 -4 -8 0 -7 11 3 15 14 16 20 5 30 -10 11 -11 9 -5 -7z"/>
<path d="M3873 6453 c-4 -10 -11 -22 -17 -26 -7 -5 -4 -7 7 -3 11 3 30 -3 47
-15 16 -13 33 -18 41 -14 9 6 11 3 6 -11 -7 -18 -7 -18 8 0 18 23 19 33 5 41
-5 3 -7 0 -4 -9 4 -10 0 -13 -13 -11 -10 2 -24 4 -30 4 -8 1 -11 12 -9 31 2
16 -1 27 -6 24 -5 -3 -7 -13 -4 -21 4 -9 1 -13 -6 -10 -7 2 -12 11 -10 21 4
21 -7 21 -15 -1z"/>
<path d="M3933 6440 c1 -11 5 -20 9 -20 3 0 6 9 5 20 -1 11 -5 20 -9 20 -3 0
-6 -9 -5 -20z"/>
<path d="M3772 6420 l-22 -18 24 2 c16 1 22 6 18 16 -5 13 -3 13 11 1 9 -7 17
-9 17 -3 0 19 -26 20 -48 2z"/>
<path d="M3827 6407 c-3 -7 3 -13 14 -13 22 0 25 12 5 19 -8 3 -16 0 -19 -6z"/>
<path d="M3870 6398 c0 -6 3 -8 7 -5 3 4 13 1 22 -6 14 -11 14 -10 2 6 -15 20
-31 22 -31 5z"/>
<path d="M4146 6352 c-3 -4 4 -9 15 -9 23 -2 25 3 4 10 -8 4 -16 3 -19 -1z"/>
<path d="M4513 6294 c0 -31 22 -51 31 -28 4 10 -1 24 -12 35 -19 17 -19 17
-19 -7z m27 -14 c0 -5 -4 -10 -10 -10 -5 0 -10 5 -10 10 0 6 5 10 10 10 6 0
10 -4 10 -10z"/>
<path d="M4474 6298 c2 -7 -1 -22 -7 -33 -9 -17 -8 -18 4 -9 11 9 17 9 26 -1
6 -7 9 -16 5 -21 -4 -4 -1 -4 6 0 11 7 10 11 -3 26 -9 10 -13 25 -9 36 4 14 3
15 -4 5 -7 -9 -11 -10 -15 -2 -3 7 -4 7 -3 -1z"/>
<path d="M4370 6289 c0 -5 5 -7 10 -4 6 3 10 8 10 11 0 2 -4 4 -10 4 -5 0 -10
-5 -10 -11z"/>
<path d="M4565 6289 c-5 -7 -4 -10 3 -5 6 3 16 -2 21 -13 11 -20 3 -32 -29
-44 -13 -5 -13 -6 1 -6 9 -1 24 8 34 19 18 20 18 21 -2 41 -15 16 -22 18 -28
8z"/>
<path d="M4560 6260 c-8 -5 -12 -11 -9 -14 2 -3 11 -1 19 4 8 5 12 11 9 14 -2
3 -11 1 -19 -4z"/>
<path d="M4790 6133 c0 -6 8 -17 18 -24 16 -13 16 -13 2 6 -8 11 -16 22 -17
24 -2 2 -3 0 -3 -6z"/>
<path d="M5010 6009 c0 -5 5 -7 10 -4 6 3 10 8 10 11 0 2 -4 4 -10 4 -5 0 -10
-5 -10 -11z"/>
<path d="M5045 6011 c3 -5 -1 -11 -7 -14 -7 -2 -11 -7 -8 -10 3 -3 13 0 23 8
16 11 16 13 2 19 -9 3 -14 2 -10 -3z"/>
<path d="M5430 5758 c0 -11 28 -10 35 1 3 6 -4 9 -15 8 -11 -1 -20 -5 -20 -9z"/>
<path d="M5620 5600 c0 -6 7 -10 15 -10 8 0 15 2 15 4 0 2 -7 6 -15 10 -8 3
-15 1 -15 -4z"/>
<path d="M5576 5565 c4 -8 8 -15 10 -15 2 0 4 7 4 15 0 8 -4 15 -10 15 -5 0
-7 -7 -4 -15z"/>
<path d="M5637 5504 c-3 -5 1 -15 9 -22 16 -14 18 -5 5 17 -5 7 -11 9 -14 5z"/>
<path d="M5713 5471 c-15 -12 -18 -22 -12 -32 7 -12 9 -12 9 0 0 8 7 23 17 33
21 23 14 23 -14 -1z"/>
<path d="M5740 5421 c0 -5 7 -11 15 -15 8 -3 15 -1 15 3 0 5 -7 11 -15 15 -8
3 -15 1 -15 -3z"/>
<path d="M5735 5389 c-4 -6 -5 -12 -2 -15 2 -3 7 2 10 11 7 17 1 20 -8 4z"/>
<path d="M5823 5322 c0 -18 3 -28 7 -22 4 7 10 11 14 10 4 -1 12 1 19 3 9 4 8
8 -3 16 -8 5 -17 8 -21 5 -4 -2 -9 2 -11 8 -3 7 -5 -2 -5 -20z"/>
<path d="M5862 5293 c-6 -3 -9 -9 -6 -15 3 -5 -1 -8 -9 -6 -9 2 -16 -1 -16 -7
-1 -5 5 -10 12 -10 6 0 11 -8 11 -17 -2 -20 44 -17 57 3 7 11 9 10 9 -4 0 -10
-6 -20 -14 -23 -8 -3 -17 -12 -20 -19 -3 -9 0 -12 10 -8 7 3 14 9 14 15 0 5 4
7 8 4 5 -3 9 10 9 28 0 26 -7 37 -26 49 -14 8 -32 12 -39 10z m48 -31 c0 -10
-22 -32 -31 -32 -11 0 -19 28 -13 45 5 11 11 12 25 4 10 -5 19 -13 19 -17z"/>
<path d="M5875 5260 c-3 -5 -1 -10 4 -10 6 0 11 5 11 10 0 6 -2 10 -4 10 -3 0
-8 -4 -11 -10z"/>
<path d="M5940 5220 c0 -5 5 -10 11 -10 5 0 7 5 4 10 -3 6 -8 10 -11 10 -2 0
-4 -4 -4 -10z"/>
<path d="M5923 5183 c-10 -10 -14 -15 -9 -11 11 8 46 -19 46 -35 0 -6 -9 -2
-19 7 -15 14 -21 15 -27 4 -4 -7 -4 -10 1 -6 4 4 14 1 21 -7 17 -17 18 -29 2
-19 -7 5 -8 3 -3 -6 6 -10 11 -10 20 3 7 9 16 13 20 9 5 -4 5 -1 1 6 -4 7 -2
21 6 30 11 15 11 15 -3 5 -9 -7 -19 -10 -22 -6 -4 3 1 11 10 18 13 9 13 14 3
20 -8 5 -11 4 -7 -2 4 -6 0 -14 -9 -17 -12 -4 -15 -2 -10 9 7 20 2 19 -21 -2z"/>
<path d="M5990 5139 c0 -5 5 -7 10 -4 6 3 10 8 10 11 0 2 -4 4 -10 4 -5 0 -10
-5 -10 -11z"/>
<path d="M5990 5109 c0 -5 5 -7 12 -3 8 5 9 2 4 -11 -5 -15 -4 -16 9 -5 13 11
13 15 3 21 -18 12 -28 11 -28 -2z"/>
<path d="M5960 5095 c-11 -13 -10 -15 4 -9 9 3 16 2 16 -4 0 -6 -6 -13 -12
-15 -10 -4 -10 -6 -1 -6 17 -1 25 17 15 35 -8 14 -10 14 -22 -1z"/>
<path d="M6062 4910 c7 -11 16 -20 21 -20 4 0 6 4 3 9 -4 5 -3 11 1 14 5 2 2
2 -4 1 -7 -2 -13 1 -13 6 0 6 -5 10 -10 10 -6 0 -5 -8 2 -20z"/>
<path d="M6097 4887 c-7 -19 8 -41 22 -33 6 4 10 15 10 24 -1 15 -2 15 -6 -1
-2 -9 -8 -15 -13 -12 -5 3 -7 12 -3 20 3 8 3 15 0 15 -3 0 -7 -6 -10 -13z"/>
<path d="M6146 4836 c10 -8 21 -12 24 -10 5 6 -21 24 -34 24 -6 0 -1 -6 10
-14z"/>
<path d="M6115 4821 c-4 -7 0 -8 11 -4 12 4 15 3 10 -5 -4 -7 -1 -15 8 -18 9
-3 13 -10 10 -15 -3 -5 2 -6 12 -2 14 5 13 8 -7 19 -13 7 -23 16 -21 20 5 13
-15 17 -23 5z"/>
<path d="M6170 4806 c0 -2 7 -7 16 -10 8 -3 12 -2 9 4 -6 10 -25 14 -25 6z"/>
<path d="M6180 4760 c8 -5 20 -10 25 -10 6 0 3 5 -5 10 -8 5 -19 10 -25 10 -5
0 -3 -5 5 -10z"/>
<path d="M6155 4741 c-3 -5 -2 -12 3 -15 5 -3 9 1 9 9 0 17 -3 19 -12 6z"/>
<path d="M6177 4721 c-4 -17 -3 -21 5 -13 5 5 8 16 6 23 -3 8 -7 3 -11 -10z"/>
<path d="M6215 4719 c-6 -8 -4 -10 5 -4 10 6 12 4 6 -11 -6 -15 -5 -17 5 -6 9
9 10 15 2 23 -8 8 -13 7 -18 -2z"/>
<path d="M6190 4682 c0 -4 10 -9 22 -9 18 -2 20 0 8 7 -18 12 -30 13 -30 2z"/>
<path d="M4225 6389 c-4 -6 -5 -12 -2 -15 2 -3 7 2 10 11 7 17 1 20 -8 4z"/>
<path d="M4746 6201 c-3 -4 -2 -12 2 -18 5 -8 14 -7 30 5 l22 17 -25 1 c-14 1
-27 -1 -29 -5z"/>
<path d="M5220 5939 c0 -5 5 -7 10 -4 6 3 10 8 10 11 0 2 -4 4 -10 4 -5 0 -10
-5 -10 -11z"/>
<path d="M1734 5922 c3 -5 1 -12 -6 -14 -8 -3 -9 -6 -1 -11 6 -4 13 0 17 8 3
8 0 17 -6 21 -6 4 -8 3 -4 -4z"/>
<path d="M1680 5880 c-7 -14 -7 -20 0 -20 5 0 10 7 10 15 0 8 4 15 9 15 5 0
14 -7 21 -15 7 -8 17 -15 23 -15 5 0 -2 9 -16 20 -14 11 -28 20 -31 20 -3 0
-10 -9 -16 -20z"/>
<path d="M1270 5461 c0 -6 4 -13 10 -16 6 -3 7 1 4 9 -7 18 -14 21 -14 7z"/>
<path d="M917 5021 c-13 -23 -14 -31 -4 -39 10 -8 16 -5 26 11 11 18 11 20 0
10 -22 -22 -30 -14 -13 12 9 14 15 28 12 30 -2 2 -12 -8 -21 -24z"/>
<path d="M6860 4300 c0 -5 5 -10 11 -10 5 0 7 5 4 10 -3 6 -8 10 -11 10 -2 0
-4 -4 -4 -10z"/>
<path d="M1036 1876 c5 -13 4 -17 -4 -12 -15 9 -26 -14 -13 -27 9 -9 10 -7 5
7 -5 13 -4 17 4 12 15 -9 26 14 13 27 -9 9 -10 7 -5 -7z"/>
<path d="M1035 1810 c3 -5 8 -10 11 -10 2 0 4 5 4 10 0 6 -5 10 -11 10 -5 0
-7 -4 -4 -10z"/>
<path d="M1074 1799 c-3 -6 -1 -16 5 -22 9 -9 10 -7 5 8 -7 18 -6 19 9 6 15
-12 17 -12 11 3 -7 18 -20 21 -30 5z"/>
<path d="M1110 1765 c0 -5 5 -17 10 -25 5 -8 10 -10 10 -5 0 6 -5 17 -10 25
-5 8 -10 11 -10 5z"/>
<path d="M1110 1711 c0 -5 7 -12 16 -15 14 -5 15 -4 4 9 -14 17 -20 19 -20 6z"/>
<path d="M1150 1676 c0 -2 8 -10 18 -17 15 -13 16 -12 3 4 -13 16 -21 21 -21
13z"/>
<path d="M1196 1647 c3 -10 9 -15 12 -12 3 3 0 11 -7 18 -10 9 -11 8 -5 -6z"/>
<path d="M1230 1576 c0 -2 8 -10 18 -17 15 -13 16 -12 3 4 -13 16 -21 21 -21
13z"/>
<path d="M1275 1540 c3 -5 8 -10 11 -10 2 0 4 5 4 10 0 6 -5 10 -11 10 -5 0
-7 -4 -4 -10z"/>
<path d="M6275 1460 c3 -5 8 -10 11 -10 2 0 4 5 4 10 0 6 -5 10 -11 10 -5 0
-7 -4 -4 -10z"/>
<path d="M1452 733 c8 -10 13 -25 11 -33 -4 -13 -3 -13 5 -1 13 18 6 37 -16
46 -14 5 -14 4 0 -12z"/>
<path d="M1436 717 c3 -10 9 -15 12 -12 3 3 0 11 -7 18 -10 9 -11 8 -5 -6z"/>
<path d="M6386 5378 c3 -5 10 -6 15 -3 13 9 11 12 -6 12 -8 0 -12 -4 -9 -9z"/>
<path d="M6416 5341 c-9 -15 23 -36 35 -24 8 8 6 11 -7 10 -11 -1 -18 4 -16
11 2 14 -4 16 -12 3z"/>
<path d="M6548 5099 c6 -9 9 -18 6 -22 -3 -3 2 -4 13 -3 10 2 25 -2 33 -8 13
-10 13 -9 1 7 -8 9 -16 15 -19 12 -3 -3 -15 3 -26 12 -15 14 -18 14 -8 2z"/>
<path d="M6571 5053 c-1 -17 16 -25 25 -12 4 7 3 9 -4 5 -5 -3 -13 0 -15 6 -4
9 -6 10 -6 1z"/>
<path d="M6630 5006 c0 -2 7 -7 16 -10 8 -3 12 -2 9 4 -6 10 -25 14 -25 6z"/>
<path d="M6626 4937 c3 -10 9 -15 12 -12 3 3 0 11 -7 18 -10 9 -11 8 -5 -6z"/>
<path d="M6672 4945 c4 -4 3 -14 -3 -22 -7 -8 -8 -13 -1 -13 15 0 23 28 9 36
-7 4 -9 4 -5 -1z"/>
<path d="M6670 4880 c-11 -7 -11 -10 -2 -10 7 0 10 -4 7 -10 -3 -6 1 -7 10 -4
10 4 15 2 13 -7 -2 -7 5 -14 15 -15 10 -1 11 0 3 3 -9 3 -13 14 -11 31 2 15 2
21 -1 15 -3 -7 -10 -13 -15 -13 -6 0 -7 5 -4 10 8 12 4 12 -15 0z"/>
<path d="M6718 4813 c7 -3 16 -2 19 1 4 3 -2 6 -13 5 -11 0 -14 -3 -6 -6z"/>
<path d="M6716 4785 c-11 -8 -16 -15 -10 -15 5 0 18 7 28 15 11 8 16 15 10 15
-5 0 -18 -7 -28 -15z"/>
<path d="M6730 4762 c0 -4 9 -13 20 -20 19 -12 20 -11 8 8 -13 20 -28 27 -28
12z"/>
<path d="M6780 4619 c0 -5 9 -9 20 -9 11 0 20 2 20 4 0 2 -9 6 -20 9 -11 3
-20 1 -20 -4z"/>
<path d="M6785 4589 c-4 -6 -4 -13 -1 -16 3 -4 6 -1 6 7 0 10 3 10 15 0 9 -7
18 -10 21 -7 3 3 -3 10 -15 16 -14 8 -22 8 -26 0z"/>
<path d="M6807 4449 c6 -23 9 -24 16 -5 3 8 0 17 -7 19 -10 4 -12 -1 -9 -14z"/>
<path d="M6856 4411 c-9 -14 5 -42 16 -35 6 4 5 10 -3 15 -12 8 -11 11 1 19 9
6 10 10 3 10 -6 0 -14 -4 -17 -9z"/>
<path d="M6914 4153 c-13 -30 -11 -71 3 -66 7 3 13 8 14 12 0 3 2 14 4 24 2 9
-1 15 -6 11 -5 -3 -7 -10 -4 -15 4 -5 1 -9 -4 -9 -15 0 -14 23 1 38 6 6 9 14
6 17 -3 3 -9 -2 -14 -12z"/>
<path d="M6940 4081 c0 -7 -4 -9 -10 -6 -6 4 -7 -1 -3 -12 6 -16 5 -16 -10 -4
-11 9 -17 10 -17 2 0 -6 4 -11 9 -11 5 0 8 -11 5 -25 -4 -24 -4 -25 14 -8 10
10 14 19 10 21 -4 2 -3 13 3 24 6 11 8 22 5 26 -3 3 -6 0 -6 -7z"/>
<path d="M6924 3932 c-8 -6 -10 -22 -4 -47 1 -5 2 -13 1 -17 0 -4 5 -5 13 -2
8 3 17 1 21 -5 8 -14 25 -14 25 0 0 5 -4 8 -9 4 -5 -3 -12 -1 -16 5 -3 5 -1
10 4 10 6 0 11 5 11 11 0 5 -4 8 -9 5 -5 -4 -11 -3 -14 1 -2 5 -2 2 0 -5 1 -8
-3 -12 -9 -9 -7 2 -11 13 -10 23 5 26 9 29 25 16 10 -9 14 -9 14 1 0 14 -28
20 -43 9z"/>
<path d="M6941 3833 c12 -14 12 -16 -1 -11 -11 4 -16 0 -16 -13 0 -24 12 -25
20 -2 6 15 8 15 16 3 12 -18 13 -33 2 -26 -4 2 -14 1 -21 -3 -9 -6 -5 -14 18
-30 17 -12 31 -18 31 -12 0 5 -9 13 -20 16 -22 7 -28 27 -7 23 7 -2 12 8 11
27 0 17 -6 29 -12 28 -7 -2 -12 2 -12 7 0 6 -5 10 -11 10 -8 0 -7 -6 2 -17z"/>
<path d="M6975 3570 c3 -5 8 -10 11 -10 2 0 4 5 4 10 0 6 -5 10 -11 10 -5 0
-7 -4 -4 -10z"/>
<path d="M6927 3229 c7 -7 15 -10 18 -7 3 3 -2 9 -12 12 -14 6 -15 5 -6 -5z"/>
<path d="M6935 3170 c-4 -7 -3 -16 3 -22 14 -14 45 -2 40 15 -6 16 -34 21 -43
7z m35 -10 c0 -5 -7 -10 -15 -10 -8 0 -15 5 -15 10 0 6 7 10 15 10 8 0 15 -4
15 -10z"/>
<path d="M6922 3135 c4 -5 2 -15 -5 -24 -10 -14 -10 -14 4 -4 12 10 20 9 40
-4 23 -16 23 -16 10 1 -8 9 -24 22 -35 28 -12 6 -18 7 -14 3z"/>
<path d="M6925 3090 c-3 -5 -3 -10 1 -10 4 0 -1 -10 -12 -22 -12 -15 -13 -18
-3 -10 13 10 19 9 29 -3 7 -8 18 -15 24 -14 7 0 6 2 -1 6 -7 2 -13 9 -13 14 0
6 4 8 9 5 11 -7 9 13 -2 32 -10 15 -24 16 -32 2z m27 -15 c0 -5 -5 -11 -10
-13 -5 -1 -9 4 -9 13 0 9 4 14 9 13 5 -2 10 -8 10 -13z"/>
<path d="M6913 3033 c-7 -3 -13 -9 -13 -15 0 -6 6 -6 15 2 10 8 15 9 15 2 0
-6 -8 -16 -17 -22 -12 -7 -13 -10 -3 -7 8 2 22 1 31 -4 11 -5 16 -3 16 6 0 20
-29 44 -44 38z"/>
<path d="M55 3020 c3 -5 8 -10 11 -10 2 0 4 5 4 10 0 6 -5 10 -11 10 -5 0 -7
-4 -4 -10z"/>
<path d="M6906 2969 c2 -4 12 -5 22 -2 15 6 15 5 3 -10 -12 -15 -12 -17 3 -11
23 9 15 29 -12 30 -12 1 -19 -2 -16 -7z"/>
<path d="M6890 2950 c0 -5 5 -10 11 -10 5 0 7 5 4 10 -3 6 -8 10 -11 10 -2 0
-4 -4 -4 -10z"/>
<path d="M6871 2822 c-17 -31 -13 -40 5 -14 9 13 14 26 11 29 -3 2 -10 -4 -16
-15z"/>
<path d="M6900 2820 c0 -6 0 -13 1 -16 0 -4 -10 -14 -23 -23 -13 -9 -23 -25
-23 -36 0 -11 -4 -26 -9 -32 -9 -14 9 -43 27 -43 6 0 2 6 -8 14 -17 12 -17 16
-6 30 10 12 17 14 25 6 14 -14 23 -13 23 3 0 9 -10 13 -24 11 -30 -3 -29 11 3
41 15 14 23 25 18 26 -5 0 0 4 10 8 18 7 18 8 3 14 -9 3 -17 2 -17 -3z"/>
<path d="M109 2778 c11 -15 11 -21 0 -35 -12 -17 -12 -17 6 0 19 17 19 17 0
35 -18 16 -18 16 -6 0z"/>
<path d="M6900 2770 c-24 -19 -24 -19 -3 -17 12 0 20 3 18 6 -3 2 0 10 6 18
16 18 8 16 -21 -7z"/>
<path d="M126 2721 c-3 -5 1 -11 9 -14 9 -4 12 -1 8 9 -6 16 -10 17 -17 5z"/>
<path d="M6870 2706 c0 -4 7 -14 15 -22 8 -9 15 -11 15 -6 0 5 -7 15 -15 22
-8 7 -15 9 -15 6z"/>
<path d="M136 2682 c-3 -5 1 -9 9 -9 8 0 12 4 9 9 -3 4 -7 8 -9 8 -2 0 -6 -4
-9 -8z"/>
<path d="M148 2623 c6 -3 10 -9 6 -14 -3 -5 -1 -9 4 -9 21 0 19 26 -2 27 -11
0 -15 -1 -8 -4z"/>
<path d="M135 2580 c-3 -5 -1 -10 4 -10 6 0 11 5 11 10 0 6 -2 10 -4 10 -3 0
-8 -4 -11 -10z"/>
<path d="M165 2580 c-3 -6 1 -7 9 -4 18 7 21 14 7 14 -6 0 -13 -4 -16 -10z"/>
<path d="M174 2552 c5 -8 -1 -12 -16 -13 -18 -1 -19 -2 -4 -6 23 -6 43 12 25
22 -8 5 -10 4 -5 -3z"/>
<path d="M155 2490 c3 -5 8 -10 11 -10 2 0 4 5 4 10 0 6 -5 10 -11 10 -5 0 -7
-4 -4 -10z"/>
<path d="M190 2485 c0 -8 4 -15 10 -15 5 0 7 7 4 15 -4 8 -8 15 -10 15 -2 0
-4 -7 -4 -15z"/>
<path d="M170 2461 c0 -6 6 -11 13 -11 8 0 7 -4 -3 -10 -9 -6 -10 -10 -3 -10
19 0 24 17 8 30 -10 9 -15 9 -15 1z"/>
<path d="M215 2460 c-6 -9 11 -50 21 -50 2 0 0 9 -6 20 -6 11 -8 25 -5 30 3 6
4 10 1 10 -3 0 -8 -4 -11 -10z"/>
<path d="M191 2421 c-11 -7 -9 -10 8 -16 12 -3 19 -11 16 -16 -4 -5 -1 -9 4
-9 16 0 13 20 -4 26 -8 4 -12 10 -9 15 7 11 3 11 -15 0z"/>
<path d="M6762 2399 c10 -7 10 -9 -1 -9 -8 0 -12 -2 -9 -5 3 -3 20 1 39 9 l34
15 -38 -1 c-24 -1 -33 -4 -25 -9z"/>
<path d="M6792 2378 c-23 -12 -25 -30 -4 -34 9 -2 9 -1 1 3 -8 4 -3 12 12 24
27 21 25 23 -9 7z"/>
<path d="M201 2351 c0 -9 3 -11 5 -4 3 6 16 9 30 7 14 -3 23 -1 20 4 -10 17
-56 11 -55 -7z"/>
<path d="M216 2331 c-4 -5 3 -7 14 -4 11 3 20 0 20 -6 0 -6 -7 -11 -15 -11 -8
0 -15 -4 -15 -10 0 -6 10 -5 25 2 19 9 22 14 14 25 -13 15 -35 17 -43 4z"/>
<path d="M6664 2165 c-4 -9 -2 -21 4 -27 8 -8 9 -5 5 11 -3 13 -1 21 6 21 7 0
10 -4 7 -8 -2 -4 4 -8 14 -9 11 -1 22 2 24 6 3 4 0 8 -7 8 -7 0 -20 4 -29 8
-12 5 -20 2 -24 -10z"/>
<path d="M6689 2128 c-1 -7 -1 -19 0 -25 2 -12 -18 -18 -47 -14 -10 2 -12 -4
-7 -18 5 -17 3 -20 -12 -15 -15 5 -16 4 -3 -5 13 -9 13 -11 0 -11 -13 -1 -13
-2 0 -10 23 -13 35 -16 35 -9 0 4 9 16 19 28 11 12 15 21 10 21 -5 0 -15 -9
-22 -20 -7 -11 -17 -20 -22 -20 -6 0 -3 11 6 25 9 14 22 25 30 25 7 0 16 4 19
10 11 18 14 50 4 50 -5 0 -10 -6 -10 -12z"/>
<path d="M325 2119 c3 -4 -2 -9 -10 -13 -8 -3 -15 -11 -15 -18 0 -11 2 -11 8
0 7 9 13 7 28 -9 19 -22 19 -22 -6 -15 -17 5 -21 4 -11 -2 7 -5 11 -14 8 -20
-4 -5 4 -8 16 -7 12 0 30 -2 39 -7 13 -6 16 -5 12 7 -3 8 -10 12 -15 9 -5 -3
-9 -2 -10 3 -4 43 -7 54 -14 60 -4 5 -4 -3 0 -17 7 -24 6 -24 -11 -8 -13 13
-15 20 -6 31 9 11 8 14 -3 14 -8 0 -12 -4 -10 -8z m35 -69 c0 -5 -5 -10 -11
-10 -5 0 -7 5 -4 10 3 6 8 10 11 10 2 0 4 -4 4 -10z"/>
<path d="M6650 2115 c0 -8 4 -15 10 -15 5 0 7 7 4 15 -4 8 -8 15 -10 15 -2 0
-4 -7 -4 -15z"/>
<path d="M357 1994 c-3 -4 4 -24 16 -45 15 -27 28 -38 43 -37 11 1 21 8 21 15
0 8 -6 9 -17 3 -17 -9 -30 -4 -30 12 0 4 3 7 8 7 31 -5 45 14 18 24 -10 4 -13
1 -10 -8 4 -8 -1 -13 -11 -11 -19 3 -36 26 -29 38 6 9 0 11 -9 2z"/>
<path d="M6575 1971 c-6 -11 13 -26 22 -17 3 3 13 0 21 -7 13 -11 14 -9 1 11
-8 12 -15 18 -17 12 -2 -5 -8 -10 -13 -10 -6 0 -7 5 -4 10 3 6 4 10 1 10 -3 0
-7 -4 -11 -9z"/>
<path d="M415 1881 c1 -11 6 -26 13 -34 7 -7 8 -18 4 -22 -4 -5 -2 -5 5 -2 6
4 13 4 16 0 2 -5 2 -2 1 5 -4 14 -2 14 20 6 9 -3 16 -10 16 -16 0 -5 -5 -6
-12 -2 -8 5 -9 2 -5 -9 3 -9 2 -19 -4 -22 -10 -7 -3 -25 11 -25 5 0 8 8 8 18
0 9 3 25 7 34 5 12 2 20 -9 24 -9 3 -14 10 -11 14 3 4 -3 7 -13 6 -9 0 -21 9
-27 22 -12 27 -22 29 -20 3z m26 -28 c13 -16 12 -17 -3 -4 -10 7 -18 15 -18
17 0 8 8 3 21 -13z"/>
<path d="M455 1880 c-3 -5 -1 -10 4 -10 6 0 11 5 11 10 0 6 -2 10 -4 10 -3 0
-8 -4 -11 -10z"/>
<path d="M6540 1821 c0 -6 4 -12 8 -15 5 -3 9 1 9 9 0 8 -4 15 -9 15 -4 0 -8
-4 -8 -9z"/>
<path d="M547 1696 c-14 -21 -14 -25 -2 -30 8 -3 15 -11 15 -17 0 -8 -6 -7
-17 2 -16 13 -17 12 -4 -4 8 -9 17 -15 20 -11 6 5 12 84 6 84 -1 0 -10 -11
-18 -24z"/>
<path d="M6459 1677 c7 -7 14 -8 21 -1 6 6 2 10 -12 11 -16 2 -18 -1 -9 -10z"/>
<path d="M616 1563 l-17 -28 19 22 c20 23 32 21 32 -4 0 -8 -4 -12 -9 -8 -5 3
-12 1 -16 -5 -7 -11 31 -70 45 -70 5 0 -2 12 -15 26 -25 26 -34 51 -16 39 14
-8 23 12 16 35 -9 27 -20 25 -39 -7z"/>
<path d="M6385 1559 c-4 -6 -12 -8 -19 -6 -7 3 -13 -4 -13 -14 -1 -11 -9 -26
-17 -35 -24 -23 -19 -27 8 -7 13 10 21 24 19 31 -4 8 1 10 13 6 11 -4 16 -4
12 1 -4 4 -3 14 3 22 6 7 9 13 6 13 -3 0 -9 -5 -12 -11z"/>
<path d="M666 1534 c-8 -21 -9 -18 14 -44 11 -13 23 -20 26 -17 4 4 -4 16 -17
27 -19 15 -21 21 -10 29 8 5 9 11 3 15 -5 3 -13 -1 -16 -10z"/>
<path d="M715 1460 c-4 -6 -16 -8 -28 -5 -12 2 -16 2 -9 -1 6 -3 10 -10 7 -15
-4 -5 1 -6 10 -3 11 5 14 2 9 -12 -4 -14 -3 -15 3 -6 6 7 19 14 30 15 17 1 19
4 9 19 -12 20 -22 23 -31 8z m20 -10 c3 -5 -1 -10 -10 -10 -9 0 -13 5 -10 10
3 6 8 10 10 10 2 0 7 -4 10 -10z"/>
<path d="M725 1410 c-7 -11 5 -40 17 -40 5 0 6 -5 2 -12 -4 -6 -3 -8 4 -4 5 3
13 0 15 -6 4 -10 6 -10 6 0 1 8 -9 22 -21 32 -13 10 -20 21 -16 25 4 4 19 -5
35 -19 15 -14 32 -26 37 -26 5 0 -2 9 -15 21 -13 12 -23 24 -22 28 2 10 -36
11 -42 1z"/>
<path d="M6090 1230 c-14 -22 -28 -40 -33 -40 -4 0 -5 6 -1 13 4 6 3 9 -1 5
-12 -12 -15 -58 -4 -58 6 0 8 4 5 9 -3 5 2 15 11 22 14 12 16 12 11 -2 -4 -9
-1 -16 8 -16 7 0 11 4 8 9 -7 11 15 40 25 33 4 -2 8 1 8 8 0 7 2 17 3 22 11
46 -10 44 -40 -5z m31 2 c-13 -25 -41 -48 -41 -34 0 6 8 16 18 21 9 6 13 11 9
11 -12 0 2 20 14 20 6 0 6 -6 0 -18z"/>
<path d="M910 1236 c0 -5 8 -15 18 -23 15 -13 15 -14 0 -9 -9 3 -19 -2 -22
-10 -8 -22 -7 -31 2 -17 10 16 44 20 49 5 3 -7 -1 -10 -10 -7 -7 3 -19 0 -26
-8 -9 -11 -7 -17 6 -28 16 -12 17 -12 6 2 -7 9 -10 19 -6 22 9 10 25 9 19 -1
-2 -4 0 -14 5 -22 8 -13 10 -13 19 0 15 23 13 27 -25 68 -19 20 -35 33 -35 28z
m60 -76 c0 -5 -5 -10 -11 -10 -5 0 -7 5 -4 10 3 6 8 10 11 10 2 0 4 -4 4 -10z"/>
<path d="M881 1216 c-9 -11 -9 -16 0 -22 7 -4 9 -3 5 4 -3 5 0 12 6 15 7 2 10
7 7 11 -3 4 -12 0 -18 -8z"/>
<path d="M986 1134 c-3 -9 -4 -20 0 -25 8 -13 -10 -11 -24 3 -7 7 -12 10 -12
7 0 -3 12 -16 27 -28 20 -19 25 -20 19 -6 -4 12 -2 16 8 12 8 -3 17 0 19 7 4
10 -1 12 -14 9 -11 -3 -19 0 -19 6 0 7 4 9 10 6 6 -3 7 1 4 9 -8 20 -10 20
-18 0z"/>
<path d="M1030 1084 c0 -8 -5 -12 -10 -9 -6 4 -5 -4 1 -19 7 -14 16 -23 20
-20 4 2 15 -8 23 -23 8 -15 18 -28 23 -28 4 0 7 -4 5 -9 -2 -5 4 -6 12 -3 9 4
18 2 21 -3 3 -4 -1 -11 -7 -13 -7 -3 -8 -6 -2 -6 5 -1 19 6 30 15 10 8 14 13
7 9 -19 -9 -63 24 -56 43 4 14 3 15 -6 2 -15 -22 -24 -5 -11 22 11 22 10 22
-4 4 -9 -11 -16 -14 -16 -8 0 7 -7 12 -15 12 -18 0 -18 5 -5 31 7 13 7 19 0
19 -5 0 -10 -7 -10 -16z"/>
<path d="M1120 1000 c20 -13 33 -13 25 0 -3 6 -14 10 -23 10 -15 0 -15 -2 -2
-10z"/>
<path d="M5785 919 c5 -25 -12 -52 -26 -43 -5 3 -9 1 -9 -4 0 -28 41 -18 46
11 1 4 2 10 3 15 1 4 6 0 11 -8 7 -10 10 -11 10 -2 0 7 -7 15 -15 18 -8 4 -13
10 -10 14 3 5 1 11 -4 15 -6 3 -8 -4 -6 -16z"/>
<path d="M5738 893 c-9 -10 -13 -24 -11 -30 3 -7 0 -13 -5 -13 -6 0 -12 6 -15
13 -2 6 -3 -4 -2 -23 1 -19 -3 -42 -9 -50 -9 -13 -9 -13 6 -2 10 8 14 20 11
29 -4 10 -2 14 4 10 5 -4 19 0 29 8 13 11 14 13 3 10 -11 -4 -15 0 -14 12 1
26 15 44 26 38 5 -4 9 -1 9 4 0 16 -15 13 -32 -6z"/>
<path d="M1260 896 c0 -2 8 -10 18 -17 15 -13 16 -12 3 4 -13 16 -21 21 -21
13z"/>
<path d="M1221 876 c-17 -20 5 -32 26 -14 14 11 16 11 10 -4 -4 -13 -2 -15 10
-11 12 5 14 3 8 -8 -7 -11 -5 -11 10 1 17 14 18 13 13 -2 -4 -10 -1 -19 9 -22
10 -4 13 -14 10 -28 -4 -15 -3 -18 5 -10 12 12 -17 86 -31 77 -5 -2 -16 4 -26
15 -21 24 -29 25 -44 6z m24 -6 c-3 -5 -11 -10 -16 -10 -6 0 -7 5 -4 10 3 6
11 10 16 10 6 0 7 -4 4 -10z"/>
<path d="M5659 817 c-1 -7 -1 -16 0 -21 1 -5 -4 -6 -12 -3 -8 3 -20 1 -28 -5
-11 -8 -11 -9 3 -5 19 7 42 -15 30 -29 -4 -4 1 -2 11 5 18 14 24 26 8 16 -6
-3 -9 4 -8 15 1 12 6 19 14 16 7 -3 13 -1 13 3 0 14 -30 22 -31 8z"/>
<path d="M1270 816 c0 -3 9 -10 20 -16 11 -6 20 -8 20 -6 0 3 -9 10 -20 16
-11 6 -20 8 -20 6z"/>
<path d="M1370 800 c0 -5 5 -10 11 -10 5 0 7 5 4 10 -3 6 -8 10 -11 10 -2 0
-4 -4 -4 -10z"/>
<path d="M5530 732 c0 -5 -10 -14 -22 -20 -13 -6 -18 -11 -12 -11 7 -1 22 8
35 19 13 10 18 19 12 20 -7 0 -13 -4 -13 -8z"/>
<path d="M5562 735 c4 -5 -5 -18 -20 -29 -28 -22 -41 -56 -22 -56 6 0 8 5 5
10 -3 6 -1 10 5 10 6 0 8 5 4 12 -5 8 -2 9 9 5 9 -3 19 -1 23 5 4 7 3 8 -4 4
-7 -4 -12 -3 -12 2 0 6 7 13 16 16 22 9 26 8 18 -6 -4 -7 -3 -8 4 -4 17 10 15
14 -10 27 -13 6 -20 8 -16 4z"/>
<path d="M1489 668 c-13 -11 -19 -17 -12 -14 6 4 14 2 18 -4 4 -6 11 -7 17 -4
8 5 9 1 5 -10 -4 -10 -3 -15 3 -11 6 3 10 1 10 -6 0 -7 3 -10 6 -7 9 10 -16
49 -27 43 -5 -4 -9 -2 -9 4 0 22 19 20 38 -4 21 -26 37 -32 47 -15 3 6 -1 7
-10 4 -11 -5 -14 -2 -9 12 5 16 4 16 -5 4 -6 -8 -11 -10 -11 -5 0 6 -8 15 -18
22 -15 9 -23 7 -43 -9z"/>
<path d="M5485 680 c3 -5 4 -10 1 -10 -2 0 -12 -3 -22 -7 -13 -5 -15 -3 -9 7
6 9 4 11 -4 6 -9 -6 -9 -12 2 -24 8 -10 13 -23 11 -30 -1 -7 0 -8 3 -2 2 5 10
7 16 4 8 -5 8 -2 0 7 -7 7 -13 17 -13 22 0 5 6 5 13 -1 9 -8 12 -4 13 14 1 13
-2 24 -8 24 -5 0 -6 -4 -3 -10z"/>
<path d="M1590 627 c-17 -13 -23 -47 -9 -47 5 0 9 8 9 18 0 10 5 23 12 30 16
16 7 15 -12 -1z"/>
<path d="M1609 618 c-7 -23 -3 -45 8 -41 10 4 11 9 2 19 -8 10 -8 14 -1 14 6
0 16 -8 21 -17 6 -10 11 -13 11 -7 0 17 -36 45 -41 32z"/>
<path d="M1714 552 c2 -13 -2 -26 -12 -32 -15 -8 -9 -12 14 -9 4 0 10 -3 13
-8 10 -14 70 -53 81 -53 5 0 10 4 10 10 0 5 -7 6 -17 3 -12 -5 -14 -3 -8 7 5
9 4 11 -3 6 -7 -4 -12 -2 -12 3 0 6 -6 11 -14 11 -7 0 -20 8 -27 17 -12 15
-12 16 3 10 10 -3 20 -2 23 4 4 5 3 9 -2 8 -22 -4 -35 3 -44 24 l-10 22 5 -23z"/>
<path d="M5330 566 c0 -2 6 -9 14 -15 11 -9 16 -9 22 0 4 8 3 9 -4 5 -7 -4
-12 -2 -12 3 0 6 -4 11 -10 11 -5 0 -10 -2 -10 -4z"/>
<path d="M5216 518 c-9 -12 -16 -18 -16 -13 0 5 -6 0 -14 -10 -8 -11 -19 -16
-30 -12 -9 4 -15 3 -12 -2 8 -12 -21 -34 -33 -27 -5 4 -12 2 -16 -4 -4 -6 -11
-8 -16 -4 -5 3 -9 2 -8 -3 1 -4 -1 -16 -6 -26 -4 -10 -3 -23 2 -28 6 -6 9 -2
9 13 -1 18 4 22 19 20 16 -2 17 -1 5 7 -8 6 -13 11 -10 12 3 0 19 2 35 4 l30
4 -28 -25 c-16 -13 -33 -21 -39 -18 -7 4 -8 2 -4 -4 14 -23 79 28 70 53 -6 14
12 21 39 16 5 -1 6 3 3 8 -3 5 1 12 10 15 25 9 25 8 8 -21 -15 -26 -15 -27 1
-8 9 11 20 19 24 18 10 -2 12 45 2 52 -6 3 -17 -5 -25 -17z m24 -4 c0 -8 -5
-12 -10 -9 -6 4 -8 11 -5 16 9 14 15 11 15 -7z"/>
<path d="M5278 533 c-10 -2 -18 -9 -18 -14 0 -6 7 -6 19 1 29 15 35 12 20 -7
-13 -16 -12 -17 3 -4 10 7 15 17 12 22 -5 9 -8 10 -36 2z"/>
<path d="M1830 470 c0 -5 5 -10 10 -10 6 0 10 5 10 10 0 6 -4 10 -10 10 -5 0
-10 -4 -10 -10z"/>
<path d="M1866 471 c-8 -12 4 -41 16 -41 5 0 6 5 3 10 -7 11 8 14 18 3 10 -9
-14 -34 -26 -26 -6 3 -7 1 -3 -5 4 -6 14 -8 23 -5 12 5 14 3 8 -8 -7 -11 -5
-11 10 1 17 14 18 13 12 -2 -8 -23 -5 -22 23 2 l22 19 -31 -4 c-22 -2 -31 0
-28 8 2 7 13 10 23 9 10 -2 16 -1 12 3 -3 3 -12 7 -20 9 -7 1 -19 5 -25 9 -7
5 -18 5 -25 1 -8 -5 -9 -2 -5 9 7 18 2 23 -7 8z"/>
<path d="M5173 445 c0 -8 4 -12 9 -9 4 3 8 9 8 15 0 5 -4 9 -8 9 -5 0 -9 -7
-9 -15z"/>
<path d="M1825 440 c-3 -6 1 -7 9 -4 18 7 21 14 7 14 -6 0 -13 -4 -16 -10z"/>
<path d="M4920 365 c-7 -9 -10 -18 -7 -22 4 -3 2 -15 -4 -27 -10 -20 -10 -20
5 -2 11 13 16 15 16 6 0 -7 3 -11 6 -8 3 4 1 15 -5 26 -7 13 -7 22 1 30 7 7 9
12 6 12 -3 0 -11 -7 -18 -15z"/>
<path d="M4828 328 c-13 -13 -26 -22 -30 -20 -5 1 -8 -2 -8 -8 0 -5 4 -10 9
-10 5 0 11 -6 14 -12 2 -7 3 -5 2 5 -4 20 -1 21 25 7 16 -8 18 -8 14 5 -3 8
-10 12 -15 9 -5 -3 -9 2 -9 10 0 22 17 20 32 -4 15 -23 24 -26 25 -7 0 6 4 21
8 32 4 11 3 16 -2 10 -11 -14 -47 -19 -38 -6 11 19 -4 12 -27 -11z"/>
<path d="M2104 316 c-19 -21 19 -39 40 -18 15 15 17 15 34 -2 16 -17 16 -18
-8 -11 -28 8 -27 6 15 -20 25 -15 28 -16 16 -2 -11 14 -11 18 3 23 9 3 16 11
16 16 0 6 -8 4 -17 -3 -15 -12 -16 -12 -10 3 3 10 1 20 -5 24 -7 5 -8 2 -3 -6
5 -9 2 -10 -13 -6 -12 4 -26 1 -35 -8 -17 -17 -28 -11 -20 10 6 17 2 17 -13 0z"/>
<path d="M2220 280 c-13 -9 -13 -10 0 -11 8 -1 19 -1 24 0 5 1 5 -6 2 -16 -6
-15 -5 -16 5 -5 18 17 -9 46 -31 32z"/>
<path d="M4678 255 c-8 -19 -9 -28 0 -37 8 -8 9 -5 6 13 -4 18 -3 20 4 10 8
-11 10 -8 9 12 -2 33 -4 33 -19 2z"/>
<path d="M2342 254 c10 -10 20 -16 22 -13 3 3 -5 11 -17 18 -21 13 -21 12 -5
-5z"/>
<path d="M2377 236 c-12 -9 -14 -16 -7 -21 5 -3 7 -12 3 -18 -4 -7 7 -1 24 13
17 14 29 27 27 29 -2 2 -13 -4 -24 -14 -21 -19 -28 -7 -8 13 16 16 7 15 -15
-2z"/>
<path d="M4625 203 c-5 -14 -3 -15 6 -6 6 6 19 9 28 6 14 -4 14 -3 1 6 -21 15
-27 14 -35 -6z"/>
<path d="M4400 179 c0 -5 -6 -7 -12 -3 -10 6 -10 4 0 -7 13 -14 17 -33 4 -25
-4 2 -14 -4 -20 -15 -12 -19 -12 -19 11 -4 15 9 25 25 25 40 0 14 -2 25 -4 25
-2 0 -4 -5 -4 -11z"/>
<path d="M2660 155 c10 -12 10 -18 -1 -32 -7 -10 -9 -15 -4 -10 4 4 18 -1 29
-10 21 -18 21 -18 2 5 -11 12 -15 22 -11 22 5 0 20 -10 34 -22 l26 -23 -24 27
c-12 14 -20 31 -17 37 4 7 1 8 -8 5 -9 -3 -16 -1 -16 5 0 6 -5 11 -11 11 -8 0
-8 -5 1 -15z"/>
<path d="M4330 157 c0 -5 7 -7 15 -3 8 3 15 1 15 -4 0 -16 -20 -22 -34 -11
-17 15 -32 -17 -16 -33 8 -8 9 -6 5 7 -4 9 -3 17 3 17 6 0 12 -6 15 -12 3 -9
10 -7 21 7 21 27 20 44 -4 42 -11 -1 -20 -5 -20 -10z"/>
<path d="M4477 163 c-10 -10 -8 -23 4 -23 5 0 8 4 5 9 -4 5 0 12 6 14 7 3 8 6
2 6 -6 1 -14 -2 -17 -6z"/>
<path d="M4281 143 c-5 -10 -17 -18 -27 -18 -9 0 -18 -6 -20 -13 -1 -7 0 -8 3
-2 7 15 23 12 17 -3 -2 -7 4 -13 16 -14 11 -1 20 3 20 8 0 6 -4 7 -10 4 -15
-9 -12 2 6 30 9 14 14 25 11 25 -3 0 -10 -8 -16 -17z"/>
<path d="M2637 143 c-4 -3 -7 -13 -7 -22 1 -13 3 -13 11 2 11 19 8 33 -4 20z"/>
<path d="M2710 144 c0 -3 9 -17 20 -31 11 -14 20 -22 20 -17 0 5 5 2 10 -6 5
-8 10 -10 10 -4 0 7 -11 19 -25 28 -14 9 -23 21 -20 26 4 6 1 10 -4 10 -6 0
-11 -3 -11 -6z"/>
<path d="M4200 121 c13 -26 13 -31 -5 -31 -8 0 -15 -5 -15 -10 0 -7 7 -7 21 0
12 7 18 17 15 27 -3 8 -6 19 -6 24 0 5 -5 9 -10 9 -7 0 -7 -6 0 -19z"/>
<path d="M4070 99 c0 -5 5 -7 10 -4 6 3 10 8 10 11 0 2 -4 4 -10 4 -5 0 -10
-5 -10 -11z"/>
<path d="M2952 91 c-8 -4 -28 -7 -45 -5 -18 1 -27 0 -20 -2 7 -3 9 -13 6 -22
-3 -10 -1 -13 4 -7 11 13 43 15 43 3 0 -6 7 -8 15 -5 8 4 17 2 20 -3 7 -11 35
-2 35 12 0 6 -6 5 -15 -2 -13 -11 -15 -9 -13 10 3 25 -10 34 -30 21z m28 -10
c0 -13 -28 -22 -35 -11 -3 4 1 11 7 13 20 8 28 8 28 -2z"/>
<path d="M3937 85 c-9 -8 -17 -19 -19 -25 -2 -6 -13 -12 -26 -15 -15 -3 -22 0
-19 8 2 7 12 11 22 9 14 -3 15 -1 4 10 -11 12 -15 12 -29 -1 -10 -9 -13 -21
-9 -27 6 -7 -1 -11 -21 -11 -28 0 -36 11 -31 40 1 5 -3 6 -8 3 -10 -7 -11 -45
-1 -47 28 -6 71 -5 75 2 3 4 13 6 23 5 10 -2 25 9 39 30 24 36 23 43 0 19z"/>
<path d="M3963 78 c-37 -42 -35 -59 4 -35 6 4 19 4 30 1 17 -5 17 -5 0 6 -14
9 -22 9 -33 0 -17 -15 -19 1 -2 18 7 7 17 8 30 1 12 -6 18 -6 18 1 0 5 -7 10
-16 10 -8 0 -12 5 -9 10 11 17 -1 11 -22 -12z"/>
<path d="M4145 84 c9 -9 19 -13 23 -10 3 4 0 11 -8 16 -24 15 -33 11 -15 -6z"/>
<path d="M3110 79 c0 -7 3 -9 6 -6 4 3 15 2 25 -4 12 -6 25 -6 36 0 14 8 13 9
-7 8 -14 0 -33 3 -42 7 -12 6 -18 4 -18 -5z"/>
<path d="M3830 70 c-8 -5 -12 -11 -10 -14 3 -2 14 2 24 10 22 15 10 19 -14 4z"/>
<path d="M3413 50 c6 -11 15 -20 19 -20 12 0 -3 28 -18 34 -11 4 -12 2 -1 -14z"/>
<path d="M3445 59 c-3 -5 1 -6 11 -2 14 5 15 3 6 -14 -9 -17 -7 -22 13 -31 20
-9 23 -9 18 3 -3 8 -9 12 -14 9 -12 -7 -11 20 1 32 6 6 3 10 -10 11 -11 1 -22
-2 -25 -8z"/>
<path d="M3668 63 c7 -3 16 -2 19 1 4 3 -2 6 -13 5 -11 0 -14 -3 -6 -6z"/>
<path d="M4020 61 c0 -5 7 -12 16 -15 14 -5 15 -4 4 9 -14 17 -20 19 -20 6z"/>
<path d="M3101 38 c-13 -20 -12 -22 1 -11 8 7 19 9 23 5 5 -4 5 -1 0 7 -5 9
-3 12 6 9 8 -3 13 -11 11 -17 -1 -7 2 -10 8 -6 8 5 7 11 -1 21 -16 20 -32 17
-48 -8z"/>
<path d="M3503 52 c-9 -5 -9 -11 0 -23 11 -14 14 -14 31 3 11 10 15 18 10 18
-6 0 -16 -6 -23 -12 -11 -11 -13 -10 -8 5 7 19 7 20 -10 9z"/>
<path d="M3590 10 c-9 -6 -10 -10 -3 -10 6 0 15 5 18 10 8 12 4 12 -15 0z"/>
</g>
</svg>
