<svg width="120" height="120" viewBox="0 0 120 120" fill="none" xmlns="http://www.w3.org/2000/svg">
<path d="M100.313 68.7189V33.7501C100.314 33.4197 100.228 33.0949 100.063 32.8084C99.8986 32.5219 99.6611 32.2841 99.375 32.1189L53.9063 5.86888C53.6212 5.70431 53.2979 5.61768 52.9688 5.61768C52.6396 5.61768 52.3163 5.70431 52.0313 5.86888L6.56251 32.1189C6.27638 32.2841 6.03898 32.5219 5.87435 32.8084C5.70972 33.0949 5.6237 33.4197 5.62501 33.7501V86.2501C5.6237 86.5805 5.70972 86.9054 5.87435 87.1919C6.03898 87.4783 6.27638 87.7162 6.56251 87.8814L52.0313 114.131C52.3163 114.296 52.6396 114.383 52.9688 114.383C53.2979 114.383 53.6212 114.296 53.9063 114.131L70.9875 104.269C73.1166 107.252 75.9035 109.705 79.1325 111.438C82.3616 113.172 85.9461 114.139 89.6088 114.265C93.2715 114.391 96.9141 113.673 100.255 112.165C103.595 110.658 106.544 108.402 108.873 105.573C111.203 102.743 112.849 99.4158 113.687 95.8479C114.524 92.2799 114.529 88.5671 113.701 84.997C112.873 81.4268 111.235 78.0949 108.914 75.2592C106.592 72.4235 103.649 70.16 100.313 68.6439V68.7189ZM52.9688 9.65638L94.6875 33.7501L73.7625 45.8251L35.025 20.0251L52.9688 9.65638ZM52.9688 57.8439L11.25 33.7501L31.4063 22.1064L70.125 47.9251L52.9688 57.8439ZM9.37501 36.9939L51.0938 61.0876V109.256L9.37501 85.1626V36.9939ZM54.8438 109.256V61.0876L71.7188 51.2814V65.8876C71.7188 66.3849 71.9163 66.8618 72.2679 67.2135C72.6196 67.5651 73.0965 67.7626 73.5938 67.7626C74.091 67.7626 74.568 67.5651 74.9196 67.2135C75.2712 66.8618 75.4688 66.3849 75.4688 65.8876V49.1251L96.4688 36.9939V67.3876C94.4828 66.8449 92.4338 66.5675 90.375 66.5626C86.3175 66.573 82.3295 67.6176 78.7879 69.5977C75.2463 71.5778 72.2679 74.4281 70.1341 77.8793C68.0003 81.3305 66.7816 85.2687 66.593 89.3219C66.4044 93.3751 67.2522 97.4094 69.0563 101.044L54.8438 109.256ZM90.4688 110.625C86.4822 110.625 82.5852 109.443 79.2705 107.228C75.9559 105.013 73.3724 101.865 71.8468 98.1823C70.3212 94.4993 69.9221 90.4465 70.6998 86.5366C71.4775 82.6267 73.3972 79.0352 76.2161 76.2163C79.035 73.3974 82.6265 71.4777 86.5365 70.6999C90.4464 69.9222 94.4992 70.3214 98.1822 71.8469C101.865 73.3725 105.013 75.956 107.228 79.2707C109.443 82.5853 110.625 86.4823 110.625 90.4689C110.62 95.8131 108.495 100.937 104.716 104.716C100.937 108.495 95.813 110.62 90.4688 110.625Z" fill="white"/>
<path d="M99.3749 80.7376L87.7499 96.0751L81.6562 88.9126C81.3354 88.5272 80.8747 88.285 80.3754 88.2393C79.8761 88.1936 79.3791 88.3481 78.9937 88.6688C78.6083 88.9896 78.3661 89.4503 78.3204 89.9496C78.2747 90.4489 78.4292 90.9459 78.7499 91.3313L86.2499 100.294C86.426 100.5 86.6445 100.665 86.8905 100.778C87.1365 100.891 87.4041 100.95 87.6749 100.95C87.9565 100.942 88.2324 100.87 88.4824 100.74C88.7323 100.61 88.9498 100.425 89.1187 100.2L102.15 83.0063C102.394 82.8438 102.597 82.6262 102.742 82.3711C102.887 82.116 102.97 81.8304 102.984 81.5374C102.998 81.2443 102.944 80.952 102.825 80.6839C102.706 80.4158 102.525 80.1794 102.298 79.9937C102.071 79.808 101.803 79.6782 101.517 79.6147C101.23 79.5512 100.933 79.5559 100.649 79.6282C100.364 79.7006 100.101 79.8386 99.8799 80.0313C99.6586 80.224 99.4857 80.4659 99.3749 80.7376Z" fill="white"/>
</svg>
