<svg width="115" height="120" viewBox="0 0 115 120" fill="none" xmlns="http://www.w3.org/2000/svg">
<path d="M3.57435 112.853C2.62637 112.853 1.71722 113.229 1.0469 113.9C0.376582 114.57 0 115.479 0 116.427C0.000282923 117.375 0.37699 118.284 1.04728 118.954C1.71757 119.624 2.62656 120 3.57435 120H104.422C105.37 120 106.279 119.624 106.95 118.953C107.62 118.283 107.997 117.374 107.997 116.426C107.997 115.478 107.62 114.569 106.95 113.898C106.279 113.228 105.37 112.852 104.422 112.852L3.57435 112.853Z" fill="white"/>
<path d="M98.2628 52.0956C97.0497 52.0572 95.7426 52.1767 94.5935 52.1255H13.5326C12.5855 52.1258 11.6771 52.5013 11.0062 53.1698C10.3353 53.8383 9.95657 54.7453 9.95291 55.6924C9.91023 67.5784 10.464 76.5442 13.2157 84.3896C15.9674 92.2351 20.98 98.671 28.9642 105.096C29.6001 105.608 30.3907 105.887 31.207 105.887H76.7559C77.6244 105.888 78.4631 105.573 79.1171 105.001C86.1623 98.8225 90.9061 93.7523 93.8786 87.9672C94.6042 88.0525 95.3105 88.0632 95.9774 87.9853C97.2812 87.8317 98.1967 87.4988 99.3703 87.1776C105.904 85.3851 112.236 80.4664 113.831 73.227C115.093 67.5006 114.94 62.6277 112.905 58.7621C110.901 54.9551 106.913 52.7017 102.55 52.3314C101.105 52.0967 99.6702 52.0978 98.2628 52.0956ZM98.233 59.255H98.2436C99.5859 59.2582 101.316 59.3617 101.475 59.3905C101.598 59.4129 101.722 59.4289 101.847 59.4385C104.486 59.6263 105.681 60.4095 106.57 62.0985C107.459 63.7875 107.882 66.9575 106.839 71.6841C106.025 75.3823 101.741 79.1017 97.4765 80.2711L96.656 80.4952C98.0964 74.7122 98.3503 68.0565 98.233 59.255ZM17.2456 59.287H90.9679C91.0714 69.4958 90.6905 76.5986 88.7807 81.8001C86.7246 87.3995 82.8376 92.0611 75.3582 98.7286H32.5567C25.8561 93.1601 22.143 88.2137 19.9707 82.0178C17.9627 76.2924 17.3577 68.8439 17.2446 59.287H17.2456Z" fill="white"/>
<path d="M47.7672 0.0010674C45.7645 0.225131 44.1715 1.72743 42.7364 3.03126C38.5603 7.11349 37.4443 13.7703 39.7927 19.0764C41.5446 23.1725 44.0925 27.0285 44.6452 31.546C45.3366 36.1223 43.0821 40.658 40.7487 44.3956C39.9271 45.7634 41.9618 46.999 43.9965 45.1424C48.8875 40.2365 52.4725 33.8902 50.9265 27.2387C50.0345 22.5835 47.2625 18.672 44.9195 14.6623C43.1568 11.8028 42.9018 7.84436 45.1136 5.14493C46.0558 3.47405 48.4394 3.0398 49.0123 1.19501C49.0732 0.502544 48.402 0.0149376 47.7672 0V0.0010674ZM66.8841 11.631C64.6232 12.0984 62.8584 13.9464 61.5845 15.7816C59.1966 19.3506 59.4719 24.0986 61.4927 27.7626C63.4783 31.3849 65.2612 35.6677 63.9649 39.8268C63.5167 41.4571 62.565 42.7524 61.5162 44.1864C60.2273 45.9629 62.5949 46.6597 64.2839 45.5479C69.0821 42.4665 71.2469 36.0967 69.5067 30.6978C68.619 27.1757 66.1244 24.4069 64.7267 21.1217C63.7259 18.6314 65.0372 15.7602 67.3237 14.5087C68.9156 13.8151 68.6435 11.5115 66.8841 11.631Z" fill="white"/>
</svg>
