<svg width="30" height="30" viewBox="0 0 30 30" fill="none" xmlns="http://www.w3.org/2000/svg">
<path fill-rule="evenodd" clip-rule="evenodd" d="M4.62277 0H25.3772C27.9302 0 30 2.0697 30 4.62277V25.3772C30 27.9302 27.9302 30 25.3772 30H4.62277C2.0697 30 0 27.9302 0 25.3772V4.62277C0 2.0697 2.0697 0 4.62277 0Z" fill="#000B15"/>
<path d="M23.7686 7.05577L5.42405 13.5269C4.83467 13.7271 4.87151 14.4943 5.46089 14.661L10.1023 15.8952L11.8336 20.8987C12.0178 21.4324 12.7545 21.5658 13.1597 21.1989L15.5541 18.964L20.2692 22.0995C20.8585 22.4998 21.6689 22.1996 21.8163 21.5658L24.9473 8.02311C25.2052 7.35598 24.4685 6.82228 23.7686 7.05577ZM21.4847 10.0578L12.9755 16.896C12.9018 16.9627 12.8282 17.0627 12.8282 17.1628L12.4966 19.7979C12.4966 19.898 12.3493 19.898 12.3125 19.7979L10.9495 15.8619C10.8758 15.6951 10.9863 15.495 11.1337 15.3949L21.19 9.75764C21.4479 9.62422 21.7058 9.89107 21.4847 10.0578Z" fill="#F9FBFF"/>
</svg>
