<svg width="30" height="30" viewBox="0 0 30 30" fill="none" xmlns="http://www.w3.org/2000/svg">
<path fill-rule="evenodd" clip-rule="evenodd" d="M4.62277 0H25.3772C27.9302 0 30 2.0697 30 4.62277V25.3772C30 27.9302 27.9302 30 25.3772 30H4.62277C2.0697 30 0 27.9302 0 25.3772V4.62277C0 2.0697 2.0697 0 4.62277 0Z" fill="#000B15"/>
<path fill-rule="evenodd" clip-rule="evenodd" d="M14.1454 20.4137C14.4264 20.4349 14.7077 20.4246 14.9895 20.4246H15.156C15.5598 20.4246 16.0328 20.4819 16.3077 20.1862V20.1862C16.4463 20.037 16.4681 19.781 16.4714 19.6923C16.4721 19.6714 16.4718 19.6515 16.4719 19.6306C16.4732 19.4084 16.5093 18.0377 17.1929 17.8208C17.9269 17.588 18.8693 19.371 19.8681 20.0567V20.0567C20.6464 20.5912 21.6724 20.4552 22.6165 20.442L23.3136 20.4323C23.6834 20.4271 24.0692 20.4465 24.403 20.2874C24.7092 20.1414 24.967 19.8434 24.603 19.2398C24.5487 19.1501 24.217 18.4273 22.617 16.9421C20.9421 15.3876 21.1666 15.6391 23.184 12.9503C24.4126 11.3128 24.9037 10.3132 24.7502 9.88507V9.88507C24.4896 9.15789 23.3132 9.58731 22.5407 9.59208L21.0938 9.60103C20.827 9.60268 20.5337 9.535 20.3048 9.67203V9.67203V9.67203C20.0628 9.81676 19.9904 10.1269 19.8824 10.3873C19.692 10.8464 19.3443 11.6335 18.9287 12.3394C17.5896 14.6132 17.0541 14.7336 16.8352 14.5922C16.3259 14.2631 16.4532 13.2703 16.4532 12.5649C16.4532 10.3612 16.7874 9.44244 15.8023 9.20461C15.4755 9.12573 15.2347 9.07355 14.3986 9.06502C13.3255 9.05411 12.4175 9.06833 11.9033 9.32025C11.5612 9.4878 11.2972 9.86106 11.458 9.88254C11.6569 9.90902 12.1069 10.004 12.3455 10.3287V10.3287C12.9025 11.0866 12.7018 12.1608 12.6543 13.1002C12.6206 13.7666 12.5143 14.4503 12.2294 14.6057C11.8241 14.8267 11.268 14.3755 10.0742 12.3126C9.63171 11.5481 9.26758 10.7253 9.10003 10.3287C9.03232 10.1684 8.97593 10.0001 8.86692 9.86453C8.83436 9.82402 8.7962 9.78457 8.75282 9.75267V9.75267C8.48365 9.55492 8.12297 9.56735 7.78898 9.56953L5.74895 9.58285C5.5384 9.58423 5.3245 9.57661 5.1216 9.63284C5.01641 9.662 4.90975 9.70872 4.84661 9.78345V9.78345C4.61882 10.0532 4.90396 10.454 5.05047 10.7752C5.66857 12.1305 7.53865 16.0121 9.60597 18.1646C11.3671 19.9981 13.3089 20.3505 14.1454 20.4137Z" fill="white"/>
</svg>
