<svg width="30" height="30" viewBox="0 0 30 30" fill="none" xmlns="http://www.w3.org/2000/svg">
<path fill-rule="evenodd" clip-rule="evenodd" d="M4.62277 0H25.3772C27.9302 0 30 2.0697 30 4.62277V25.3772C30 27.9302 27.9302 30 25.3772 30H4.62277C2.0697 30 0 27.9302 0 25.3772V4.62277C0 2.0697 2.0697 0 4.62277 0Z" fill="#000B15"/>
<path d="M25.5825 10.1557C25.3449 9.3123 24.6872 8.65084 23.8401 8.41702C22.2802 8.00002 16.0096 8.00002 16.0096 8.00002C16.0096 8.00002 9.75076 7.99002 8.17465 8.41702C7.33189 8.65147 6.67106 9.3123 6.43599 10.1557C6.14027 11.7543 5.99335 13.3723 6.00023 14.9978C5.9971 16.6127 6.1434 18.2282 6.43599 19.8168C6.67106 20.6602 7.33189 21.3216 8.17465 21.5592C9.7345 21.9762 16.0096 21.9762 16.0096 21.9762C16.0096 21.9762 22.2646 21.9762 23.8401 21.5592C24.6872 21.3216 25.3449 20.6608 25.5825 19.8168C25.8694 18.2282 26.0095 16.6127 25.9995 14.9978C26.0095 13.3723 25.8726 11.7543 25.5825 10.1557ZM14.0064 17.9906V11.9919L19.2262 14.9978L14.0064 17.9906Z" fill="white"/>
</svg>
