<svg width="30" height="30" viewBox="0 0 30 30" fill="none" xmlns="http://www.w3.org/2000/svg">
<path fill-rule="evenodd" clip-rule="evenodd" d="M4.62277 0H25.3772C27.9302 0 30 2.0697 30 4.62277V25.3772C30 27.9302 27.9302 30 25.3772 30H4.62277C2.0697 30 0 27.9302 0 25.3772V4.62277C0 2.0697 2.0697 0 4.62277 0Z" fill="#000B15"/>
<path d="M22.0838 6.92058C20.2033 5.03633 17.703 4 15.0374 4C9.54919 4 5.08228 8.46691 5.08228 13.9589C5.08228 15.7137 5.54141 17.429 6.41318 18.9364L5 24.0986L10.2796 22.7131C11.7362 23.5057 13.373 23.9259 15.0374 23.9259H15.0411C20.5293 23.9259 25 19.4583 25 13.967C25 11.3052 23.9643 8.80482 22.0838 6.92058ZM15.0418 22.2458C13.5538 22.2458 12.0973 21.8457 10.8255 21.092L10.5233 20.9111L7.3911 21.7314L8.22708 18.677L8.03049 18.363C7.19828 17.0478 6.76239 15.5247 6.76239 13.9589C6.76239 9.39333 10.4756 5.68012 15.0455 5.68012C17.2558 5.68012 19.336 6.54373 20.8986 8.10577C22.4613 9.6722 23.3205 11.7486 23.3205 13.9626C23.3167 18.5319 19.6029 22.2458 15.0418 22.2458ZM19.5797 16.0435C19.3322 15.9178 18.1074 15.3174 17.8801 15.2345C17.6527 15.1516 17.4875 15.1089 17.3186 15.3601C17.154 15.6076 16.6748 16.1691 16.5297 16.3374C16.3846 16.502 16.2395 16.5258 15.9921 16.4002C15.7446 16.2746 14.94 16.0114 13.9897 15.1635C13.2517 14.504 12.7493 13.6875 12.6042 13.4401C12.4591 13.1926 12.5885 13.055 12.7141 12.9338C12.8278 12.8239 12.9616 12.643 13.0872 12.4979C13.2128 12.3529 13.2517 12.2505 13.3346 12.0822C13.4169 11.9176 13.378 11.7719 13.3152 11.6463C13.2524 11.5206 12.7537 10.2959 12.5495 9.79719C12.3492 9.31043 12.1413 9.377 11.988 9.36947C11.843 9.36193 11.6778 9.36193 11.5132 9.36193C11.3487 9.36193 11.0773 9.42474 10.8499 9.6722C10.622 9.91967 9.9788 10.5239 9.9788 11.7486C9.9788 12.9734 10.87 14.1548 10.9957 14.3238C11.1213 14.4883 12.7505 17.0051 15.2472 18.0803C15.8401 18.3353 16.303 18.4886 16.6641 18.606C17.2608 18.7945 17.8028 18.7668 18.2305 18.704C18.7091 18.633 19.7028 18.1036 19.9107 17.5226C20.1186 16.9416 20.1186 16.4429 20.0557 16.3412C19.9967 16.2313 19.8321 16.1684 19.5809 16.0428L19.5797 16.0435Z" fill="white"/>
</svg>
