<svg width="30" height="30" viewBox="0 0 30 30" fill="none" xmlns="http://www.w3.org/2000/svg">
<path fill-rule="evenodd" clip-rule="evenodd" d="M4.62277 0H25.3772C27.9302 0 30 2.0697 30 4.62277V25.3772C30 27.9302 27.9302 30 25.3772 30H4.62277C2.0697 30 0 27.9302 0 25.3772V4.62277C0 2.0697 2.0697 0 4.62277 0Z" fill="#000B15"/>
<path d="M15 6C11.6862 6 9 8.2385 9 11C9 16 15 22 15 22C15 22 21 16 21 11C21 8.2385 18.3138 6 15 6ZM15 14C13.0116 14 11.4 12.657 11.4 11C11.4 9.343 13.0116 8 15 8C16.9884 8 18.6 9.343 18.6 11C18.6 12.657 16.9884 14 15 14Z" fill="white"/>
</svg>
