<svg width="30" height="30" viewBox="0 0 30 30" fill="none" xmlns="http://www.w3.org/2000/svg">
<path fill-rule="evenodd" clip-rule="evenodd" d="M4.62277 0H25.3772C27.9302 0 30 2.0697 30 4.62277V25.3772C30 27.9302 27.9302 30 25.3772 30H4.62277C2.0697 30 0 27.9302 0 25.3772V4.62277C0 2.0697 2.0697 0 4.62277 0Z" fill="#000B15"/>
<path d="M14.4736 4.00307C12.7825 4.02348 9.14687 4.30137 7.11337 6.16695C5.60076 7.66574 5.07263 9.88165 5.01073 12.6217C4.95936 15.3519 4.89746 20.4792 9.83963 21.8752V24.0016C9.83963 24.0016 9.80868 24.8524 10.3711 25.0269C11.0638 25.2462 11.4583 24.5916 12.1168 23.8883L13.3449 22.4995C16.7264 22.7807 19.3163 22.1327 19.6147 22.0366C20.3008 21.8173 24.1657 21.3234 24.7972 16.1955C25.4452 10.8997 24.4818 7.56301 22.7426 6.05369H22.7321C22.2072 5.57034 20.098 4.03336 15.3857 4.01624C15.3857 4.01624 15.036 3.99319 14.4736 4.00307ZM14.5316 5.49197C15.0116 5.48868 15.3033 5.50909 15.3033 5.50909C19.292 5.51963 21.1958 6.72011 21.6449 7.12444C23.1094 8.37957 23.8641 11.3877 23.3116 15.809C22.7867 20.0959 19.6522 20.3672 19.072 20.5523C18.8251 20.6313 16.544 21.1937 13.6702 21.0086C13.6702 21.0086 11.53 23.5913 10.861 24.2564C10.755 24.373 10.6312 24.4072 10.5521 24.3901C10.4389 24.3624 10.4046 24.2222 10.4112 24.0299L10.4316 20.5009C6.24018 19.3419 6.48712 14.9687 6.5319 12.6843C6.58327 10.3999 7.01196 8.53103 8.28817 7.26536C10.0062 5.71192 13.0934 5.50251 14.5302 5.49197H14.5316ZM14.8477 7.77571C14.7034 7.77242 14.5836 7.89227 14.5836 8.03648C14.5836 8.18399 14.7034 8.30055 14.8477 8.30055C16.168 8.27684 17.4409 8.77731 18.3872 9.6966C19.344 10.6258 19.8102 11.8743 19.828 13.5068C19.828 13.651 19.9446 13.7708 20.0921 13.7708V13.7603C20.2363 13.7603 20.3561 13.6438 20.3561 13.4995C20.4213 11.9461 19.8451 10.4368 18.7645 9.31862C17.7221 8.29989 16.4011 7.77505 14.8477 7.77505V7.77571ZM11.3766 8.37957C11.1916 8.35191 10.9993 8.39011 10.8379 8.48559H10.8241C10.4672 8.695 10.1346 8.95907 9.81922 9.31203C9.57886 9.58992 9.44847 9.87111 9.41423 10.1418C9.39382 10.3031 9.40764 10.4644 9.45572 10.6185L9.47284 10.6291C9.74349 11.4246 10.0971 12.1897 10.5291 12.9102C11.0849 13.9216 11.7704 14.8581 12.5666 15.695L12.5903 15.7293L12.6278 15.7569L12.6515 15.7846L12.6792 15.8083C13.5194 16.6077 14.4558 17.2933 15.4713 17.8556C16.6303 18.4865 17.3336 18.7848 17.7557 18.9086V18.9152C17.8795 18.9527 17.9921 18.9698 18.1053 18.9698C18.4655 18.9422 18.8053 18.7986 19.0727 18.555C19.4158 18.2461 19.6864 17.907 19.8893 17.5468V17.5402C20.0914 17.1596 20.0229 16.7994 19.7312 16.5557C19.1484 16.0447 18.5136 15.5916 17.8446 15.2011C17.3955 14.9575 16.9391 15.105 16.7541 15.3519L16.3596 15.8491C16.1574 16.0961 15.79 16.0618 15.79 16.0618L15.7795 16.0684C13.0394 15.3684 12.3084 12.5941 12.3084 12.5941C12.3084 12.5941 12.2742 12.2167 12.5277 12.0245L13.0216 11.6267C13.258 11.4344 13.4226 10.9787 13.1691 10.529C12.7812 9.85662 12.3288 9.22576 11.8178 8.64232C11.7078 8.50535 11.5505 8.4125 11.3753 8.37825L11.3766 8.37957ZM15.3033 9.16189C14.9537 9.16189 14.9537 9.69002 15.3066 9.69002C16.1844 9.70385 17.0214 10.0673 17.6319 10.6982C18.1877 11.3119 18.4754 12.1285 18.4208 12.9549C18.4241 13.0992 18.5406 13.2157 18.6848 13.2157L18.6954 13.2295C18.8396 13.2295 18.9594 13.1097 18.9594 12.9655C18.9831 11.9191 18.6578 11.0413 18.0197 10.338C17.3783 9.6347 16.4834 9.24025 15.3409 9.16189C15.3271 9.16189 15.3172 9.16189 15.3033 9.16189ZM15.736 10.5817C15.3758 10.5711 15.362 11.1098 15.7189 11.1203C16.5868 11.1651 17.0082 11.6037 17.0636 12.5058C17.0669 12.6501 17.1834 12.7633 17.3243 12.7633H17.3349C17.4824 12.7567 17.5989 12.6296 17.5884 12.4821C17.5265 11.306 16.8851 10.6436 15.7465 10.5823C15.7432 10.5823 15.7399 10.5823 15.736 10.5823V10.5817Z" fill="white"/>
</svg>
