<svg width="30" height="30" viewBox="0 0 30 30" fill="none" xmlns="http://www.w3.org/2000/svg">
<path fill-rule="evenodd" clip-rule="evenodd" d="M4.62277 0H25.3772C27.9302 0 30 2.0697 30 4.62277V25.3772C30 27.9302 27.9302 30 25.3772 30H4.62277C2.0697 30 0 27.9302 0 25.3772V4.62277C0 2.0697 2.0697 0 4.62277 0Z" fill="#000B15"/>
<path d="M15.0056 6.80226C17.679 6.80226 17.9954 6.81415 19.0467 6.86105C20.0241 6.9042 20.5512 7.06804 20.9033 7.20499C21.3686 7.38509 21.7044 7.60396 22.0521 7.95166C22.4042 8.30373 22.6187 8.63579 22.8025 9.10106C22.9395 9.45313 23.1033 9.98405 23.1465 10.9577C23.1934 12.0133 23.2052 12.3297 23.2052 14.9994C23.2052 17.669 23.1934 17.9892 23.1465 19.041C23.1033 20.0184 22.9395 20.5456 22.8025 20.8977C22.6224 21.363 22.4042 21.6988 22.0558 22.0465C21.7038 22.3985 21.3717 22.613 20.9071 22.7969C20.555 22.9338 20.0235 23.0977 19.0504 23.1408C17.9948 23.1877 17.6784 23.1996 15.0088 23.1996C12.3391 23.1996 12.0189 23.1877 10.9671 23.1408C9.98968 23.0977 9.46251 22.9338 9.11044 22.7969C8.64518 22.6168 8.30936 22.3985 7.96104 22.0502C7.60897 21.6981 7.39447 21.3661 7.21062 20.9014C7.07367 20.5494 6.90982 20.0178 6.86667 19.0448C6.81977 17.9892 6.80789 17.6728 6.80789 15.0031C6.80789 12.3335 6.81977 12.0133 6.86667 10.9615C6.90982 9.98405 7.07367 9.45688 7.21062 9.10481C7.39072 8.63955 7.60959 8.30373 7.95729 7.95541C8.30936 7.60334 8.64142 7.38884 9.10668 7.20499C9.45876 7.06804 9.98968 6.9042 10.9634 6.86105C12.0146 6.81415 12.3316 6.80226 15.005 6.80226H15.0056ZM15.0056 5.00063C12.2891 5.00063 11.9495 5.01251 10.8821 5.05941C9.81896 5.10631 9.08792 5.27828 8.45507 5.52467C7.7947 5.78232 7.23563 6.12251 6.68095 6.68157C6.12188 7.23688 5.78169 7.79532 5.52404 8.45194C5.27766 9.08917 5.10568 9.81583 5.05878 10.8789C5.01188 11.9502 5 12.2897 5 15.0063C5 17.7228 5.01188 18.0623 5.05878 19.1298C5.10568 20.1929 5.27766 20.924 5.52404 21.5568C5.78232 22.2172 6.12188 22.7762 6.68095 23.3309C7.23563 23.8856 7.7947 24.2302 8.45132 24.4841C9.08855 24.7305 9.81521 24.9024 10.8783 24.9493C11.9452 24.9962 12.2853 25.0081 15.0019 25.0081C17.7184 25.0081 18.0586 24.9962 19.1254 24.9493C20.1885 24.9024 20.9196 24.7305 21.5524 24.4841C22.2091 24.2302 22.7681 23.8862 23.3228 23.3309C23.8775 22.7756 24.2221 22.2172 24.476 21.5606C24.7223 20.9233 24.8943 20.1967 24.9412 19.1336C24.9881 18.0667 25 17.7265 25 15.01C25 12.2935 24.9881 11.9539 24.9412 10.8864C24.8943 9.82334 24.7223 9.0923 24.476 8.45945C24.2296 7.7947 23.8894 7.23626 23.3309 6.68095C22.7762 6.12626 22.2172 5.78169 21.5606 5.5278C20.9233 5.28141 20.1967 5.10944 19.1336 5.06254C18.063 5.01188 17.7228 5 15.0063 5L15.0056 5.00063Z" fill="white"/>
<path d="M15.1398 10C12.3025 10 10 12.3019 10 15.1398C10 17.9776 12.3019 20.2795 15.1398 20.2795C17.9776 20.2795 20.2795 17.9776 20.2795 15.1398C20.2795 12.3025 17.9776 10 15.1398 10ZM15.1398 18.4735C13.2987 18.4735 11.806 16.9808 11.806 15.1398C11.806 13.2987 13.2987 11.806 15.1398 11.806C16.9808 11.806 18.4735 13.2987 18.4735 15.1398C18.4735 16.9808 16.9808 18.4735 15.1398 18.4735Z" fill="white"/>
</svg>
