<svg width="120" height="116" viewBox="0 0 120 116" fill="none" xmlns="http://www.w3.org/2000/svg">
<path d="M49.0524 25.7465H47.4811C46.0962 25.7465 44.8561 26.2734 43.8949 27.27C42.9333 28.2665 42.4517 29.5251 42.5016 30.9091L43.2872 52.6626C43.3847 55.3558 45.5719 57.4654 48.2667 57.4654C50.9616 57.4654 53.149 55.3558 53.246 52.6626L54.0317 30.9094C54.0816 29.5256 53.5999 28.2672 52.6385 27.2704C51.6771 26.2737 50.4371 25.7465 49.0524 25.7465ZM49.4986 52.5269C49.4745 53.1933 48.9335 53.715 48.2667 53.715C47.5999 53.715 47.0588 53.193 47.0346 52.5269L46.249 30.7737C46.2359 30.4069 46.3388 30.1376 46.5938 29.8732C46.8485 29.6093 47.1138 29.4965 47.4809 29.4965H49.0521C49.4192 29.4965 49.6845 29.6093 49.9392 29.8732C50.194 30.1373 50.2971 30.4066 50.284 30.7737L49.4986 52.5269ZM118.782 103.51L105.835 90.9466C105.067 90.2006 104.05 89.8022 102.976 89.8148C102.515 89.8219 102.069 89.9097 101.649 90.0637L96.3799 84.9511C98.662 81.1373 99.976 76.6804 99.976 71.9219C99.976 61.8511 94.0962 53.1281 85.5896 49.0043L62.4816 8.98006C59.5146 3.84115 54.2006 0.772949 48.2667 0.772949C42.3328 0.772949 37.0188 3.84092 34.0519 8.98006L2.21416 64.1243C-0.753027 69.2632 -0.753027 75.3994 2.21416 80.5383C5.18111 85.6772 10.4951 88.7451 16.429 88.7451H55.4428C60.1099 94.0324 66.9338 97.3734 74.5242 97.3734C80.3002 97.3734 85.632 95.4382 89.9079 92.1839L94.7531 96.8857C94.4761 97.4526 94.337 98.077 94.347 98.7079C94.3631 99.7828 94.7953 100.785 95.5638 101.531L108.511 114.095C109.261 114.823 110.265 115.229 111.309 115.227C112.358 115.227 113.407 114.82 114.193 114.01L114.193 114.01L118.868 109.192C120.411 107.602 120.372 105.053 118.782 103.51ZM98.7506 92.4769L97.2202 94.0542L92.7256 89.6927C93.2383 89.1682 93.7283 88.622 94.1944 88.0556L98.7506 92.4769ZM16.429 84.9951C11.8507 84.9951 7.7508 82.6279 5.46189 78.6633C3.17252 74.6983 3.17252 69.9642 5.46189 65.9993L37.2996 10.8551C39.5888 6.89014 43.6887 4.52295 48.2667 4.52295C52.8448 4.52295 56.9447 6.89014 59.2338 10.8551L80.16 47.1002C78.5911 46.7448 76.992 46.5393 75.3842 46.4864L55.9179 12.7694C54.3209 10.0033 51.4606 8.35217 48.2667 8.35217C45.0729 8.35217 42.2126 10.0033 40.6156 12.7694L8.77807 67.9139C7.1808 70.6797 7.1808 73.9826 8.77807 76.7487C10.3749 79.5147 13.2352 81.1661 16.4292 81.1661H50.8111C51.3306 82.4931 51.9609 83.7739 52.6953 84.9951H16.429ZM48.2667 65.8401C47.1054 65.8401 46.1606 64.8954 46.1606 63.734C46.1606 62.5727 47.1054 61.628 48.2667 61.628C49.4281 61.628 50.3728 62.5727 50.3728 63.734C50.3728 64.8954 49.4281 65.8401 48.2667 65.8401ZM52.3121 59.5057C51.2597 58.4986 49.8349 57.8779 48.2667 57.8779C45.0378 57.8779 42.4106 60.5051 42.4106 63.734C42.4106 66.963 45.0378 69.5901 48.2667 69.5901C48.5801 69.5901 48.8871 69.5644 49.1874 69.5168C48.9357 72.1591 49.0992 74.8244 49.6718 77.4161H16.429C14.5631 77.4161 12.9581 76.4894 12.0253 74.8737C11.0925 73.2576 11.0925 71.4044 12.0253 69.7889L43.8631 14.6444C44.7959 13.0287 46.4011 12.1019 48.2667 12.1019C50.1324 12.1019 51.7374 13.0287 52.6704 14.6442L71.1745 46.694C63.0694 47.7649 56.1537 52.6601 52.3121 59.5057ZM52.8225 71.9217C52.8225 59.9554 62.558 50.2202 74.5242 50.2202C86.4905 50.2202 96.226 59.9557 96.226 71.9217C96.226 83.8882 86.4905 93.6234 74.5242 93.6234C62.558 93.6234 52.8225 83.8882 52.8225 71.9217ZM116.177 106.58L111.502 111.398C111.402 111.501 111.225 111.503 111.123 111.403L98.1755 98.8399C98.1504 98.8152 98.1306 98.7858 98.117 98.7534C98.1034 98.721 98.0965 98.6862 98.0965 98.651C98.0953 98.616 98.1012 98.581 98.1138 98.5483C98.1263 98.5156 98.1453 98.4857 98.1696 98.4604L102.844 93.6429C102.906 93.5791 102.981 93.5648 103.033 93.5639H103.037C103.089 93.5639 103.162 93.577 103.223 93.6372L116.171 106.201C116.273 106.301 116.276 106.478 116.177 106.58ZM74.5242 53.3074C64.2603 53.3074 55.9099 61.6579 55.9099 71.9219C55.9099 82.1859 64.2603 90.5365 74.5242 90.5365C84.7882 90.5365 93.1388 82.1859 93.1388 71.9219C93.1388 61.6579 84.7882 53.3074 74.5242 53.3074ZM74.5242 86.7862C66.3279 86.7862 59.6599 80.118 59.6599 71.9217C59.6599 63.7254 66.3281 57.0572 74.5242 57.0572C82.7206 57.0572 89.3888 63.7254 89.3888 71.9217C89.3888 80.118 82.7206 86.7862 74.5242 86.7862Z" fill="white"/>
</svg>
