<svg width="120" height="120" viewBox="0 0 120 120" fill="none" xmlns="http://www.w3.org/2000/svg">
<g clip-path="url(#clip0_235_64)">
<path d="M94.0971 79.2845C94.0971 75.312 90.8932 71.941 86.7537 71.941H70.0036C69.2102 71.941 68.6571 71.1146 69.0075 70.3892C72.1088 63.9528 76.9282 60.1496 77.4806 59.3077C78.8182 57.2734 79.5248 54.9186 79.5248 52.4982C79.5248 49.8223 78.6403 47.1772 77.033 45.047C75.5381 43.0733 72.4371 42.71 70.6327 44.873L63.4284 53.4359C61.5234 55.7 59.3177 57.5586 56.8706 58.9618C50.0602 62.8848 46.668 67.91 45.0183 71.4432C44.5678 72.422 43.5462 73.0545 42.4153 73.0545H39.7814C39.0485 70.0986 36.393 67.8929 33.2133 67.8929H1.875C1.37772 67.8929 0.900806 68.0904 0.549175 68.4421C0.197544 68.7937 0 69.2706 0 69.7679L0 114.589C0 115.086 0.197544 115.563 0.549175 115.915C0.900806 116.266 1.37772 116.464 1.875 116.464H33.2133C36.3926 116.464 39.0478 114.258 39.7812 111.303H40.8267C42.7377 111.302 44.6379 111.588 46.4637 112.153L56.4007 115.214C58.5851 115.889 60.8538 116.231 63.1434 116.231H82.0711C85.095 116.231 87.6942 114.161 88.2509 111.305C88.533 109.839 88.2652 108.365 87.5541 107.104C89.9576 106.011 91.6411 103.596 91.6411 100.783C91.6411 99.2368 91.1147 97.8219 90.2559 96.6673C92.5327 95.4155 94.0973 93.0191 94.0973 90.238C94.0973 88.0625 93.1282 86.1263 91.6205 84.7808C93.2386 83.3492 94.0971 81.3685 94.0971 79.2845ZM36.2498 109.677C36.2498 111.352 34.8874 112.714 33.2133 112.714H3.75V71.6424H33.2133C34.8879 71.6424 36.2498 73.0048 36.2498 74.679V109.677ZM74.948 82.8943C74.4507 82.8943 73.9738 83.0918 73.6221 83.4435C73.2705 83.7951 73.073 84.272 73.073 84.7693C73.073 85.2666 73.2705 85.7435 73.6221 86.0951C73.9738 86.4468 74.4507 86.6443 74.948 86.6443H86.5641C88.354 86.6443 90.0122 87.8682 90.2981 89.6352C90.6635 91.8917 88.9315 93.8488 86.7534 93.8488H74.948C74.4507 93.8488 73.9738 94.0463 73.6221 94.3979C73.2705 94.7496 73.073 95.2265 73.073 95.7238C73.073 96.221 73.2705 96.6979 73.6221 97.0496C73.9738 97.4012 74.4507 97.5988 74.948 97.5988H84.5398C86.1255 97.5988 87.5944 98.6834 87.8475 100.249C88.1709 102.249 86.6367 103.984 84.7064 103.984H74.948C74.4507 103.984 73.9738 104.181 73.6221 104.533C73.2705 104.884 73.073 105.361 73.073 105.859C73.073 106.356 73.2705 106.833 73.6221 107.184C73.9738 107.536 74.4507 107.734 74.948 107.734H82.2509C82.5996 107.733 82.9441 107.81 83.2595 107.959C83.5748 108.108 83.8532 108.325 84.0745 108.594C84.5341 109.15 84.7099 109.861 84.5691 110.592C84.3586 111.669 83.2847 112.482 82.0704 112.482H63.143C61.2362 112.482 59.3402 112.196 57.518 111.635L47.5622 108.568C45.3801 107.895 43.1096 107.553 40.8263 107.553H39.9996V76.8043H42.4148C45.0038 76.8043 47.3623 75.3158 48.4198 73.0215C49.837 69.9856 52.7787 65.6459 58.7386 62.2138C61.5656 60.5923 64.1081 58.4518 66.2972 55.85L73.5061 47.2817C73.6552 47.1017 73.9099 47.1348 74.0407 47.3082C75.1748 48.8105 75.7746 50.6059 75.7746 52.4984C75.7746 54.7243 74.7127 56.7762 73.1796 58.3503C69.8224 61.7963 67.3507 65.203 65.6508 68.7165C64.0905 71.9415 66.4205 75.6915 70.0031 75.6915H86.7532C88.7733 75.6915 90.3464 77.3415 90.3464 79.2847C90.3464 81.2443 88.7438 82.8945 86.7532 82.8945H74.9477V82.8943H74.948ZM62.3147 24.9943C62.5202 25.1942 62.674 25.4411 62.7628 25.7137C62.8516 25.9863 62.8728 26.2764 62.8245 26.559L62.0416 31.1145C61.2705 35.619 66.0056 39.0596 70.0505 36.9254L74.13 34.7748C74.3839 34.641 74.6666 34.5712 74.9536 34.5713C75.2406 34.5715 75.5232 34.6417 75.777 34.7757L79.8436 36.9235C83.8781 39.0563 88.6219 35.6279 87.8562 31.1246L87.0816 26.5562V26.5552C87.0337 26.2736 87.0549 25.9846 87.1434 25.7131C87.2319 25.4415 87.3851 25.1955 87.5897 24.9962L90.881 21.7871C94.152 18.5975 92.3447 13.0409 87.8269 12.3802L83.2631 11.7137C82.9798 11.6726 82.7108 11.5632 82.4793 11.3949C82.2477 11.2266 82.0605 11.0046 81.934 10.7478L79.8952 6.6125C77.8692 2.50695 72.0258 2.51844 70.0057 6.6043L67.9521 10.7506C67.8256 11.0066 67.6387 11.228 67.4076 11.3958C67.1765 11.5636 66.9082 11.6727 66.6255 11.7137L62.0691 12.3784C57.5466 13.0391 55.744 18.6045 59.0205 21.7899L62.3147 24.9943ZM62.6114 16.0899L67.1679 15.4243C68.0509 15.2955 68.8895 14.9543 69.6116 14.43C70.3337 13.9057 70.9177 13.214 71.3135 12.4142L73.3671 8.26789C74.0137 6.95914 75.8843 6.95656 76.5319 8.27164L78.5716 12.407C78.9671 13.2086 79.5514 13.9022 80.2744 14.428C80.9973 14.9538 81.8372 15.296 82.7217 15.4252L87.2855 16.0918C88.7325 16.302 89.3152 18.0762 88.2633 19.1028L84.972 22.3119C84.3334 22.9349 83.8555 23.7036 83.5792 24.5519C83.3029 25.4002 83.2364 26.3028 83.3855 27.1824L84.1601 31.7518C84.4064 33.1965 82.8893 34.2945 81.5958 33.6073L77.5291 31.4595C76.736 31.0403 75.8525 30.8209 74.9553 30.8206C74.0582 30.8203 73.1745 31.039 72.3811 31.4577L68.3025 33.6071C67.0034 34.2936 65.4923 33.1918 65.7382 31.7476L66.521 27.192C66.6721 26.3096 66.6061 25.4037 66.3289 24.5524C66.0517 23.7011 65.5715 22.9301 64.9298 22.3058L61.6355 19.1007C60.5864 18.083 61.1562 16.3016 62.6114 16.0899ZM118.633 44.4041C121.311 41.7931 119.832 37.2425 116.132 36.7027L112.822 36.2202C112.699 36.2023 112.583 36.1548 112.482 36.0817C112.382 36.0086 112.301 35.9123 112.246 35.8009L110.768 32.8018C109.109 29.4404 104.326 29.4498 102.671 32.7955L101.181 35.803C101.126 35.9138 101.045 36.0097 100.945 36.0823C100.845 36.1548 100.728 36.2019 100.606 36.2195L97.3027 36.702C93.6005 37.2416 92.122 41.7971 94.8052 44.4071L97.1939 46.7307C97.2832 46.8174 97.35 46.9246 97.3886 47.0429C97.4272 47.1613 97.4364 47.2872 97.4154 47.4099L96.8487 50.7139C96.2198 54.3896 100.087 57.2192 103.405 55.472L106.364 53.912C106.474 53.8534 106.597 53.8228 106.721 53.8228C106.846 53.8228 106.969 53.8534 107.079 53.912L110.027 55.4694C113.331 57.2183 117.214 54.4109 116.588 50.7216L116.025 47.4083C116.005 47.2861 116.014 47.1608 116.053 47.043C116.091 46.9252 116.157 46.8184 116.246 46.7316L118.633 44.4041ZM116.014 41.7198L113.627 44.048C113.105 44.5584 112.714 45.1876 112.487 45.882C112.261 46.5764 112.207 47.3152 112.329 48.0352V48.0362L112.891 51.3495C112.999 51.9798 112.342 52.4485 111.778 52.1532L108.83 50.5958C108.181 50.2528 107.458 50.0734 106.723 50.073C105.989 50.0727 105.265 50.2515 104.615 50.5939L101.656 52.1539C101.09 52.4516 100.438 51.9739 100.546 51.3472L101.112 48.0423C101.236 47.32 101.182 46.5785 100.955 45.8818C100.728 45.1851 100.335 44.5541 99.8095 44.0431L97.4198 41.7186C96.9602 41.2716 97.2169 40.5043 97.8436 40.412L101.148 39.9303C101.87 39.8245 102.557 39.545 103.148 39.1157C103.739 38.6865 104.217 38.1203 104.541 37.4656L106.031 34.4581C106.312 33.8914 107.12 33.8839 107.403 34.46L108.882 37.4591C109.206 38.1155 109.684 38.6835 110.276 39.1141C110.868 39.5447 111.556 39.825 112.28 39.931L115.59 40.4136C116.222 40.5059 116.471 41.274 116.014 41.7198Z" fill="white"/>
<path d="M33.6562 46.7305C33.7455 46.8172 33.8124 46.9243 33.8509 47.0427C33.8895 47.161 33.8987 47.287 33.8777 47.4097L33.311 50.7137C32.6784 54.4121 36.5639 57.2115 39.8672 55.4717L42.8261 53.9117C42.9362 53.8532 43.059 53.8226 43.1837 53.8226C43.3084 53.8226 43.4311 53.8532 43.5412 53.9117L46.4892 55.4691C49.7927 57.219 53.6768 54.4107 53.0498 50.7214L52.4875 47.408C52.4672 47.2858 52.4767 47.1605 52.5151 47.0427C52.5535 46.925 52.6197 46.8182 52.7081 46.7314L55.0947 44.4043C57.7729 41.7934 56.2936 37.2427 52.5935 36.703L49.2839 36.2204C49.1611 36.2025 49.0444 36.155 48.9441 36.0819C48.8438 36.0089 48.7627 35.9125 48.708 35.8011L47.2293 32.802C45.5704 29.4406 40.7875 29.45 39.1324 32.7957L37.6427 35.8032C37.5879 35.9141 37.5069 36.0099 37.4067 36.0825C37.3065 36.155 37.1902 36.2021 37.0678 36.2197L33.7645 36.7023C30.0623 37.2418 28.5839 41.7973 31.267 44.4073L33.6562 46.7305ZM34.3061 40.4129L37.6101 39.9312C38.333 39.8256 39.0195 39.5462 39.6106 39.1169C40.2017 38.6876 40.6798 38.1213 41.0039 37.4666L42.4936 34.4591C42.7741 33.8923 43.5822 33.8848 43.8658 34.4609L45.3445 37.46C45.6684 38.1165 46.1469 38.6844 46.7389 39.115C47.3309 39.5456 48.0186 39.826 48.7429 39.9319L52.0525 40.4145C52.684 40.5062 52.9336 41.2744 52.4763 41.72L50.0887 44.0483C49.5664 44.5586 49.1754 45.1879 48.9493 45.8822C48.7232 46.5766 48.6688 47.3154 48.7905 48.0355V48.0364L49.3528 51.3498C49.4608 51.9816 48.8013 52.448 48.2404 52.1534L45.2925 50.596C44.643 50.253 43.9197 50.0736 43.1852 50.0733C42.4507 50.0729 41.7272 50.2517 41.0775 50.5941L38.1185 52.1541C37.5499 52.452 36.9 51.9727 37.0078 51.3474L37.5745 48.0425C37.6979 47.3202 37.6437 46.5788 37.4168 45.8821C37.1898 45.1854 36.7968 44.5543 36.2716 44.0434L33.8819 41.7191C33.4225 41.2721 33.6794 40.505 34.3061 40.4129Z" fill="white"/>
</g>
<defs>
<clipPath id="clip0_235_64">
<rect width="120" height="120" fill="white"/>
</clipPath>
</defs>
</svg>
