<svg width="96" height="121" viewBox="0 0 96 121" fill="none" xmlns="http://www.w3.org/2000/svg">
<path d="M90.4797 20.3193C68.3284 20.3312 51.3537 1.8915 51.0681 1.57759C49.2121 -0.4886 45.9599 -0.495288 44.0926 1.57947C43.9233 1.76635 26.9265 20.3535 4.69843 20.3654C2.10929 20.3668 0.0120581 22.4663 0.0134509 25.0554C0.0356134 66.2539 8.36408 101.894 45.631 119.574C46.2597 119.872 46.9469 120.026 47.6427 120.026C48.3385 120.025 49.0254 119.87 49.6538 119.571C86.9858 101.811 95.1918 66.04 95.1697 25.0043C95.1683 22.4151 93.0688 20.3179 90.4797 20.3193ZM47.6373 110.113C17.0962 94.507 9.90562 64.0879 9.41921 29.5169C27.3846 27.8293 41.3693 16.9958 47.5842 11.2978C53.8054 16.9891 67.8025 27.8076 85.7687 29.476C85.3195 64.0548 78.1581 94.4765 47.6373 110.112L47.6373 110.113ZM42.7988 64.594L61.8666 45.5061C63.6957 43.6749 66.6638 43.6726 68.4948 45.5025C70.3269 47.3327 70.3285 50.2999 68.4995 52.1318L46.1194 74.536C44.2904 76.367 41.3213 76.3677 39.4901 74.5396L26.7191 61.7819C24.887 59.952 24.8854 56.9839 26.7156 55.1526C28.5446 53.3207 31.5127 53.3191 33.3449 55.1491L42.7988 64.594Z" fill="white"/>
</svg>
