<svg width="111" height="120" viewBox="0 0 111 120" fill="none" xmlns="http://www.w3.org/2000/svg">
<path d="M27.5982 105.388C27.5982 104.814 27.3701 104.264 26.9642 103.858C26.5582 103.452 26.0077 103.224 25.4336 103.224C24.8595 103.224 24.309 103.452 23.903 103.858C23.4971 104.264 23.269 104.814 23.269 105.388V108.094C23.269 108.668 23.4971 109.219 23.903 109.624C24.309 110.03 24.8595 110.258 25.4336 110.258C26.0077 110.258 26.5582 110.03 26.9642 109.624C27.3701 109.219 27.5982 108.668 27.5982 108.094V105.388Z" fill="white"/>
<path fill-rule="evenodd" clip-rule="evenodd" d="M20.5633 3.21661C20.5633 1.38539 18.9843 -0.230456 16.9766 0.0271267C7.39846 1.25768 0 9.43755 0 19.3491V23.6782C0 31.752 4.91247 38.6753 11.9051 41.63V106.472C11.9051 113.944 17.9615 120 25.4336 120C32.9056 120 38.9621 113.944 38.9621 106.472V41.63C45.9547 38.6753 50.8671 31.7531 50.8671 23.6782V19.3491C50.8671 9.43755 43.4676 1.25768 33.8905 0.0271267C31.884 -0.230456 30.3038 1.38539 30.3038 3.21661V20.4303H20.5633V3.21661ZM4.32912 19.348C4.32912 12.0945 9.42666 6.02945 16.2342 4.54348V21.5125C16.2342 22.3737 16.5763 23.1995 17.1852 23.8084C17.7941 24.4173 18.6199 24.7594 19.481 24.7594H31.3861C32.2472 24.7594 33.0731 24.4173 33.682 23.8084C34.2909 23.1995 34.6329 22.3737 34.6329 21.5125V4.54456C41.4405 6.03053 46.538 12.0956 46.538 19.3491V23.6782C46.538 30.147 42.4827 35.6753 36.7672 37.8463C35.5442 38.3117 34.6329 39.4914 34.6329 40.9157V106.472C34.6329 108.911 33.6637 111.251 31.9385 112.976C30.2133 114.702 27.8734 115.671 25.4336 115.671C22.9937 115.671 20.6538 114.702 18.9286 112.976C17.2034 111.251 16.2342 108.911 16.2342 106.472V40.9157C16.2342 39.4925 15.3229 38.3117 14.0999 37.8474C8.3855 35.6753 4.32912 30.1459 4.32912 23.6771V19.348Z" fill="white"/>
<path d="M79.6556 29.4239C79.2116 29.2014 78.7215 29.0864 78.2249 29.0884H52.4904C51.9163 29.0884 51.3658 29.3165 50.9598 29.7224C50.5539 30.1283 50.3258 30.6789 50.3258 31.253C50.3258 31.827 50.5539 32.3776 50.9598 32.7835C51.3658 33.1895 51.9163 33.4175 52.4904 33.4175H77.9445C80.2714 34.713 84.9491 38.9133 86.0627 46.7101C86.1601 47.3962 86.5703 47.9601 87.1277 48.2805C84.6471 50.9948 81.5745 52.1172 79.9424 52.3563H43.291C42.7169 52.3563 42.1664 52.5844 41.7604 52.9903C41.3545 53.3963 41.1265 53.9468 41.1265 54.5209C41.1265 55.095 41.3545 55.6455 41.7604 56.0515C42.1664 56.4574 42.7169 56.6855 43.291 56.6855H80.2238L80.3569 56.6692C83.6168 56.2612 90.2295 53.6388 93.459 46.4038H103.358C104.219 46.4038 105.045 46.7459 105.653 47.3548C106.262 47.9637 106.604 48.7895 106.604 49.6506V49.8779C106.605 50.6537 106.327 51.4039 105.822 51.9927C105.317 52.5815 104.618 52.97 103.851 53.088L96.1084 54.2785C93.7166 54.6464 92.5542 57.4063 93.9601 59.376L96.7362 63.2614C97.5231 64.3628 97.9462 65.6827 97.9462 67.0364V79.9545C97.9462 81.6767 97.262 83.3284 96.0442 84.5462C94.8264 85.764 93.1747 86.4481 91.4525 86.4481H43.291C42.7169 86.4481 42.1664 86.6762 41.7604 87.0821C41.3545 87.4881 41.1265 88.0386 41.1265 88.6127C41.1265 89.1868 41.3545 89.7373 41.7604 90.1433C42.1664 90.5492 42.7169 90.7773 43.291 90.7773H91.4525C92.7848 90.7773 94.0608 90.537 95.2405 90.0954V95.6475C95.2405 96.2216 95.0124 96.7722 94.6065 97.1781C94.2005 97.584 93.65 97.8121 93.0759 97.8121H79.0063C78.4322 97.8121 77.8816 97.584 77.4757 97.1781C77.0697 96.7722 76.8417 96.2216 76.8417 95.6475V95.1075C76.8417 94.5334 76.6136 93.9828 76.2077 93.5769C75.8018 93.171 75.2512 92.9429 74.6771 92.9429C74.1031 92.9429 73.5525 93.171 73.1466 93.5769C72.7406 93.9828 72.5126 94.5334 72.5126 95.1075V95.6486C72.5126 97.3708 73.1967 99.0225 74.4145 100.24C75.6323 101.458 77.284 102.142 79.0063 102.142H93.0759C94.7981 102.142 96.4498 101.458 97.6676 100.24C98.8854 99.0225 99.5696 97.3708 99.5696 95.6486V87.5315C99.5696 87.4016 99.5577 87.275 99.536 87.1527C101.304 85.1726 102.279 82.61 102.275 79.9555V67.0364C102.276 64.7803 101.571 62.5807 100.259 60.7451L98.5057 58.2905L104.509 57.3662C106.298 57.0911 107.929 56.185 109.107 54.8117C110.285 53.4383 110.933 51.6886 110.934 49.879V49.6517C110.934 48.6568 110.738 47.6717 110.357 46.7525C109.976 45.8334 109.418 44.9982 108.715 44.2947C108.011 43.5912 107.176 43.0332 106.257 42.6524C105.338 42.2717 104.352 42.0758 103.358 42.0758H92.7588C91.5217 42.0758 90.4654 42.7652 89.9059 43.7511C87.9827 35.5842 82.7131 30.9705 79.6567 29.425L79.6556 29.4239Z" fill="white"/>
<path d="M93.4417 62.6534C93.2304 62.4631 92.9838 62.3163 92.7158 62.2214C92.4478 62.1265 92.1637 62.0853 91.8798 62.1001C91.5959 62.115 91.3177 62.1857 91.0611 62.3081C90.8044 62.4305 90.5745 62.6023 90.3843 62.8136L86.1601 67.5096H75.2183C74.6442 67.5096 74.0936 67.7376 73.6877 68.1436C73.2818 68.5495 73.0537 69.1001 73.0537 69.6742C73.0537 70.2482 73.2818 70.7988 73.6877 71.2047C74.0936 71.6107 74.6442 71.8387 75.2183 71.8387H86.6417C87.0969 71.8387 87.5469 71.7431 87.9627 71.5579C88.3785 71.3728 88.7507 71.1023 89.0552 70.764L93.603 65.7108C93.9866 65.284 94.1851 64.7222 94.1546 64.1491C94.1242 63.5759 93.8674 63.0383 93.4406 62.6545L93.4417 62.6534ZM76.3006 79.4147C76.3006 78.8406 76.0725 78.29 75.6666 77.8841C75.2606 77.4782 74.7101 77.2501 74.136 77.2501H43.291C42.7169 77.2501 42.1664 77.4782 41.7604 77.8841C41.3545 78.29 41.1265 78.8406 41.1265 79.4147C41.1265 79.9887 41.3545 80.5393 41.7604 80.9452C42.1664 81.3512 42.7169 81.5792 43.291 81.5792H74.136C74.7101 81.5792 75.2606 81.3512 75.6666 80.9452C76.0725 80.5393 76.3006 79.9887 76.3006 79.4147Z" fill="white"/>
</svg>
